<svg width="22" height="22" viewBox="0 0 22 22" fill="none" xmlns="http://www.w3.org/2000/svg">
<path d="M16.8667 8.25L11.0001 11.6875L5.13341 8.25V6.875L11.0001 10.3125L16.8667 6.875V8.25ZM16.8667 5.5H5.13341C4.31941 5.5 3.66675 6.11187 3.66675 6.875V15.125C3.66675 15.4897 3.82127 15.8394 4.09632 16.0973C4.37138 16.3551 4.74443 16.5 5.13341 16.5H16.8667C17.2557 16.5 17.6288 16.3551 17.9038 16.0973C18.1789 15.8394 18.3334 15.4897 18.3334 15.125V6.875C18.3334 6.51033 18.1789 6.16059 17.9038 5.90273C17.6288 5.64487 17.2557 5.5 16.8667 5.5V5.5Z" fill="white"/>
</svg>
