<svg width="32" height="32" viewBox="0 0 32 32" fill="none" xmlns="http://www.w3.org/2000/svg">
<circle cx="16" cy="16" r="15.25" stroke="white" stroke-width="1.5"/>
<path d="M21.8667 13.25L16 16.6875L10.1334 13.25V11.875L16 15.3125L21.8667 11.875V13.25ZM21.8667 10.5H10.1334C9.31935 10.5 8.66669 11.1119 8.66669 11.875V20.125C8.66669 20.4897 8.82121 20.8394 9.09626 21.0973C9.37132 21.3551 9.74437 21.5 10.1334 21.5H21.8667C22.2557 21.5 22.6287 21.3551 22.9038 21.0973C23.1788 20.8394 23.3334 20.4897 23.3334 20.125V11.875C23.3334 11.5103 23.1788 11.1606 22.9038 10.9027C22.6287 10.6449 22.2557 10.5 21.8667 10.5Z" fill="white"/>
</svg>
