<svg width="142" height="145" viewBox="0 0 142 145" fill="none" xmlns="http://www.w3.org/2000/svg">
<path d="M28.7799 55.024C28.8227 55.1203 28.8923 55.206 28.9887 55.2809C29.0422 55.3238 29.0904 55.3719 29.1332 55.4255C29.1761 55.4683 29.1975 55.5272 29.1975 55.6021L29.1654 55.7146C29.1118 55.9929 28.9619 56.3944 28.7157 56.9191C28.4694 57.433 28.1803 57.9469 27.8484 58.4609C27.5272 58.9641 27.2542 59.2853 27.0293 59.4245C26.8687 59.4887 26.6439 59.5208 26.3548 59.5208C26.2906 59.5208 26.1353 59.5155 25.8891 59.5048C25.6428 59.4941 25.3109 59.4619 24.8933 59.4084C24.4972 59.3549 24.1813 59.3281 23.9458 59.3281H23.8334C22.9982 59.3602 22.1524 59.4298 21.2958 59.5369C20.4393 59.644 19.5667 59.7403 18.678 59.826C17.1577 59.9652 15.6694 60.1579 14.2133 60.4041C13.5173 60.5112 13.0623 60.6772 12.8482 60.902C12.634 61.1269 12.452 61.5123 12.3021 62.0583C12.27 62.1868 12.2272 62.3314 12.1736 62.492V62.4598L12.1094 62.6526C12.0773 62.7918 12.0077 63.0005 11.9006 63.2789C11.8043 63.5466 11.6972 63.8143 11.5794 64.0819C11.4616 64.3389 11.3546 64.537 11.2582 64.6762C11.194 64.7618 11.1351 64.8046 11.0816 64.8046C11.0494 64.8046 11.0227 64.7832 11.0012 64.7404C10.9905 64.719 10.9852 64.6869 10.9852 64.644C10.9852 64.6012 10.9905 64.5477 11.0012 64.4834C11.0227 64.4192 11.0601 64.3014 11.1137 64.1301C11.1672 63.9588 11.2636 63.6965 11.4028 63.3432C11.5526 62.947 11.6918 62.5562 11.8203 62.1708C11.8846 61.9459 11.9381 61.7425 11.9809 61.5605C12.013 61.4213 12.0345 61.2553 12.0452 61.0626V60.9984C12.0452 60.8592 11.9756 60.7842 11.8364 60.7735C11.815 60.7842 11.7454 60.9555 11.6276 61.2875C11.5205 61.6087 11.3867 61.9995 11.2261 62.4598C11.0976 62.8881 10.9584 63.3057 10.8085 63.7125C10.6693 64.1194 10.5462 64.462 10.4391 64.7404C10.3428 65.0081 10.2732 65.1473 10.2304 65.158V65.0937C10.2197 65.0509 10.2036 65.0027 10.1822 64.9492C10.1608 64.8849 10.134 64.8314 10.1019 64.7886C10.0805 64.735 10.0537 64.7029 10.0216 64.6922H10.0055C9.9841 64.6922 9.96269 64.7083 9.94127 64.7404C9.89845 64.8368 9.83421 65.0188 9.74855 65.2864C9.6736 65.5541 9.5933 65.8432 9.50765 66.1537C9.4327 66.4642 9.36846 66.7372 9.31493 66.9728C9.29351 67.1012 9.28281 67.1923 9.28281 67.2458C9.28281 67.2886 9.28816 67.31 9.29887 67.31L9.3631 67.1976C9.41664 67.1227 9.47017 67.037 9.52371 66.9406C9.58795 66.8336 9.64148 66.7426 9.68431 66.6676C9.72714 66.6034 9.74855 66.5659 9.74855 66.5552V66.6194C9.74855 66.6623 9.7432 66.7426 9.73249 66.8603C9.72178 66.9674 9.70572 67.1066 9.68431 67.2779C9.6629 67.4385 9.64684 67.5777 9.63613 67.6955C9.63613 67.749 9.63078 67.7918 9.62007 67.824C9.60936 67.8561 9.59866 67.8721 9.58795 67.8721C9.6629 68.1291 9.72714 68.279 9.78067 68.3218C9.79138 68.3325 9.80744 68.3379 9.82885 68.3379C9.86097 68.3379 9.89309 68.2951 9.92521 68.2094C9.96804 68.1237 10.0109 67.9953 10.0537 67.824C10.1179 67.5884 10.1982 67.3636 10.2946 67.1494C10.3803 66.946 10.5034 66.8443 10.664 66.8443H10.68C10.7336 66.8657 10.7603 66.9353 10.7603 67.0531C10.7603 67.0852 10.755 67.1655 10.7443 67.294C10.7443 67.4117 10.7175 67.6098 10.664 67.8882C10.6104 68.188 10.573 68.4824 10.5516 68.7715V68.9803C10.5516 69.1623 10.573 69.3069 10.6158 69.4139C10.6265 69.446 10.6319 69.4835 10.6319 69.5263C10.6212 69.537 10.6104 69.5585 10.5997 69.5906C10.589 69.612 10.5676 69.6441 10.5355 69.6869C10.5034 69.7405 10.482 69.7833 10.4713 69.8154L10.4552 69.8475C10.4552 69.8797 10.4659 69.9064 10.4873 69.9278C10.498 69.9386 10.5355 69.9439 10.5997 69.9439C10.6212 69.9439 10.6693 69.9439 10.7443 69.9439C10.8299 69.9439 10.9477 69.9332 11.0976 69.9118C11.2475 69.8797 11.376 69.8422 11.4831 69.7994C11.6008 69.7458 11.6651 69.6816 11.6758 69.6066L11.6597 69.5906C11.6276 69.5799 11.5901 69.5692 11.5473 69.5585C11.5045 69.5478 11.4616 69.537 11.4188 69.5263C11.3867 69.5049 11.3599 69.4889 11.3385 69.4782C11.3171 69.4675 11.3064 69.4567 11.3064 69.446C11.3064 69.4353 11.3117 69.4246 11.3225 69.4139C11.3332 69.3925 11.3653 69.355 11.4188 69.3015C11.4723 69.248 11.5259 69.1944 11.5794 69.1409C11.6437 69.0767 11.7025 69.0285 11.7561 68.9964C11.8203 68.9642 11.8739 68.9482 11.9167 68.9482C11.9381 68.9589 11.9488 68.9856 11.9488 69.0285V69.0767C11.9595 69.1623 11.9702 69.2158 11.9809 69.2373C11.9916 69.248 12.0023 69.2533 12.013 69.2533C12.0345 69.2533 12.0559 69.2426 12.0773 69.2212C12.0987 69.1998 12.1255 69.1623 12.1576 69.1088C12.1897 69.0552 12.2218 68.9964 12.2539 68.9321C12.2861 68.8679 12.3075 68.8143 12.3182 68.7715C12.3396 68.718 12.3503 68.6805 12.3503 68.6591L12.3342 68.6912V68.6751C12.3342 68.643 12.3021 68.6216 12.2379 68.6109C12.1844 68.6002 12.104 68.5948 11.997 68.5948H11.8364C11.74 68.5948 11.6544 68.5895 11.5794 68.5788C11.5045 68.5467 11.467 68.5038 11.467 68.4503V68.4182L11.4831 68.37C11.633 68.1237 11.9649 67.9257 12.4788 67.7758C13.0034 67.6152 13.5816 67.492 14.2133 67.4064C14.845 67.31 15.4071 67.2351 15.8996 67.1816C16.2101 67.1494 16.4457 67.1227 16.6063 67.1013C16.8846 67.0477 17.2647 66.9728 17.7465 66.8764C18.6673 66.673 19.6416 66.491 20.6695 66.3304C21.1406 66.2554 21.5582 66.2179 21.9222 66.2179C22.3183 66.2179 22.6396 66.2661 22.8858 66.3625C23.0678 66.4588 23.1588 66.5713 23.1588 66.6997C23.1588 66.7426 23.1535 66.7908 23.1428 66.8443C23.1321 66.9192 23.1053 66.9995 23.0625 67.0852C23.0089 67.1816 22.9715 67.2726 22.9501 67.3582V68.0488C22.9501 68.188 22.9447 68.3218 22.934 68.4503C22.9233 68.5253 22.9072 68.6163 22.8858 68.7233C22.8537 68.8839 22.8002 69.082 22.7252 69.3176L22.5967 69.8636C22.5111 70.2598 22.3986 70.6238 22.2595 70.9557C22.1203 71.2769 21.874 71.5392 21.5207 71.7427C21.3494 71.839 21.1406 71.9033 20.8943 71.9354C20.6588 71.9568 20.4179 71.9675 20.1716 71.9675C19.8825 71.9782 19.6149 71.9996 19.3686 72.0317C18.3086 72.2459 17.2112 72.5135 16.0763 72.8347C15.3161 73.0489 14.5666 73.247 13.8278 73.429C13.1854 73.5682 12.5751 73.6538 11.997 73.6859C11.2261 73.7288 10.5355 73.8733 9.92521 74.1196C9.31493 74.3551 8.80635 74.9226 8.39949 75.8219C7.71426 77.535 7.18427 79.2856 6.80953 81.0736C6.68105 81.5769 6.55257 82.0747 6.42409 82.5672C6.32772 83.0169 6.24742 83.5523 6.18318 84.1733C6.11894 84.6979 6.03864 85.2065 5.94228 85.699L5.8941 85.9238C5.80844 86.3307 5.69067 86.6786 5.54077 86.9677C5.41229 87.1819 5.31593 87.3478 5.25169 87.4656C5.19816 87.562 5.16068 87.6316 5.13927 87.6744C5.11786 87.7065 5.1018 87.7226 5.09109 87.7226C5.08038 87.7226 5.06967 87.7226 5.05897 87.7226C5.04826 87.7226 5.02149 87.7065 4.97867 87.6744C4.92513 87.5994 4.85554 87.5459 4.76988 87.5138C4.74847 87.5031 4.72706 87.4977 4.70564 87.4977C4.67352 87.4977 4.65211 87.5138 4.6414 87.5459C4.6414 87.5673 4.60393 87.6101 4.52898 87.6744C4.45403 87.7279 4.29343 87.8029 4.04717 87.8992C3.81162 87.9956 3.56537 88.0866 3.3084 88.1722C3.05144 88.2472 2.84266 88.3114 2.68206 88.365L2.52145 88.4132C2.44651 88.4239 2.32338 88.4453 2.15207 88.4774C1.98076 88.4988 1.79874 88.5256 1.60602 88.5577C1.4133 88.5898 1.24199 88.6166 1.09209 88.638C0.97432 88.6487 0.888665 88.6541 0.835131 88.6541H0.77089C0.310498 88.5042 0.0588874 88.1401 0.0160601 87.562C0.00535332 87.4228 0 87.2782 0 87.1283C0 86.7001 0.0535341 86.229 0.160602 85.715C0.171309 85.6722 0.21949 85.4527 0.305144 85.0566C0.401505 84.6604 0.551401 84.1304 0.75483 83.4666C0.872605 83.049 0.968966 82.6904 1.04391 82.3906C1.16169 81.9195 1.42936 80.8381 1.84692 79.1464C2.2752 77.444 2.75165 75.5757 3.27628 73.5414C3.81162 71.4964 4.29878 69.7298 4.73776 68.2415C5.18745 66.7533 5.49259 65.9877 5.6532 65.9449C5.67461 65.9556 5.68532 66.0038 5.68532 66.0895C5.68532 66.1109 5.67996 66.1644 5.66926 66.2501C5.66926 66.3357 5.6532 66.4749 5.62108 66.6676C5.58895 66.8925 5.56754 67.1013 5.55684 67.294V67.4225C5.55684 67.5402 5.57825 67.6152 5.62108 67.6473C5.6532 67.6473 5.71744 67.5188 5.8138 67.2619C5.92087 67.0049 6.03329 66.6997 6.15106 66.3464C6.30096 65.8539 6.43479 65.4685 6.55257 65.1901C6.56327 65.2757 6.59004 65.3721 6.63287 65.4792C6.6757 65.5862 6.71852 65.6826 6.76135 65.7683L6.77741 65.7361C6.78812 65.6719 6.82024 65.6237 6.87377 65.5916C6.93801 65.5595 7.01296 65.5381 7.09862 65.5273C7.19498 65.5059 7.28063 65.4899 7.35558 65.4792C7.39841 65.4685 7.43588 65.4631 7.468 65.4631C7.48941 65.4631 7.50548 65.4685 7.51618 65.4792C7.59113 65.4792 7.6286 65.522 7.6286 65.6076V65.6719C7.6286 65.7254 7.62325 65.779 7.61254 65.8325C7.61254 65.8646 7.60184 65.9181 7.58042 65.9931C7.56972 66.068 7.5483 66.1591 7.51618 66.2661L7.468 66.491H7.50012C7.58578 66.491 7.73567 66.3357 7.94981 66.0252C8.17465 65.704 8.41555 65.3025 8.67252 64.8207C8.92948 64.3282 9.12756 63.8571 9.26674 63.4074L9.29887 63.2147C9.33099 63.0755 9.34704 62.9524 9.34704 62.8453C9.34704 62.6847 9.31493 62.5562 9.25068 62.4598H9.23462C9.21321 62.4598 9.18644 62.4759 9.15432 62.508C9.1222 62.5401 9.08473 62.583 9.0419 62.6365C8.98837 62.7115 8.93483 62.7811 8.8813 62.8453C8.82776 62.8988 8.77423 62.9256 8.7207 62.9256C8.66716 62.9149 8.6404 62.8774 8.6404 62.8132V62.6205C8.6404 62.5669 8.6404 62.5187 8.6404 62.4759C8.6404 62.4331 8.62969 62.4117 8.60828 62.4117C8.35131 62.4331 8.15859 62.5669 8.03011 62.8132C7.92304 63.0273 7.84274 63.2682 7.7892 63.5359C7.7785 63.568 7.75708 63.6751 7.72496 63.8571C7.69284 64.0284 7.67143 64.2211 7.66072 64.4353C7.65002 64.553 7.63931 64.6333 7.6286 64.6762L7.61254 64.6922C7.21639 64.3496 6.90054 63.9374 6.66499 63.4556C6.54721 63.2307 6.48833 62.9845 6.48833 62.7168C6.48833 62.5883 6.50439 62.4545 6.53651 62.3153C6.56863 62.144 6.62752 61.9673 6.71317 61.7853C6.73458 61.7532 6.80953 61.6354 6.93801 61.432C7.0772 61.2179 7.24316 60.9609 7.43588 60.6611C7.63931 60.3506 7.82132 60.0615 7.98193 59.7939C8.14253 59.5155 8.23889 59.3174 8.27101 59.1996C8.27101 59.2853 8.26566 59.4138 8.25495 59.5851C8.22283 59.8313 8.20142 60.0883 8.19071 60.356V60.4844C8.19071 60.6879 8.21212 60.8431 8.25495 60.9502H8.27101C8.29243 60.9502 8.3406 60.9234 8.41555 60.8699C8.4905 60.8164 8.57615 60.7468 8.67252 60.6611C8.77958 60.5647 8.86524 60.4737 8.92948 60.3881C8.9616 60.3453 8.98302 60.3131 8.99372 60.2917C8.99372 60.2703 8.98837 60.2542 8.97766 60.2435C9.0419 60.2757 9.07402 60.3185 9.07402 60.372V60.4202C9.07402 60.463 9.06867 60.5059 9.05796 60.5487C9.05796 60.6129 9.06331 60.6718 9.07402 60.7253C9.08473 60.7789 9.11685 60.8217 9.17038 60.8538C9.18109 60.8538 9.23462 60.7896 9.33099 60.6611C9.42735 60.5219 9.53442 60.3506 9.65219 60.1472C9.8235 59.8902 9.9841 59.6493 10.134 59.4245C10.2946 59.1889 10.407 59.0444 10.4713 58.9908C10.4927 58.9801 10.5141 58.9748 10.5355 58.9748C10.5569 58.9748 10.573 58.9855 10.5837 59.0069C10.5944 59.0283 10.6051 59.0711 10.6158 59.1354C10.6372 59.1889 10.6533 59.2425 10.664 59.296C10.664 59.3388 10.664 59.3709 10.664 59.3923C10.6747 59.4138 10.68 59.4298 10.68 59.4405H10.6961C10.7282 59.4405 10.7764 59.3763 10.8406 59.2478C10.9049 59.1193 10.9745 58.9587 11.0494 58.766C11.1351 58.5733 11.21 58.3966 11.2743 58.236C11.2957 58.1611 11.3171 58.0968 11.3385 58.0433L11.3706 57.979C11.3599 57.9362 11.3278 57.9148 11.2743 57.9148C11.2314 57.9148 11.1779 57.9255 11.1137 57.9469H11.0012C10.9691 57.9469 10.9263 57.9469 10.8728 57.9469C10.8299 57.9469 10.8032 57.9148 10.7925 57.8506V57.7542C10.7925 57.6686 10.8032 57.5829 10.8246 57.4972C10.8995 57.1332 11.1351 56.812 11.5312 56.5336C11.9381 56.2445 12.543 56.0411 13.346 55.9233C13.4103 55.9126 13.5334 55.8966 13.7154 55.8752C14.0366 55.843 14.4167 55.8002 14.8557 55.7467C15.3054 55.6824 15.6962 55.6182 16.0281 55.554C16.3707 55.4897 16.5474 55.4255 16.5581 55.3612C16.526 55.2756 16.4457 55.2167 16.3172 55.1846C16.1994 55.1525 16.0656 55.131 15.9157 55.1203C15.7765 55.1096 15.6641 55.0882 15.5784 55.0561C15.4928 55.0347 15.4499 54.9918 15.4499 54.9276V54.8955C15.5463 54.6706 15.9639 54.4886 16.7026 54.3494C17.4414 54.1995 18.3033 54.0871 19.2883 54.0122C20.2733 53.9372 21.1727 53.889 21.9864 53.8676C22.8002 53.8355 23.3248 53.8195 23.5603 53.8195C23.8601 53.8195 24.2509 53.8034 24.7327 53.7713C25.4073 53.7284 26.0871 53.707 26.7724 53.707C26.9116 53.707 27.2221 53.707 27.7039 53.707C28.1964 53.707 28.6086 53.8355 28.9405 54.0925C29.1011 54.2317 29.1975 54.3441 29.2296 54.4297C29.2403 54.4726 29.2457 54.51 29.2457 54.5422C29.2349 54.5743 29.2135 54.6118 29.1814 54.6546C29.1493 54.6867 29.0904 54.7188 29.0048 54.7509C28.9405 54.7831 28.887 54.8152 28.8442 54.8473C28.812 54.8687 28.796 54.9008 28.796 54.9437C28.7853 54.9651 28.7799 54.9918 28.7799 55.024Z" fill="#007219"/>
<path d="M39.8268 54.2852C39.8803 54.2852 39.9552 54.2906 40.0516 54.3013C40.255 54.3013 40.5013 54.3173 40.7904 54.3494C41.0795 54.3709 41.3418 54.4137 41.5773 54.4779C41.8236 54.5315 41.9735 54.6118 42.027 54.7188C42.0377 54.7295 42.0431 54.7456 42.0431 54.767V54.7991C42.0217 54.8955 41.9146 55.0133 41.7219 55.1525C41.6683 55.1846 41.6309 55.2542 41.6095 55.3612C41.5987 55.3826 41.588 55.4308 41.5773 55.5058C41.5773 55.5807 41.572 55.6985 41.5613 55.8591V56.0036C41.5613 56.1535 41.5506 56.2874 41.5291 56.4051C41.5184 56.4587 41.5024 56.5069 41.481 56.5497C41.299 56.978 41.0688 57.4062 40.7904 57.8345C40.5013 58.3056 40.2497 58.7821 40.0356 59.2639C40.0141 59.3388 39.9713 59.4673 39.9071 59.6493C39.8214 59.9491 39.7036 60.3024 39.5537 60.7093C39.4146 61.1161 39.2647 61.4427 39.1041 61.689C39.0184 61.8389 38.9328 61.9138 38.8471 61.9138C38.7936 61.9138 38.7454 61.8817 38.7026 61.8174C38.7026 61.8067 38.724 61.7425 38.7668 61.6247C38.8203 61.4962 38.8739 61.341 38.9274 61.159C38.9916 60.977 39.0452 60.8003 39.088 60.629C39.1308 60.447 39.1522 60.2971 39.1522 60.1793V60.1311C39.1522 60.0562 39.1255 60.0187 39.0719 60.0187H39.0398C38.8257 60.0936 38.6651 60.3078 38.558 60.6611C38.4938 60.8752 38.4349 61.0947 38.3814 61.3196C38.3492 61.4695 38.3225 61.6247 38.301 61.7853C38.2796 61.9031 38.2582 62.0155 38.2368 62.1226C38.2154 62.2297 38.1833 62.3474 38.1404 62.4759C38.1083 62.6044 38.0601 62.674 37.9959 62.6847C37.9745 62.6847 37.9584 62.6633 37.9477 62.6205C37.9477 62.5776 37.937 62.5241 37.9156 62.4598C37.9049 62.4063 37.8888 62.3528 37.8674 62.2992C37.8567 62.235 37.8407 62.1922 37.8192 62.1708C37.8085 62.1601 37.7925 62.1547 37.7711 62.1547C37.7496 62.1547 37.7282 62.1654 37.7068 62.1868C37.6961 62.1975 37.6586 62.3207 37.5944 62.5562C37.5302 62.7918 37.4606 63.0648 37.3856 63.3753L37.3374 63.6162C37.2839 63.841 37.2464 64.0605 37.225 64.2747V64.3389C37.225 64.5102 37.2625 64.6119 37.3374 64.644L37.4017 64.5156C37.4338 64.4299 37.4713 64.3335 37.5141 64.2265C37.5569 64.1194 37.5998 64.0337 37.6426 63.9695C37.6854 63.916 37.7282 63.8892 37.7711 63.8892C37.7818 63.8892 37.8032 63.8946 37.8353 63.9053C37.8781 63.9053 37.9263 63.9909 37.9798 64.1622C37.9798 64.1836 37.9691 64.2425 37.9477 64.3389L37.8674 64.6601C37.8032 64.8528 37.7496 65.0402 37.7068 65.2222L37.6747 65.3989C37.6533 65.5059 37.6426 65.5969 37.6426 65.6719V65.7201C37.6426 65.7736 37.6586 65.8004 37.6908 65.8004C37.7122 65.8004 37.7336 65.795 37.755 65.7843C37.8835 65.688 37.9906 65.5381 38.0762 65.3346C38.1619 65.1312 38.2368 64.9171 38.301 64.6922C38.3546 64.5102 38.4028 64.3657 38.4456 64.2586C38.4991 64.1515 38.5527 64.098 38.6062 64.098L38.6544 64.114C38.6865 64.1248 38.74 64.2372 38.815 64.4513C38.8471 64.5691 38.8632 64.7029 38.8632 64.8528C38.8632 65.0348 38.831 65.2918 38.7668 65.6237C38.7026 65.9556 38.6115 66.3304 38.4938 66.7479C38.4081 67.0691 38.3439 67.3368 38.301 67.5509L38.0923 68.5467C37.8139 69.8529 37.5034 71.1591 37.1608 72.4654L36.5826 74.7459C36.4327 75.3776 36.2614 76.0361 36.0687 76.7213C35.8224 77.6314 35.5922 78.5468 35.3781 79.4676L35.3299 79.6925C35.1479 80.5276 35.0301 81.3306 34.9766 82.1015C34.9659 82.4441 34.9605 82.7867 34.9605 83.1293V83.6272C34.9712 83.8521 34.9766 84.0823 34.9766 84.3178C34.9766 84.9388 34.9284 85.5812 34.832 86.245C34.7892 86.5234 34.7571 86.759 34.7357 86.9517C34.7143 87.1016 34.6929 87.2354 34.6714 87.3532C34.65 87.471 34.6179 87.5887 34.5751 87.7065C34.5322 87.8136 34.4198 87.9046 34.2378 87.9795C34.0665 88.0438 33.7828 88.1241 33.3866 88.2204C33.3117 88.2311 33.226 88.2472 33.1297 88.2686C32.862 88.3436 32.5354 88.4132 32.15 88.4774C31.7752 88.5416 31.4701 88.5898 31.2346 88.6219C30.8277 88.6755 30.3673 88.7076 29.8534 88.7183H29.6446C29.2056 88.7183 28.7827 88.6594 28.3758 88.5416C27.9797 88.4132 27.7174 88.1562 27.5889 87.7707V87.7386C27.5889 87.6958 27.6049 87.578 27.6371 87.3853C27.6692 87.1926 27.7067 86.9517 27.7495 86.6626C27.803 86.3735 27.8512 86.1058 27.894 85.8596C27.9476 85.6026 27.985 85.426 28.0064 85.3296L28.0225 85.2654C28.076 85.0405 28.1563 84.7193 28.2634 84.3017C28.3812 83.8735 28.5257 83.4666 28.697 83.0812C28.8683 82.6957 29.0557 82.4441 29.2591 82.3263C29.3127 82.3692 29.3662 82.3906 29.4197 82.3906C29.4947 82.3906 29.5536 82.337 29.5964 82.23C29.6714 82.1015 29.7302 81.9355 29.7731 81.7321C29.7838 81.6465 29.8052 81.4966 29.8373 81.2824C29.8694 81.0576 29.9016 80.7792 29.9337 80.4473C29.9658 80.1261 29.9979 79.8798 30.03 79.7085L30.3834 78.0704C30.4797 77.6849 30.5707 77.2941 30.6564 76.898C30.7742 76.3091 30.8919 75.7149 31.0097 75.1153C31.2131 73.9268 31.4273 72.7384 31.6521 71.5499C31.7913 70.854 31.9251 70.1527 32.0536 69.446L32.1179 69.0445C32.1607 68.8518 32.2303 68.5306 32.3266 68.0809C32.4337 67.6312 32.5676 67.0477 32.7282 66.3304C32.8995 65.6023 33.0547 64.9813 33.1939 64.4674C33.3331 63.9427 33.4241 63.6804 33.4669 63.6804C33.499 63.7125 33.5151 63.7928 33.5151 63.9213C33.5258 64.0498 33.5258 64.1944 33.5151 64.355V64.8849C33.5151 64.9813 33.5258 65.0562 33.5472 65.1098C33.5686 65.1633 33.6008 65.1901 33.6436 65.1901C33.6543 65.1901 33.6704 65.1847 33.6918 65.174C33.6811 65.174 33.6757 65.158 33.6757 65.1258V65.0616C33.6864 65.0295 33.7025 64.9706 33.7239 64.8849C33.7453 64.7886 33.7935 64.628 33.8684 64.4031C33.9541 64.1783 34.0344 63.9588 34.1093 63.7447C34.1736 63.5626 34.2218 63.4128 34.2539 63.295C34.286 63.22 34.3021 63.1665 34.3021 63.1344L34.3181 63.1023C34.3502 63.113 34.3663 63.1451 34.3663 63.1986C34.3663 63.2522 34.3609 63.311 34.3502 63.3753L34.3181 63.4716V63.6001C34.3181 63.6322 34.3395 63.6644 34.3824 63.6965C34.4038 63.7072 34.4252 63.7125 34.4466 63.7125C34.5001 63.7125 34.5483 63.6858 34.5911 63.6322C34.6447 63.568 34.6929 63.477 34.7357 63.3592C34.7785 63.2629 34.8267 63.1826 34.8802 63.1183C34.923 63.0541 34.9712 63.022 35.0248 63.022H35.0569C35.1318 63.0541 35.1961 63.1237 35.2496 63.2307C35.3138 63.3271 35.362 63.4395 35.3941 63.568C35.437 63.6965 35.4584 63.8089 35.4584 63.9053C35.4584 63.9481 35.453 63.9856 35.4423 64.0177C35.4423 64.0391 35.437 64.0552 35.4263 64.0659C35.6297 63.9909 35.8331 63.7661 36.0366 63.3913C36.2507 63.0059 36.4381 62.5776 36.5987 62.1065C36.6843 61.8389 36.7486 61.5872 36.7914 61.3517C36.8342 61.1697 36.8717 60.9395 36.9038 60.6611V60.5647C36.9038 60.3506 36.8449 60.2168 36.7271 60.1632H36.7111C36.6576 60.1632 36.6094 60.19 36.5665 60.2435C36.5344 60.2971 36.5077 60.3667 36.4862 60.4523C36.4434 60.5166 36.4113 60.5701 36.3899 60.6129C36.3685 60.6558 36.3471 60.6772 36.3256 60.6772H36.3096C36.1704 60.6343 36.0687 60.5754 36.0044 60.5005C35.9509 60.4363 35.9027 60.3934 35.8599 60.372H35.8117C35.7689 60.372 35.71 60.4041 35.6351 60.4684C35.5708 60.5219 35.4852 60.645 35.3781 60.8378C35.3567 60.8699 35.3406 60.9074 35.3299 60.9502V61.0144C35.3299 61.068 35.3353 61.1376 35.346 61.2232C35.3674 61.2982 35.4049 61.3999 35.4584 61.5284C35.544 61.7318 35.5922 61.9192 35.6029 62.0905V62.1386C35.5708 62.2778 35.4263 62.3795 35.1693 62.4438H35.1532C35.1425 62.4438 35.1211 62.4224 35.089 62.3795C35.0569 62.3367 35.0301 62.2725 35.0087 62.1868C34.9445 62.0583 34.8695 61.9299 34.7839 61.8014C34.6982 61.6836 34.5858 61.6247 34.4466 61.6247H34.4145C34.2539 61.6568 34.12 61.7639 34.013 61.9459C33.9059 62.1172 33.8202 62.2992 33.756 62.492C33.7025 62.6847 33.665 62.8185 33.6436 62.8935C33.665 62.765 33.6864 62.4063 33.7078 61.8174C33.7399 61.1429 33.7774 60.3613 33.8202 59.4726C33.8738 58.584 33.9434 57.7756 34.029 57.0476C34.0611 56.6835 34.104 56.3837 34.1575 56.1482C34.211 55.9233 34.2646 55.7627 34.3181 55.6664C34.5215 55.3773 34.7089 55.2113 34.8802 55.1685C34.9659 55.1364 35.0515 55.1203 35.1372 55.1203C35.2121 55.1203 35.2871 55.131 35.362 55.1525C35.437 55.1632 35.5119 55.1685 35.5869 55.1685C35.6297 55.1685 35.6886 55.1685 35.7635 55.1685C35.8492 55.1685 35.9616 55.1257 36.1008 55.04C36.2935 54.9223 36.4059 54.7938 36.4381 54.6546L36.4702 54.5422C36.4809 54.4779 36.4862 54.419 36.4862 54.3655V54.2852C36.4862 54.2424 36.4916 54.2103 36.5023 54.1888V54.1407C36.8235 54.0015 37.1554 53.9319 37.498 53.9319C37.5623 53.9319 37.7175 53.9426 37.9638 53.964C38.21 53.9854 38.5312 54.0443 38.9274 54.1407C39.2486 54.2049 39.5484 54.2531 39.8268 54.2852ZM28.5043 86.6144C28.5364 86.7643 28.5793 86.8393 28.6328 86.8393L28.697 86.8232C28.7506 86.8125 28.8202 86.7482 28.9058 86.6305C29.0022 86.5127 29.0878 86.3896 29.1628 86.2611C29.2484 86.1219 29.3073 86.0148 29.3394 85.9399L29.3716 85.9078L29.3876 85.8275C29.3983 85.806 29.4037 85.7846 29.4037 85.7632C29.4037 85.699 29.3769 85.6615 29.3234 85.6508C29.2913 85.6401 29.2591 85.6347 29.227 85.6347C29.1628 85.6347 29.0718 85.6615 28.954 85.715C28.8362 85.7686 28.7292 85.8703 28.6328 86.0202C28.59 86.0951 28.5578 86.1861 28.5364 86.2932C28.515 86.3896 28.5043 86.4966 28.5043 86.6144ZM34.9605 76.6892C34.8535 76.7641 34.7732 76.898 34.7196 77.0907L34.6875 77.2513C34.6661 77.3584 34.6554 77.4601 34.6554 77.5564C34.6554 77.5993 34.6607 77.6689 34.6714 77.7652C34.6821 77.8509 34.7464 77.8937 34.8642 77.8937C34.8642 77.883 34.8749 77.8723 34.8963 77.8616C34.9284 77.8402 34.9712 77.8134 35.0248 77.7813C35.089 77.7385 35.1532 77.701 35.2175 77.6689C35.2924 77.626 35.3513 77.5939 35.3941 77.5725C35.4156 77.5511 35.437 77.535 35.4584 77.5243L35.4905 77.5083C35.5547 77.4869 35.6083 77.4012 35.6511 77.2513C35.6832 77.1764 35.7046 77.0961 35.7154 77.0104C35.7368 76.9247 35.7582 76.8123 35.7796 76.6731C35.801 76.5339 35.8064 76.3948 35.7957 76.2556C35.7957 76.1057 35.7903 76.0254 35.7796 76.0147C35.6725 75.9611 35.5922 75.9344 35.5387 75.9344C35.4744 75.9344 35.4263 75.9611 35.3941 76.0147C35.3727 76.0575 35.3513 76.111 35.3299 76.1753C35.3085 76.2609 35.271 76.3519 35.2175 76.4483C35.1639 76.5339 35.0783 76.6143 34.9605 76.6892Z" fill="#007219"/>
<path d="M65.7293 57.3045C66.8321 58.1289 67.7476 59.1996 68.4756 60.5166C69.2144 61.8335 69.6694 63.2789 69.8407 64.8528C69.8836 65.249 69.905 65.6451 69.905 66.0413C69.905 66.7586 69.83 67.4813 69.6801 68.2094C69.5838 68.6698 69.45 69.1355 69.2786 69.6066C68.9146 70.6773 68.5934 71.7427 68.315 72.8026C68.0581 73.7448 67.7743 74.6817 67.4638 75.6132C67.1533 76.5447 66.7518 77.4815 66.2593 78.4237C66.1951 78.5201 65.9274 78.8573 65.4563 79.4355C64.9852 80.003 64.4445 80.6454 63.8342 81.3627C63.2346 82.0694 62.6993 82.6743 62.2282 83.1775C61.8106 83.6379 61.5644 83.8681 61.4894 83.8681H61.4734V83.8039C61.4841 83.7075 61.5751 83.5683 61.7464 83.3863C61.9284 83.2043 62.1479 82.9902 62.4049 82.7439C62.7582 82.412 63.058 82.1015 63.3042 81.8124C63.4434 81.6625 63.5237 81.534 63.5451 81.427V81.3627C63.5451 81.2985 63.5184 81.2396 63.4648 81.1861C63.4434 81.1861 63.3149 81.2824 63.0794 81.4751C62.7261 81.7856 62.2817 82.1497 61.7464 82.5672C61.8213 82.5672 61.8909 82.5833 61.9552 82.6154C61.8588 82.7974 61.6822 83.0062 61.4252 83.2418C61.1789 83.4773 60.9434 83.6165 60.7185 83.6593C60.7721 83.5737 60.8524 83.4773 60.9594 83.3702C61.0451 83.2953 61.1147 83.215 61.1682 83.1293C61.2218 83.0651 61.2539 83.0009 61.2646 82.9366V82.9045C60.7721 83.2578 60.408 83.4398 60.1725 83.4505C59.9369 83.4184 59.8192 83.3488 59.8192 83.2418V83.2096C59.8513 83.0705 59.9637 82.9045 60.1564 82.7118C60.3492 82.5191 60.5579 82.321 60.7828 82.1176C60.9969 81.9355 61.1736 81.7696 61.3128 81.6197C61.3984 81.534 61.4466 81.4644 61.4573 81.4109V81.3788C61.4573 81.3574 61.452 81.3413 61.4412 81.3306H61.4091C61.3021 81.3306 61.029 81.4591 60.5901 81.716C60.1618 81.973 59.6586 82.2996 59.0804 82.6957C58.5022 83.0919 57.9937 83.4613 57.5547 83.8039C57.1264 84.1465 56.8909 84.382 56.848 84.5105C56.848 84.5319 56.7784 84.5641 56.6392 84.6069C56.5108 84.6497 56.3502 84.6979 56.1574 84.7514C55.8898 84.8264 55.6007 84.912 55.2902 85.0084C54.9904 85.1047 54.7388 85.2065 54.5354 85.3135C54.3533 85.4099 54.2516 85.5116 54.2302 85.6187L54.2142 85.6508C54.2249 85.7043 54.257 85.7311 54.3105 85.7311C54.3319 85.7311 54.3748 85.7257 54.439 85.715C54.5032 85.6936 54.5996 85.6562 54.7281 85.6026C54.8673 85.5384 55.0011 85.4902 55.1296 85.4581C55.1617 85.4474 55.1938 85.442 55.2259 85.442C55.2902 85.442 55.3384 85.4741 55.3705 85.5384V85.6187C55.3598 85.6615 55.3116 85.7097 55.2259 85.7632C55.1403 85.806 55.0225 85.8596 54.8726 85.9238C54.7548 85.9666 54.6424 86.0202 54.5354 86.0844C54.439 86.138 54.3855 86.1968 54.3748 86.2611C54.3855 86.4645 54.4765 86.5662 54.6478 86.5662C54.7013 86.5662 54.8191 86.5395 55.0011 86.4859C55.1831 86.4324 55.4829 86.2771 55.9005 86.0202C56.3287 85.7525 56.7249 85.4848 57.0889 85.2172C57.453 84.9388 57.7046 84.7461 57.8438 84.639L57.8919 84.5908C58.2024 84.4409 58.4219 84.366 58.5504 84.366C58.5932 84.366 58.6254 84.3767 58.6468 84.3981L58.6628 84.4623L58.6468 84.5426C58.6254 84.639 58.5504 84.7835 58.4219 84.9763C58.3042 85.1583 58.1543 85.3617 57.9722 85.5866L57.7153 85.9238C57.6082 86.0844 57.5386 86.2129 57.5065 86.3093C57.4851 86.3628 57.4744 86.4056 57.4744 86.4377V86.4699C57.4744 86.4806 57.4744 86.4966 57.4744 86.5181C57.4744 86.5395 57.4851 86.5555 57.5065 86.5662L57.5226 86.5823L57.5065 86.6144L57.5226 86.6305C57.5226 86.6412 57.5172 86.6572 57.5065 86.6787C57.4958 86.7001 57.469 86.7375 57.4262 86.7911C57.3834 86.8339 57.3245 86.8928 57.2495 86.9677C57.0033 87.1819 56.6285 87.4121 56.1253 87.6583C55.6328 87.9046 55.1189 88.1187 54.5835 88.3007C54.0589 88.4827 53.6413 88.5898 53.3308 88.6219H52.1103C51.5963 88.6219 51.0449 88.6219 50.4561 88.6219C49.8779 88.6219 49.38 88.6326 48.9625 88.6541C48.5449 88.6862 48.3201 88.7344 48.2879 88.7986C48.3093 88.7129 48.4378 88.6487 48.6734 88.6059C48.9089 88.5738 49.198 88.5363 49.5406 88.4935C50.0438 88.4506 50.531 88.381 51.0021 88.2847C51.4839 88.1883 51.8051 88.0277 51.9657 87.8029V87.7547C51.9657 87.7012 51.8801 87.653 51.7088 87.6101C51.5482 87.5673 51.3394 87.5352 51.0824 87.5138C50.8362 87.4924 50.6274 87.4817 50.4561 87.4817C50.5952 87.4388 50.7559 87.3799 50.9379 87.305C51.1199 87.2301 51.2858 87.1497 51.4357 87.0641L51.3233 86.9677L51.0021 86.9356C50.895 86.9356 50.7398 86.9356 50.5364 86.9356C50.3329 86.9356 50.1134 86.9249 49.8779 86.9035C49.6531 86.8821 49.4978 86.8553 49.4121 86.8232C49.3693 86.8125 49.3479 86.8018 49.3479 86.7911C49.3479 86.7697 49.3961 86.7482 49.4925 86.7268C49.3961 86.7054 49.3318 86.6894 49.2997 86.6787C49.2141 86.6572 49.1284 86.6412 49.0428 86.6305C48.9678 86.6091 48.9036 86.5876 48.85 86.5662C48.8179 86.5448 48.8019 86.5288 48.8019 86.5181V86.502C48.8768 86.4163 48.9571 86.3628 49.0428 86.3414C49.1284 86.32 49.2194 86.3093 49.3158 86.3093C49.4122 86.3093 49.5032 86.2986 49.5888 86.2771C49.6745 86.245 49.728 86.2129 49.7494 86.1808C49.7494 86.1594 49.6691 86.1487 49.5085 86.1487C49.3372 86.1487 49.1284 86.138 48.8822 86.1165C48.6466 86.0844 48.4271 86.0523 48.2237 86.0202C48.0203 85.9774 47.8864 85.9292 47.8222 85.8756C47.865 85.8971 47.9293 85.9078 48.0149 85.9078C48.2826 85.9078 48.8233 85.7686 49.637 85.4902C50.4614 85.2118 51.4679 84.8157 52.6563 84.3017C53.8448 83.7878 54.9315 83.2846 55.9165 82.7921C56.9016 82.2996 57.544 81.9248 57.8438 81.6679L57.8598 81.6839L57.8438 81.7321L57.8277 81.716L57.8438 81.7803L57.8277 81.8445C57.817 81.9195 57.7795 81.9998 57.7153 82.0854C57.651 82.1604 57.56 82.246 57.4423 82.3424C57.3031 82.4495 57.2014 82.5565 57.1371 82.6636C57.1692 82.6101 57.287 82.503 57.4904 82.3424C57.6939 82.1711 57.9401 81.973 58.2292 81.7482C58.6789 81.4055 59.0858 81.0843 59.4498 80.7846C59.3855 80.731 59.3374 80.6561 59.3052 80.5597C59.3802 80.549 59.4444 80.5329 59.498 80.5115C59.5515 80.3723 59.6264 80.2064 59.7228 80.0137C59.8299 79.8102 59.9316 79.6229 60.028 79.4516C60.135 79.2695 60.2046 79.1571 60.2367 79.1143C60.2903 79.05 60.392 78.943 60.5419 78.7931C60.7025 78.6432 60.8631 78.4826 61.0237 78.3113C61.195 78.14 61.3074 77.9901 61.361 77.8616L61.377 77.7974V77.7652C61.377 77.6903 61.3235 77.6367 61.2164 77.6046C61.12 77.6046 60.9701 77.7117 60.7667 77.9258C60.5633 78.1293 60.3492 78.3702 60.1243 78.6485C59.9423 78.8734 59.7656 79.0768 59.5943 79.2588C59.4337 79.4408 59.2945 79.564 59.1768 79.6282C59.1339 79.6496 59.0965 79.6603 59.0643 79.6603C59.0108 79.6603 58.9787 79.6229 58.968 79.5479V79.5158C58.9894 79.4301 59.0697 79.2749 59.2089 79.05C59.3588 78.8145 59.5408 78.5522 59.7549 78.2631C59.9798 77.974 60.1778 77.7117 60.3492 77.4761C60.5419 77.2299 60.6543 77.0746 60.6864 77.0104C61.2432 76.0361 61.6982 75.0457 62.0515 74.0393C62.073 73.9964 62.0944 73.9483 62.1158 73.8947C62.6511 72.5564 63.0633 71.218 63.3524 69.8797C63.513 69.0981 63.6361 68.3165 63.7218 67.5349C63.7432 67.2458 63.7539 66.9621 63.7539 66.6837C63.7539 64.8635 63.2239 63.386 62.164 62.2511C61.104 61.1054 59.4391 60.5166 57.1692 60.4844H57.0247C56.5964 60.4844 56.0343 60.5005 55.3384 60.5326C54.6531 60.554 53.9786 60.6397 53.3148 60.7896C52.6617 60.9288 52.1799 61.1697 51.8694 61.5123C51.8051 61.5872 51.7516 61.7211 51.7088 61.9138C51.6981 61.9566 51.6766 62.0583 51.6445 62.2189C51.6231 62.3795 51.591 62.6419 51.5482 63.0059C51.4839 63.5091 51.3983 64.0016 51.2912 64.4834C51.2805 64.5691 51.2377 64.7779 51.1627 65.1098C51.0985 65.431 50.9325 65.6558 50.6648 65.7843C50.6327 65.7843 50.606 65.7629 50.5845 65.7201C50.5631 65.6665 50.5364 65.6076 50.5042 65.5434C50.4828 65.4578 50.4614 65.3935 50.44 65.3507C50.4186 65.3186 50.3972 65.3025 50.3758 65.3025C50.3543 65.3025 50.3383 65.3132 50.3276 65.3346C50.2526 65.431 50.1563 65.6505 50.0385 65.9931C49.9421 66.2822 49.8618 66.5713 49.7976 66.8603C49.7869 66.9139 49.7601 67.037 49.7173 67.2297C49.7066 67.294 49.7012 67.3475 49.7012 67.3903C49.7012 67.4974 49.7334 67.5777 49.7976 67.6312V67.6152C49.7976 67.5938 49.8083 67.5616 49.8297 67.5188C49.8618 67.4653 49.8993 67.3957 49.9421 67.31C49.9957 67.2244 50.0439 67.1387 50.0867 67.0531C50.1402 66.9674 50.183 66.8978 50.2152 66.8443C50.2473 66.8015 50.2687 66.78 50.2794 66.78C50.2794 66.8336 50.2633 66.9567 50.2312 67.1494C50.1991 67.3422 50.1616 67.5616 50.1188 67.8079C50.076 68.0434 50.0331 68.2469 49.9903 68.4182C49.9582 68.5788 49.9368 68.6591 49.9261 68.6591C50.001 68.7769 50.0706 68.8358 50.1349 68.8358C50.1563 68.8358 50.1937 68.8197 50.2473 68.7876C50.3115 68.7555 50.3811 68.6537 50.4561 68.4824C50.5417 68.3111 50.6167 68.1237 50.6809 67.9203C50.7559 67.7062 50.8308 67.5242 50.9057 67.3743C50.9807 67.2244 51.0556 67.1441 51.1306 67.1334C51.1734 67.1548 51.1948 67.2297 51.1948 67.3582C51.1948 67.5616 51.1467 67.8882 51.0503 68.3379C51.0075 68.552 50.895 69.0285 50.713 69.7672C50.531 70.506 50.2045 71.6784 49.7334 73.2844C49.2623 74.8797 48.834 76.2984 48.4485 77.5404C48.1487 78.5147 47.956 79.1571 47.8704 79.4676L47.7901 79.8691C47.6937 80.2974 47.5973 80.7953 47.501 81.3627C47.4046 82.0051 47.2922 82.6368 47.1637 83.2578C47.1102 83.5041 47.0138 83.9056 46.8746 84.4623C46.7354 85.0084 46.5855 85.3564 46.4249 85.5063C46.2751 85.6454 46.1787 85.715 46.1359 85.715C46.1145 85.715 46.0716 85.7204 46.0074 85.7311C45.9538 85.7418 45.8682 85.7686 45.7504 85.8114C45.6326 85.8542 45.5202 85.8971 45.4132 85.9399C45.3168 85.9827 45.1134 86.0523 44.8029 86.1487C44.5031 86.245 44.0695 86.3039 43.502 86.3253C43.2771 86.3467 43.0416 86.3735 42.7953 86.4056C42.6883 86.427 42.5491 86.4806 42.3778 86.5662C42.1851 86.6733 41.987 86.7536 41.7835 86.8071C41.73 86.8178 41.6765 86.8232 41.6229 86.8232C41.4838 86.8232 41.3499 86.775 41.2214 86.6787C41.0822 86.5395 41.0127 86.336 41.0127 86.0684C41.0127 85.9934 41.018 85.9185 41.0287 85.8435C41.0394 85.5651 41.0769 85.2707 41.1411 84.9602C41.1733 84.8424 41.1947 84.7461 41.2054 84.6711C41.2161 84.5855 41.2375 84.4677 41.2696 84.3178L41.4142 83.9002C41.4891 83.6112 41.5426 83.381 41.5748 83.2096L41.7675 82.246C41.8746 81.7642 41.987 81.2824 42.1047 80.8006C42.1904 80.4473 42.2814 80.0833 42.3778 79.7085L42.6026 78.6325C42.7846 77.7652 43.0255 76.6571 43.3253 75.308C43.6251 73.9483 43.9463 72.5831 44.2889 71.2127C44.6316 69.8422 44.9635 68.6912 45.2847 67.7597C45.6059 66.8282 45.8896 66.3518 46.1359 66.3304C46.168 66.3304 46.184 66.3625 46.184 66.4267C46.184 66.4588 46.1787 66.4963 46.168 66.5391C46.1573 66.6248 46.1412 66.7212 46.1198 66.8282L46.0877 67.0049C46.0556 67.1441 46.0341 67.2726 46.0234 67.3903C46.0127 67.476 46.0074 67.5456 46.0074 67.5991V67.6794C46.0181 67.7222 46.0341 67.7437 46.0556 67.7437C46.077 67.7437 46.1037 67.733 46.1359 67.7115C46.3072 67.6045 46.4517 67.3903 46.5695 67.0691C46.6873 66.7479 46.7836 66.416 46.8586 66.0734C46.9121 65.9021 46.9496 65.7468 46.971 65.6076C47.0031 65.4792 47.0245 65.3667 47.0352 65.2704V65.2222L47.0995 65.1901C47.0995 65.0616 47.1048 64.9492 47.1155 64.8528C47.1369 64.7565 47.153 64.6922 47.1637 64.6601H47.244C47.2119 64.553 47.1798 64.462 47.1477 64.3871C47.1155 64.3335 47.0727 64.3068 47.0192 64.3068H46.9871C46.8479 64.3389 46.7515 64.4192 46.698 64.5477L46.6016 64.9974C46.6016 65.0937 46.5909 65.1847 46.5695 65.2704C46.5588 65.3132 46.5427 65.3775 46.5213 65.4631C46.4999 65.5381 46.4249 65.5862 46.2965 65.6076C46.2429 65.6076 46.2162 65.5595 46.2162 65.4631C46.2162 65.3989 46.2269 65.3186 46.2483 65.2222C46.2804 65.1044 46.35 64.8689 46.4571 64.5156C46.5641 64.1622 46.7676 63.6269 47.0674 62.9095C47.3779 62.1922 47.6776 61.5712 47.9667 61.0465C48.2451 60.5326 48.4485 60.2757 48.577 60.2757C48.6091 60.2971 48.6252 60.3399 48.6252 60.4041C48.6252 60.4256 48.6198 60.4577 48.6091 60.5005C48.577 60.629 48.5395 60.7735 48.4967 60.9341C48.4432 61.1054 48.4004 61.266 48.3682 61.4159C48.3575 61.4909 48.3522 61.5605 48.3522 61.6247C48.3522 61.6783 48.3575 61.7264 48.3682 61.7693C48.4111 61.8228 48.4592 61.8496 48.5128 61.8496C48.5235 61.8496 48.5556 61.8442 48.6091 61.8335C48.6627 61.8121 48.7323 61.7639 48.8179 61.689C48.9143 61.6033 48.9946 61.523 49.0588 61.4481C49.1017 61.4052 49.1391 61.3678 49.1712 61.3356C49.2141 61.3035 49.2462 61.2875 49.2676 61.2875C49.2997 61.2875 49.3211 61.3142 49.3318 61.3678C49.3426 61.4106 49.3479 61.4641 49.3479 61.5284C49.3586 61.614 49.3747 61.689 49.3961 61.7532C49.4175 61.7746 49.4389 61.7853 49.4603 61.7853C49.4817 61.7853 49.5085 61.7746 49.5406 61.7532C49.5513 61.7425 49.5728 61.705 49.6049 61.6408C49.6477 61.5765 49.7119 61.4855 49.7976 61.3678C49.8832 61.25 49.9689 61.1376 50.0546 61.0305C50.1509 60.9127 50.2152 60.7735 50.2473 60.6129C50.2687 60.5273 50.2794 60.4577 50.2794 60.4041C50.2794 60.3399 50.2687 60.2917 50.2473 60.2596C50.183 60.1632 50.1509 60.0883 50.1509 60.0348V60.0026C50.2152 59.7992 50.3008 59.5315 50.4079 59.1996C50.5149 58.9105 50.6113 58.6268 50.697 58.3484C50.7612 58.1771 50.8094 58.0219 50.8415 57.8827C50.8522 57.797 50.8629 57.7167 50.8736 57.6418V57.6097C50.8736 57.524 50.8362 57.433 50.7612 57.3366C50.6863 57.251 50.6274 57.1546 50.5845 57.0476C50.5524 56.9726 50.5364 56.8977 50.5364 56.8227C50.5364 56.7799 50.5417 56.7371 50.5524 56.6942L50.5685 56.63C50.7184 56.2767 50.9914 56.0411 51.3876 55.9233C51.7837 55.8056 52.1692 55.736 52.5439 55.7146C52.7045 55.6931 52.8383 55.6771 52.9454 55.6664C54.3159 55.4522 55.6542 55.3398 56.9605 55.3291C57.7742 55.3077 58.5986 55.2649 59.4337 55.2006H59.4498C59.4498 55.1899 59.4444 55.1846 59.4337 55.1846C59.4337 55.1739 59.4177 55.1632 59.3855 55.1525C59.3641 55.1417 59.3481 55.1257 59.3374 55.1043C59.3481 55.0936 59.3641 55.0882 59.3855 55.0882C59.4284 55.0882 59.5408 55.1096 59.7228 55.1525C59.9048 55.1846 60.1832 55.2381 60.5579 55.3131C60.9327 55.3773 61.2753 55.4415 61.5858 55.5058C61.8963 55.57 62.0944 55.6128 62.18 55.6343C63.5184 55.9448 64.7015 56.5015 65.7293 57.3045Z" fill="#007219"/>
<path d="M91.7764 73.5896C91.7229 74.6388 91.6747 75.6988 91.6319 76.7695C91.5676 78.5254 91.4713 80.292 91.3428 82.0694C91.225 83.8467 91.0216 85.608 90.7325 87.3532L90.7004 87.4817C90.6147 87.8778 90.5184 88.0973 90.4113 88.1401H90.3631C90.2668 88.1401 90.1651 88.0491 90.058 87.8671C89.9616 87.6851 89.8813 87.4656 89.8171 87.2086C89.7743 87.048 89.7528 86.9142 89.7528 86.8071C89.7528 86.7536 89.7582 86.7108 89.7689 86.6787C89.7154 86.7964 89.6565 87.0159 89.5922 87.3371C89.5173 87.6904 89.4156 88.0491 89.2871 88.4132C89.1693 88.7772 89.0194 89.0181 88.8374 89.1359C88.6661 89.2215 88.5216 89.2643 88.4038 89.2643C88.3288 89.2643 88.2432 89.2322 88.1468 89.168C88.0505 89.1144 87.938 89.0127 87.8096 88.8628C87.7239 88.7558 87.6275 88.6594 87.5205 88.5738C87.4134 88.4881 87.2903 88.4346 87.1511 88.4132C87.0975 88.4132 87.028 88.4239 86.9423 88.4453C86.8674 88.4667 86.7871 88.4935 86.7014 88.5256C86.6157 88.5577 86.5515 88.5898 86.5087 88.6219C86.4659 88.6434 86.4444 88.6594 86.4444 88.6701C85.802 88.5202 85.4273 88.274 85.3202 87.9313C85.2774 87.76 85.256 87.5513 85.256 87.305C85.256 87.0587 85.2774 86.7804 85.3202 86.4699C85.3523 86.2129 85.3845 85.9238 85.4166 85.6026C85.4273 85.4956 85.438 85.3938 85.4487 85.2975L85.9466 79.034C85.968 78.777 85.9894 78.5308 86.0108 78.2952C86.0751 78.0061 86.1072 77.7545 86.1072 77.5404C86.1072 77.3905 86.0911 77.262 86.059 77.1549C85.9948 76.9729 85.8074 76.8819 85.4969 76.8819C85.3791 76.8819 85.2453 76.8926 85.0954 76.914C84.7206 77.0104 84.2763 77.2299 83.7624 77.5725C83.2485 77.9044 82.7399 78.2685 82.2367 78.6646C81.6371 79.125 81.1178 79.489 80.6788 79.7567L80.2613 80.0137C79.8223 80.2813 79.3886 80.5062 78.9604 80.6882C78.6927 80.7631 78.4036 80.8113 78.0931 80.8327C77.7291 80.8649 77.4132 80.9291 77.1456 81.0255C77.3811 80.8756 77.5096 80.7471 77.531 80.64V80.5758C77.531 80.5115 77.4882 80.4473 77.4025 80.383C77.3276 80.3188 77.2312 80.2653 77.1134 80.2224C77.0385 80.1903 76.9743 80.1582 76.9207 80.1261C76.8137 80.0404 76.712 79.9976 76.6156 79.9976C76.5835 79.9976 76.5299 80.0083 76.455 80.0297C76.38 80.0511 76.2837 80.1047 76.1659 80.1903C76.0267 80.2867 75.8768 80.3509 75.7162 80.383H75.668C75.5181 80.383 75.3415 80.3081 75.138 80.1582C74.6884 80.5329 74.3136 80.9612 74.0138 81.443L74.046 81.2664C74.1316 80.913 74.2119 80.5597 74.2869 80.2064C74.0299 80.3456 73.8265 80.5436 73.6766 80.8006C73.5374 81.0469 73.4089 81.3199 73.2911 81.6197C73.1626 81.973 72.9967 82.3103 72.7933 82.6315C72.5898 82.942 72.2793 83.1882 71.8618 83.3702C71.8832 83.2525 71.9046 83.1293 71.926 83.0009C71.9581 82.8403 72.0063 82.6743 72.0705 82.503C72.1241 82.3638 72.1616 82.2353 72.183 82.1176C71.7226 82.942 71.214 83.745 70.6572 84.5266C70.6358 84.4516 70.6251 84.3713 70.6251 84.2857C70.6251 84.1786 70.6412 84.0555 70.6733 83.9163C70.6947 83.8199 70.7429 83.654 70.8179 83.4184C70.9035 83.1722 71.0266 82.8563 71.1872 82.4709C71.3478 82.1283 71.4603 81.8445 71.5245 81.6197C71.6209 81.3092 71.7065 81.004 71.7815 80.7043C72.0063 79.7513 72.3114 78.7877 72.6969 77.8134C73.0823 76.9676 73.5856 76.0682 74.2066 75.1153C74.6348 74.4515 75.031 73.7877 75.395 73.1238C75.759 72.46 76.0053 71.8283 76.1338 71.2287L76.0695 71.6302L75.8929 72.4172C76.0321 72.3636 76.2569 72.096 76.5674 71.6142C76.8886 71.1324 77.2205 70.5703 77.5631 69.9278C77.9165 69.2854 78.2002 68.7019 78.4143 68.1773C78.5642 67.8561 78.6552 67.6098 78.6874 67.4385C78.6981 67.385 78.7034 67.3368 78.7034 67.294C78.7034 67.2511 78.6981 67.219 78.6874 67.1976H78.6713C78.6499 67.1976 78.5963 67.2565 78.5107 67.3743C78.4357 67.492 78.3287 67.658 78.1895 67.8721C78.061 68.0756 77.9325 68.2844 77.804 68.4985C77.7077 68.6698 77.6167 68.8143 77.531 68.9321C77.4561 69.0499 77.4079 69.1195 77.3865 69.1409C77.3008 69.0981 77.258 69.0178 77.258 68.9C77.258 68.8465 77.2634 68.7929 77.2741 68.7394C77.2955 68.6109 77.3811 68.3861 77.531 68.0649C77.6809 67.733 77.9379 67.2779 78.3019 66.6997C78.6767 66.1216 78.9978 65.6398 79.2655 65.2543C79.4047 65.0616 79.4957 64.9278 79.5386 64.8528C79.5171 64.8207 79.485 64.8046 79.4422 64.8046C79.3565 64.8046 79.212 64.9171 79.0086 65.1419C78.8051 65.3667 78.5535 65.704 78.2537 66.1537C77.9647 66.5927 77.6916 67.0209 77.4347 67.4385C77.1884 67.8561 77.0064 68.1612 76.8886 68.3539C76.8565 68.4075 76.8404 68.4396 76.8404 68.4503C76.7869 68.3647 76.7601 68.2522 76.7601 68.113C76.7601 68.0274 76.7708 67.931 76.7922 67.824C76.8351 67.6312 76.9529 67.3154 77.1456 66.8764C77.3383 66.4374 77.6542 65.8593 78.0931 65.1419C78.5321 64.4138 78.9229 63.7875 79.2655 63.2629C79.4689 62.9631 79.6135 62.7382 79.6992 62.5883C80.2452 61.6783 80.8341 60.7735 81.4658 59.8742C82.1082 58.9641 82.8523 58.1504 83.6981 57.433C84.9294 56.4159 86.0697 55.8537 87.119 55.7467C87.2689 55.736 87.4188 55.7306 87.5687 55.7306C88.4145 55.7306 89.1854 56.0197 89.8813 56.5979C90.588 57.1653 91.1287 58.0272 91.5034 59.1836C91.9959 60.8752 92.2422 62.69 92.2422 64.628C92.2422 64.6708 92.2368 65.2061 92.2261 66.234C92.2261 67.2511 92.1351 68.7555 91.9531 70.7469C91.8889 71.7212 91.83 72.6688 91.7764 73.5896ZM80.197 79.4997C80.2398 79.4248 80.2666 79.3659 80.2773 79.3231C80.2773 79.291 80.272 79.2695 80.2613 79.2588C80.2398 79.2374 80.2024 79.2267 80.1488 79.2267C80.1274 79.2267 80.0792 79.2374 80.0043 79.2588C79.9293 79.2695 79.8383 79.291 79.7313 79.3231C79.6242 79.3552 79.5386 79.3766 79.4743 79.3873C79.4422 79.398 79.4208 79.4034 79.4101 79.4034C79.378 79.4034 79.3565 79.3927 79.3458 79.3713C79.3458 79.3498 79.3244 79.2963 79.2816 79.2107C79.2388 79.1143 79.1906 79.0179 79.137 78.9216C79.0835 78.8252 79.0193 78.7556 78.9443 78.7128C78.9229 78.7021 78.9015 78.6967 78.8801 78.6967C78.8372 78.6967 78.7891 78.7235 78.7355 78.777C78.864 78.6057 78.9443 78.4612 78.9764 78.3434V78.2792C78.9764 78.1935 78.939 78.1239 78.864 78.0704C78.7677 78.0168 78.6606 77.9901 78.5428 77.9901C78.4143 77.9901 78.2323 78.0329 77.9968 78.1186C77.7719 78.2042 77.606 78.4076 77.4989 78.7288L77.4668 78.8573C77.4454 78.9537 77.4347 79.0286 77.4347 79.0822C77.4347 79.1999 77.4668 79.2695 77.531 79.291C77.5631 79.3017 77.5953 79.307 77.6274 79.307C77.7345 79.307 77.8736 79.2642 78.0449 79.1785C78.227 79.0929 78.3929 79.0019 78.5428 78.9055C78.5964 78.8627 78.6445 78.8306 78.6874 78.8091C78.6981 78.7984 78.7141 78.7931 78.7355 78.7931C78.7677 78.7931 78.7837 78.8359 78.7837 78.9216C78.7944 79.0072 78.8051 79.1143 78.8158 79.2428C78.8265 79.5212 78.864 79.7888 78.9283 80.0458C78.9925 80.2813 79.1049 80.3991 79.2655 80.3991C79.2762 80.3991 79.3351 80.3938 79.4422 80.383C79.5493 80.3723 79.8009 80.0779 80.197 79.4997ZM86.0269 70.9075C86.1232 70.8433 86.2035 70.6506 86.2678 70.3294C86.2999 70.158 86.3481 69.8368 86.4123 69.3657C86.4766 68.8946 86.514 68.2094 86.5247 67.31V67.0209C86.5247 66.2501 86.4819 65.5327 86.3963 64.8689C86.3106 64.2051 86.15 63.8143 85.9145 63.6965C85.893 63.6858 85.8663 63.6804 85.8342 63.6804C85.6628 63.6804 85.4326 63.8624 85.1436 64.2265C84.8545 64.5798 84.5226 65.0563 84.1478 65.6558C83.7731 66.2554 83.4037 66.8657 83.0397 67.4867C82.4615 68.4931 82.0225 69.1891 81.7227 69.5745C81.6906 69.4996 81.6746 69.4246 81.6746 69.3497C81.6746 69.2961 81.6799 69.248 81.6906 69.2051C81.6906 69.1944 81.7013 69.1462 81.7227 69.0606C81.7442 68.9642 81.7923 68.8358 81.8673 68.6751C81.9422 68.5145 82.0011 68.3593 82.0439 68.2094L82.06 68.1612C82.0707 68.1291 82.0761 68.0916 82.0761 68.0488C82.0761 67.9631 82.0546 67.8775 82.0118 67.7918C81.969 67.8775 81.8994 68.022 81.803 68.2255C81.6103 68.6002 81.3801 69.0178 81.1124 69.4782C80.8448 69.9386 80.5985 70.233 80.3737 70.3615C80.3844 70.3294 80.3897 70.2919 80.3897 70.2491L80.4058 70.0242C79.9026 70.4953 79.4904 71.0253 79.1692 71.6142C78.9443 71.5713 78.8319 71.4536 78.8319 71.2608C78.8319 71.1966 78.8372 71.1324 78.848 71.0681C78.8801 70.9075 78.955 70.7148 79.0728 70.49C79.1906 70.2544 79.3351 70.0028 79.5064 69.7351C79.6563 69.4889 79.7687 69.2801 79.8437 69.1088C79.8758 69.0552 79.8919 69.0071 79.8919 68.9642C79.9026 68.9428 79.9079 68.9214 79.9079 68.9C79.9079 68.8679 79.8865 68.8465 79.8437 68.8358C79.4261 69.4246 79.0032 69.976 78.5749 70.49C77.8469 71.3037 77.2205 72.2298 76.6959 73.2684C76.6959 73.2791 76.6691 73.3433 76.6156 73.4611C76.5406 73.7074 76.4175 74.0553 76.2462 74.505C76.0856 74.9547 75.9089 75.4097 75.7162 75.8701C75.5342 76.3198 75.379 76.6571 75.2505 76.8819C75.379 76.7963 75.5396 76.6946 75.7323 76.5768C75.9357 76.459 76.1284 76.3519 76.3104 76.2556C76.4925 76.1592 76.637 76.0896 76.7441 76.0468C76.8083 76.0147 76.8511 75.9986 76.8726 75.9986V76.0147C76.8833 76.0147 76.8993 75.9986 76.9207 75.9665C76.9529 75.9344 77.0064 75.7952 77.0813 75.5489C77.167 75.292 77.2526 74.9975 77.3383 74.6656C77.4454 74.3337 77.5471 74.0178 77.6434 73.7181C77.7398 73.4076 77.8362 73.1613 77.9325 72.9793C78.0075 72.8187 78.0824 72.7384 78.1574 72.7384H78.1895C78.243 72.7705 78.2751 72.8669 78.2859 73.0275C78.2966 73.1881 78.3019 73.3808 78.3019 73.6056V73.9429C78.3019 74.05 78.3019 74.1838 78.3019 74.3444C78.3126 74.505 78.3501 74.6281 78.4143 74.7138C78.4357 74.7352 78.4625 74.7459 78.4946 74.7459C78.5589 74.7459 78.6552 74.6817 78.7837 74.5532C78.9229 74.4247 79.1317 74.1142 79.4101 73.6217C79.4636 73.7395 79.5814 73.7984 79.7634 73.7984C79.9347 73.7984 80.2345 73.7288 80.6628 73.5896C81.091 73.4504 81.696 73.1881 82.4776 72.8026C83.2699 72.4172 83.9979 72.0424 84.6618 71.6784C85.3363 71.3144 85.7913 71.0574 86.0269 70.9075ZM90.9574 73.2684C90.9681 73.2577 90.9841 73.2523 91.0055 73.2523C91.027 73.2523 91.0484 73.2737 91.0698 73.3166C91.0912 73.3487 91.1073 73.3861 91.118 73.429C91.1287 73.4718 91.1394 73.5039 91.1501 73.5253C91.1608 73.5467 91.1715 73.5575 91.1822 73.5575C91.2679 73.5467 91.3267 73.4611 91.3589 73.3005C91.3696 73.2577 91.3856 73.1667 91.407 73.0275C91.4178 72.9311 91.4231 72.7866 91.4231 72.5938C91.4231 72.4975 91.4178 72.3315 91.407 72.096C91.407 71.8604 91.391 71.5767 91.3589 71.2448C91.3267 70.9022 91.2786 70.6345 91.2143 70.4418C91.1822 70.2919 91.1447 70.2169 91.1019 70.2169C91.0805 70.2169 91.0644 70.2223 91.0537 70.233C91.0751 70.1902 91.0912 70.142 91.1019 70.0884C91.1126 70.0456 91.118 70.0081 91.118 69.976C91.118 69.8368 91.0698 69.7137 90.9734 69.6066C90.952 69.6709 90.9306 69.7619 90.9092 69.8797C90.8664 70.0617 90.8182 70.3668 90.7646 70.7951C90.7218 71.2234 90.6897 71.7427 90.6683 72.3529C90.6469 72.8133 90.6362 73.2255 90.6362 73.5896V73.9268C90.6469 74.3337 90.679 74.5371 90.7325 74.5371H90.7486C90.8128 74.4836 90.8503 74.4247 90.861 74.3605C90.8717 74.3283 90.8771 74.2855 90.8771 74.232C90.8771 74.1677 90.861 74.0767 90.8289 73.959C90.8075 73.8198 90.7968 73.6913 90.7968 73.5735V73.5093C90.8182 73.4129 90.8717 73.3326 90.9574 73.2684ZM90.2668 81.9248C90.2989 81.8178 90.331 81.6839 90.3631 81.5233C90.3953 81.3627 90.4434 81.1218 90.5077 80.8006C90.5719 80.4687 90.6147 80.0993 90.6362 79.6925V79.5319C90.6362 79.2214 90.5826 79.0179 90.4756 78.9216L90.4434 78.9055C90.3792 78.9055 90.331 79.0019 90.2989 79.1946C90.2454 79.4087 90.2079 79.6871 90.1865 80.0297C90.1758 80.2653 90.1704 80.4955 90.1704 80.7203C90.1704 80.8381 90.1704 81.0094 90.1704 81.2342C90.1704 81.4484 90.1811 81.6465 90.2025 81.8285C90.2132 81.9355 90.2293 81.9891 90.2507 81.9891C90.2614 81.9891 90.2668 81.9677 90.2668 81.9248Z" fill="#007219"/>
<path d="M118.9 78.0864C118.835 78.1293 118.771 78.247 118.707 78.4398C118.653 78.6325 118.6 78.8413 118.546 79.0661C118.503 79.2802 118.466 79.4516 118.434 79.58L118.418 79.6764H118.321C118.236 79.6764 118.172 79.6818 118.129 79.6925C118.086 79.6925 118.054 79.7032 118.032 79.7246C118.011 79.7353 117.995 79.7567 117.984 79.7888C117.952 79.8316 117.898 79.9012 117.824 79.9976C117.749 80.094 117.62 80.2171 117.438 80.367C117.395 80.3135 117.347 80.2224 117.294 80.094C117.24 79.9548 117.192 79.8049 117.149 79.6443C117.106 79.4837 117.085 79.3445 117.085 79.2267V79.1143C117.085 79.0929 117.058 79.0822 117.004 79.0822C116.972 79.0822 116.903 79.0929 116.796 79.1143C116.689 79.1357 116.582 79.291 116.474 79.58C116.453 79.6443 116.437 79.7139 116.426 79.7888C116.405 79.8959 116.394 80.003 116.394 80.11C116.394 80.2385 116.421 80.4098 116.474 80.624C116.528 80.8274 116.635 80.988 116.796 81.1058C116.86 81.1379 116.919 81.1539 116.972 81.1539C117.079 81.1539 117.192 81.0683 117.31 80.897V80.9933C117.31 81.1968 117.368 81.3841 117.486 81.5554C117.604 81.716 117.77 81.8338 117.984 81.9088C118.059 81.9623 118.129 81.9891 118.193 81.9891C118.246 81.9891 118.3 81.9569 118.354 81.8927C118.418 81.8285 118.471 81.7053 118.514 81.5233C118.568 81.3413 118.616 81.1593 118.659 80.9773L118.739 80.5918C118.771 80.5062 118.803 80.4633 118.835 80.4633H118.851C118.937 80.5169 118.98 80.6454 118.98 80.8488C118.98 81.0201 118.953 81.2342 118.9 81.4912L118.867 81.6518C118.75 82.2086 118.562 82.851 118.305 83.579C118.048 84.3071 117.765 84.9816 117.454 85.6026C117.154 86.2129 116.897 86.593 116.683 86.7429C116.651 86.6679 116.635 86.5984 116.635 86.5341C116.635 86.4913 116.64 86.4538 116.651 86.4217C116.673 86.3146 116.705 86.2129 116.747 86.1165C116.78 86.0523 116.801 85.9988 116.812 85.9559L116.828 85.8756L116.812 85.8275C116.801 85.7739 116.737 85.7472 116.619 85.7472C116.576 85.7472 116.528 85.7525 116.474 85.7632C116.185 85.7846 115.987 85.8328 115.88 85.9078C115.773 85.9613 115.709 86.0309 115.688 86.1165L115.671 86.1808C115.671 86.2343 115.682 86.3039 115.704 86.3896C115.714 86.4538 115.72 86.5127 115.72 86.5662V86.5984C115.709 86.6412 115.688 86.6733 115.655 86.6947C114.97 87.2943 114.381 87.6101 113.889 87.6423H113.808C113.348 87.6423 112.904 87.3639 112.475 86.8071C112.508 86.6572 112.534 86.5609 112.556 86.5181C112.566 86.4966 112.583 86.4859 112.604 86.4859C112.615 86.4859 112.631 86.4966 112.652 86.5181C112.674 86.5395 112.706 86.5823 112.748 86.6465C112.813 86.7536 112.888 86.8446 112.973 86.9196C113.027 86.9624 113.086 86.9838 113.15 86.9838C113.204 86.9838 113.268 86.9677 113.343 86.9356L113.375 86.9035V86.8714C113.375 86.8178 113.348 86.7322 113.295 86.6144C113.241 86.4966 113.15 86.3574 113.022 86.1968C112.904 86.0362 112.781 85.9292 112.652 85.8756C112.62 85.8649 112.588 85.8596 112.556 85.8596C112.47 85.8596 112.401 85.9185 112.347 86.0362C112.293 86.0148 112.197 85.8703 112.058 85.6026C111.919 85.3349 111.769 85.0298 111.608 84.6872C111.448 84.3446 111.308 84.0394 111.191 83.7718C111.084 83.5576 111.019 83.4238 110.998 83.3702C110.452 82.246 109.943 81.0683 109.472 79.837L109.424 79.7406C109.392 79.6871 109.365 79.6175 109.344 79.5319C109.13 78.9965 108.787 78.1132 108.316 76.8819C107.845 75.6506 107.368 74.323 106.887 72.899C106.415 71.475 106.073 70.2116 105.859 69.1088C105.762 68.6163 105.714 68.2041 105.714 67.8721C105.714 67.7115 105.725 67.567 105.746 67.4385C105.789 67.2672 105.853 67.1334 105.939 67.037C105.982 67.037 106.046 67.1066 106.132 67.2458C106.217 67.3743 106.314 67.5295 106.421 67.7115C106.506 67.8721 106.587 68.0113 106.662 68.1291C106.747 68.2469 106.806 68.3218 106.838 68.3539C106.838 68.3325 106.828 68.2629 106.806 68.1452C106.796 68.0167 106.779 67.8507 106.758 67.6473C106.747 67.6045 106.742 67.5563 106.742 67.5028C106.742 67.3743 106.763 67.2297 106.806 67.0691C106.817 67.0049 106.844 66.8818 106.887 66.6997C106.94 66.5177 107.01 66.3732 107.095 66.2661C107.181 66.1591 107.24 66.0627 107.272 65.977C107.326 65.9449 107.374 65.9289 107.417 65.9289C107.481 65.9289 107.55 65.961 107.625 66.0252C107.711 66.0787 107.797 66.1644 107.882 66.2822C107.968 66.4 108.027 66.507 108.059 66.6034H108.107C108.257 66.6034 108.359 66.4803 108.412 66.234C108.434 66.1483 108.455 65.9663 108.476 65.688V65.5113C108.476 65.2543 108.439 64.8849 108.364 64.4031C108.289 63.9106 108.177 63.4716 108.027 63.0862C107.877 62.7329 107.716 62.5562 107.545 62.5562H107.497C107.433 62.5776 107.395 62.6097 107.384 62.6526V62.765C107.384 62.7971 107.39 62.8399 107.4 62.8935C107.411 62.9684 107.417 63.0327 107.417 63.0862V63.1504C107.406 63.1826 107.384 63.2093 107.352 63.2307C107.299 63.2629 107.245 63.2789 107.192 63.2789C107.17 63.2789 107.138 63.2789 107.095 63.2789C107.063 63.2682 107.015 63.2468 106.951 63.2147C106.876 63.1826 106.812 63.1665 106.758 63.1665C106.705 63.1772 106.672 63.22 106.662 63.295C106.662 63.3057 106.651 63.3432 106.63 63.4074V63.4877C106.63 63.5841 106.64 63.7393 106.662 63.9534C106.683 64.0177 106.769 64.1301 106.919 64.2907C107.036 64.4192 107.143 64.5584 107.24 64.7083C107.315 64.8261 107.352 64.9278 107.352 65.0134V65.0616C107.342 65.0723 107.326 65.1098 107.304 65.174C107.293 65.2276 107.149 65.265 106.87 65.2864C106.828 64.9974 106.694 64.8368 106.469 64.8046C106.426 64.7939 106.383 64.7886 106.34 64.7886C106.169 64.7886 105.998 64.8475 105.827 64.9652C105.859 64.9759 105.875 65.0241 105.875 65.1098C105.875 65.1312 105.875 65.1794 105.875 65.2543C105.875 65.3293 105.859 65.4578 105.827 65.6398C105.794 65.8111 105.757 65.9824 105.714 66.1537C105.671 66.3143 105.634 66.4428 105.602 66.5391C105.463 67.4599 105.297 68.3593 105.104 69.2373C104.975 69.8583 104.825 70.4846 104.654 71.1163C104.461 71.8979 104.285 72.6741 104.124 73.445C103.492 76.3573 102.802 79.2642 102.052 82.1657L102.004 82.4388C101.897 82.8991 101.806 83.4131 101.731 83.9805C101.646 84.6337 101.533 85.2868 101.394 85.9399L101.378 86.0523C101.249 86.6626 101.057 87.1926 100.8 87.6423C100.65 87.8992 100.532 88.0973 100.446 88.2365C100.361 88.3757 100.296 88.4667 100.254 88.5095C100.232 88.5416 100.216 88.5577 100.205 88.5577C100.195 88.5577 100.184 88.547 100.173 88.5256V88.3971C100.163 88.29 100.136 88.1776 100.093 88.0598C100.05 87.9421 99.9485 87.8671 99.7879 87.835L99.6755 88.0116C99.5791 88.1401 99.456 88.29 99.3061 88.4613C99.1669 88.6219 98.8992 88.7344 98.5031 88.7986C98.3318 88.8307 98.1712 88.8468 98.0213 88.8468C97.8179 88.8468 97.593 88.8093 97.3468 88.7344C97.1112 88.6701 96.8382 88.6005 96.5277 88.5256C96.2172 88.4399 95.9602 88.381 95.7568 88.3489C95.6818 88.3382 95.5587 88.2579 95.3874 88.108C95.3125 88.0438 95.275 87.8992 95.275 87.6744C95.275 87.396 95.3285 87.0052 95.4356 86.502C95.6283 85.5812 95.8639 84.6765 96.1422 83.7878C96.2921 83.2739 96.4046 82.8617 96.4795 82.5512C96.5652 82.1336 96.7472 81.1646 97.0256 79.6443C97.3146 77.9312 97.6573 75.9879 98.0534 73.8144C98.289 72.5082 98.5245 71.2983 98.76 70.1848C98.9099 69.446 99.1241 68.5038 99.4025 67.3582C99.6808 66.2126 99.9485 65.5809 100.205 65.4631C100.248 65.4738 100.275 65.5702 100.286 65.7522C100.296 65.8486 100.302 65.9503 100.302 66.0573C100.302 66.1644 100.296 66.2822 100.286 66.4107V66.6516C100.286 66.7265 100.286 66.8229 100.286 66.9406C100.286 67.0477 100.296 67.128 100.318 67.1816C100.318 67.203 100.323 67.2137 100.334 67.2137C100.345 67.2137 100.361 67.1923 100.382 67.1494C100.414 67.1066 100.446 67.037 100.478 66.9406C100.511 66.8443 100.537 66.7426 100.559 66.6355C100.58 66.582 100.591 66.5391 100.591 66.507C100.602 66.4642 100.607 66.4267 100.607 66.3946L100.623 66.3625C100.623 66.3518 100.618 66.3464 100.607 66.3464L100.575 66.3625C100.618 66.2447 100.655 66.1055 100.687 65.9449L100.752 65.6719C100.805 65.3935 100.859 65.1366 100.912 64.901C100.976 64.6655 101.046 64.5316 101.121 64.4995H101.137C101.18 64.4995 101.201 64.5316 101.201 64.5959C101.201 64.6066 101.201 64.6387 101.201 64.6922C101.201 64.735 101.185 64.8261 101.153 64.9652L101.105 65.158C101.094 65.2222 101.083 65.2972 101.073 65.3828V65.4149C101.073 65.4792 101.094 65.522 101.137 65.5434H101.169C101.233 65.5434 101.287 65.522 101.33 65.4792C101.383 65.4363 101.437 65.3775 101.49 65.3025C101.565 65.2061 101.651 65.1258 101.747 65.0616C101.822 64.9974 101.919 64.9652 102.036 64.9652H102.085C102.159 64.9759 102.197 65.0188 102.197 65.0937V65.1258C102.197 65.1687 102.192 65.2222 102.181 65.2864C102.17 65.34 102.149 65.3989 102.117 65.4631L102.085 65.6076C102.085 65.6505 102.079 65.704 102.068 65.7683V65.8164C102.068 65.8593 102.079 65.8914 102.101 65.9128H102.117C102.202 65.9128 102.358 65.7308 102.582 65.3667C102.818 64.992 103.059 64.5316 103.305 63.9856C103.519 63.4823 103.669 63.022 103.755 62.6044C103.765 62.5616 103.792 62.417 103.835 62.1708C103.846 62.1279 103.851 62.0851 103.851 62.0423C103.851 61.871 103.755 61.7478 103.562 61.6729L103.53 61.6568C103.487 61.6568 103.45 61.6836 103.418 61.7371C103.396 61.78 103.364 61.8389 103.321 61.9138C103.3 61.9887 103.273 62.0583 103.241 62.1226C103.209 62.1654 103.166 62.1868 103.112 62.1868H103.08C103.037 62.1761 103.005 62.144 102.984 62.0905C102.973 62.0262 102.962 61.962 102.952 61.8977C102.952 61.8335 102.941 61.78 102.92 61.7371C102.909 61.7157 102.893 61.705 102.871 61.705C102.861 61.705 102.85 61.7104 102.839 61.7211C102.732 61.8067 102.636 61.9138 102.55 62.0423C102.475 62.1708 102.406 62.3046 102.341 62.4438C102.245 62.6793 102.133 62.8506 102.004 62.9577C101.844 63.0755 101.72 63.1558 101.635 63.1986C101.571 63.22 101.517 63.2307 101.474 63.2307C101.453 63.2307 101.426 63.2307 101.394 63.2307C101.362 63.22 101.335 63.1986 101.314 63.1665L101.185 63.1023H101.137C101.094 63.1023 101.041 63.113 100.976 63.1344C100.88 63.1772 100.794 63.3164 100.719 63.5519C100.644 63.7768 100.58 64.007 100.527 64.2425C100.484 64.3924 100.457 64.5156 100.446 64.6119C100.414 64.6869 100.393 64.7243 100.382 64.7243H100.366C100.302 64.6494 100.27 64.5156 100.27 64.3228C100.27 64.1194 100.307 63.8517 100.382 63.5198C100.521 62.8774 100.719 62.1601 100.976 61.3678C101.244 60.5754 101.506 59.8902 101.763 59.312C102.02 58.7339 102.218 58.4341 102.358 58.4127C102.368 58.4127 102.374 58.4341 102.374 58.4769C102.374 58.4876 102.368 58.5251 102.358 58.5893C102.358 58.6536 102.341 58.7606 102.309 58.9105C102.267 59.1461 102.234 59.3923 102.213 59.6493V59.7939C102.213 59.9759 102.245 60.1204 102.309 60.2275C102.309 60.2382 102.315 60.2435 102.325 60.2435C102.368 60.2435 102.432 60.2061 102.518 60.1311C102.604 60.0562 102.7 59.9598 102.807 59.842C102.914 59.7136 103 59.6118 103.064 59.5369L103.128 59.4726C103.139 59.4619 103.15 59.4566 103.161 59.4566C103.182 59.4566 103.193 59.478 103.193 59.5208C103.203 59.5637 103.214 59.6172 103.225 59.6814C103.236 59.7671 103.252 59.842 103.273 59.9063C103.294 59.9705 103.321 60.008 103.353 60.0187C103.471 60.008 103.546 59.9437 103.578 59.826C103.6 59.7617 103.616 59.6975 103.626 59.6332C103.648 59.5583 103.658 59.4834 103.658 59.4084C103.669 59.3228 103.68 59.2478 103.691 59.1836C103.712 59.1086 103.733 59.039 103.755 58.9748C103.787 58.8677 103.851 58.8142 103.948 58.8142H103.98C104.055 58.8249 104.092 58.8677 104.092 58.9427V58.9908C104.071 59.0979 104.033 59.2157 103.98 59.3442C103.937 59.4512 103.91 59.5422 103.899 59.6172C103.889 59.6493 103.878 59.6921 103.867 59.7457V59.7617C103.867 59.8153 103.899 59.8474 103.964 59.8581H103.98C104.055 59.8581 104.108 59.7992 104.14 59.6814L104.172 59.5369C104.194 59.4405 104.21 59.3335 104.221 59.2157L104.269 58.9587C104.29 58.8731 104.312 58.7767 104.333 58.6696C104.365 58.5519 104.429 58.4662 104.526 58.4127H104.542C104.574 58.4127 104.595 58.4287 104.606 58.4609C104.617 58.4823 104.633 58.5144 104.654 58.5572C104.665 58.6108 104.681 58.6589 104.702 58.7018C104.713 58.7232 104.734 58.7339 104.767 58.7339H104.799C104.842 58.7232 104.879 58.675 104.911 58.5893C104.943 58.5037 104.981 58.4073 105.024 58.3003C105.077 58.1289 105.141 57.9737 105.216 57.8345C105.291 57.6953 105.372 57.615 105.457 57.5936C105.457 57.6043 105.468 57.6846 105.489 57.8345C105.5 58.0486 105.516 58.3217 105.537 58.6536C105.57 58.9855 105.602 59.3228 105.634 59.6654C105.677 59.9973 105.73 60.2703 105.794 60.4844C105.837 60.645 105.891 60.7253 105.955 60.7253C105.976 60.7253 105.993 60.72 106.003 60.7093C106.046 60.6772 106.089 60.5969 106.132 60.4684C106.175 60.3399 106.223 60.19 106.276 60.0187C106.33 59.8474 106.383 59.6868 106.437 59.5369C106.49 59.3763 106.544 59.2585 106.597 59.1836C106.79 58.948 106.919 58.7874 106.983 58.7018C107.015 58.6375 107.036 58.6054 107.047 58.6054C107.058 58.6054 107.069 58.6215 107.079 58.6536C107.101 58.7071 107.149 58.7928 107.224 58.9105C107.309 59.0176 107.459 59.1407 107.673 59.2799C107.781 59.3656 108 59.644 108.332 60.1151C108.675 60.5862 109.017 61.1269 109.36 61.7371C109.702 62.3367 109.954 62.8774 110.115 63.3592C110.19 63.5734 110.227 63.75 110.227 63.8892C110.227 63.932 110.222 63.9749 110.211 64.0177C110.19 64.1355 110.131 64.2158 110.034 64.2586C110.024 64.2693 110.008 64.2747 109.986 64.2747C109.965 64.2747 109.938 64.2586 109.906 64.2265C109.874 64.1944 109.842 64.1515 109.809 64.098C109.777 64.0445 109.745 64.0016 109.713 63.9695C109.681 63.9267 109.638 63.9053 109.585 63.9053C109.574 63.916 109.563 63.9374 109.553 63.9695V64.0659C109.553 64.1408 109.563 64.2693 109.585 64.4513C109.606 64.6226 109.665 64.8689 109.761 65.1901C109.858 65.5113 109.954 65.7897 110.05 66.0252C110.136 66.2501 110.211 66.3625 110.275 66.3625H110.291C110.323 66.3518 110.339 66.3304 110.339 66.2982C110.35 66.2875 110.356 66.2715 110.356 66.2501C110.356 66.2286 110.35 66.2019 110.339 66.1698C110.339 66.1269 110.323 66.052 110.291 65.9449C110.259 65.8486 110.238 65.7522 110.227 65.6558C110.216 65.6023 110.211 65.5595 110.211 65.5273V65.4631C110.222 65.4417 110.232 65.4149 110.243 65.3828C110.254 65.3507 110.307 65.3346 110.404 65.3346C110.543 65.3667 110.661 65.5273 110.757 65.8164C110.864 66.1055 110.95 66.4 111.014 66.6997C111.057 66.8925 111.1 67.0477 111.142 67.1655C111.175 67.2619 111.201 67.31 111.223 67.31C111.233 67.31 111.239 67.3047 111.239 67.294C111.335 67.1869 111.399 67.0745 111.432 66.9567V66.8764C111.432 66.8229 111.421 66.7372 111.399 66.6194C111.389 66.5017 111.346 66.3411 111.271 66.1376C111.207 65.9663 111.164 65.8057 111.142 65.6558V65.4952C111.164 65.4096 111.207 65.3346 111.271 65.2704C111.292 65.249 111.319 65.2383 111.351 65.2383C111.437 65.2383 111.539 65.356 111.656 65.5916C111.774 65.8164 111.887 66.1109 111.994 66.4749C112.111 66.8282 112.197 67.1227 112.251 67.3582C112.283 67.4546 112.31 67.5188 112.331 67.5509C112.395 67.7544 112.534 68.2415 112.748 69.0124C112.963 69.7726 113.198 70.6238 113.455 71.566C113.723 72.4975 113.953 73.3112 114.146 74.0071C114.349 74.6924 114.451 75.0511 114.451 75.0832C114.686 74.869 114.885 74.3819 115.045 73.6217C115.216 72.8508 115.35 72.112 115.447 71.4054C115.511 70.9129 115.57 70.5595 115.623 70.3454C115.762 69.7994 115.902 69.2587 116.041 68.7233C116.33 67.6312 116.592 66.5338 116.828 65.431C116.956 64.8207 117.09 64.2104 117.229 63.6001C117.336 63.129 117.443 62.6526 117.551 62.1708C117.722 61.3356 117.877 60.4951 118.016 59.6493C118.038 59.4673 118.059 59.2532 118.08 59.0069C118.091 58.6215 118.134 58.2307 118.209 57.8345L118.225 57.7703C118.3 57.4062 118.445 57.0957 118.659 56.8388C118.744 56.7745 118.814 56.7424 118.867 56.7424C118.878 56.7424 118.9 56.7531 118.932 56.7745C118.975 56.7852 119.017 56.8388 119.06 56.9351C119.114 57.0315 119.157 57.1279 119.189 57.2242C119.21 57.2885 119.226 57.342 119.237 57.3848C119.258 57.4276 119.28 57.4491 119.301 57.4491V57.4169C119.301 57.3848 119.328 57.3206 119.381 57.2242C119.446 57.1279 119.537 57.0047 119.654 56.8548C119.772 56.6942 119.895 56.5497 120.024 56.4212C120.163 56.282 120.275 56.1964 120.361 56.1642C120.393 56.1535 120.441 56.1482 120.506 56.1482C120.57 56.1482 120.677 56.1589 120.827 56.1803C120.977 56.191 121.175 56.2178 121.421 56.2606C121.667 56.2927 121.892 56.3248 122.096 56.357L122.449 56.4212C122.77 56.4533 123.027 56.4694 123.22 56.4694H123.348C123.487 56.4694 123.584 56.4801 123.637 56.5015C123.702 56.5229 123.744 56.5657 123.766 56.63V56.7264C123.766 56.7906 123.76 56.8816 123.75 56.9994C123.739 57.16 123.728 57.3902 123.718 57.69C123.686 58.1611 123.621 58.6268 123.525 59.0872L123.364 59.826C123.311 60.0829 123.263 60.3345 123.22 60.5808C122.749 63.7286 122.176 66.8925 121.501 70.0724L121.405 70.5542C121.084 72.0531 120.779 73.5521 120.49 75.0511C120.468 75.1795 120.409 75.4793 120.313 75.9504C120.217 76.4108 120.099 76.9194 119.96 77.4761C119.82 78.0329 119.676 78.5201 119.526 78.9376C119.387 79.3552 119.248 79.5854 119.108 79.6282C119.033 79.6282 118.996 79.5693 118.996 79.4516C118.996 79.4408 118.996 79.3927 118.996 79.307C118.996 79.2214 119.017 79.0768 119.06 78.8734C119.092 78.6378 119.108 78.4344 119.108 78.2631C119.108 78.1346 119.066 78.0704 118.98 78.0704C118.958 78.0704 118.932 78.0757 118.9 78.0864Z" fill="#007219"/>
<path d="M71.7697 106.529C71.7939 106.748 71.8182 106.942 71.8425 107.112C71.8911 107.257 71.9153 107.354 71.9153 107.403C71.9153 107.621 71.6483 108.216 71.1143 109.187C70.5559 110.231 70.1433 111.311 69.8762 112.428C69.6335 113.544 69.4029 114.637 69.1844 115.705C67.8493 121.992 66.2107 126.604 64.2688 129.542C61.4043 133.838 57.2655 136.084 51.8522 136.278C50.3957 136.326 48.9149 135.525 47.4099 133.875C46.002 132.321 45.2737 130.865 45.2252 129.505C45.1766 128.243 45.4072 126.932 45.917 125.573C46.4753 123.97 47.2278 122.915 48.1746 122.405L48.211 123.169C48.1867 123.121 48.0046 123.655 47.6648 124.772C47.3007 125.961 47.1186 126.92 47.1186 127.648C47.1186 127.867 47.1307 128.061 47.155 128.231C47.5191 130.246 48.1139 131.593 48.9392 132.272C49.8617 133.074 51.5609 133.51 54.0369 133.583C55.3963 133.583 57.0713 132.879 59.0618 131.471C61.2708 129.918 62.8365 128.121 63.759 126.082C64.7785 123.898 65.5553 121.81 66.0894 119.819C66.5506 117.878 66.9997 115.936 67.4366 113.994C64.1352 116.931 61.6835 118.436 60.0814 118.509C58.018 118.581 56.962 117.865 56.9135 116.36C56.8649 115.074 57.3747 113.593 58.4428 111.918C59.2439 110.68 60.8096 109.187 63.14 107.439C65.3733 105.764 66.9754 104.854 67.9464 104.708C68.092 104.684 68.2377 104.672 68.3833 104.672C68.6746 104.672 68.9417 104.745 69.1844 104.89C69.4272 105.012 69.5728 105.073 69.6214 105.073C69.7185 105.073 69.8884 105 70.1311 104.854C70.3739 104.708 70.5559 104.636 70.6773 104.636C71.3813 104.611 71.7454 105.242 71.7697 106.529ZM68.4926 108.532C67.8614 108.24 67.5459 108.095 67.5459 108.095C66.5263 108.119 64.9242 109.054 62.7394 110.898C60.4819 112.816 59.3652 114.333 59.3895 115.45C59.3895 115.62 59.4745 115.778 59.6444 115.923C59.8386 116.069 60.0207 116.13 60.1906 116.105C61.3558 116.081 62.9943 115.134 65.1062 113.265C67.2181 111.396 68.3469 109.818 68.4926 108.532Z" fill="#E32636"/>
<path d="M85.2837 93.9304C84.4827 95.8238 83.1718 99.3194 81.3512 104.417C79.1665 110.437 78.0377 114.321 77.9649 116.069C77.9406 116.579 78.0741 117.174 78.3654 117.853C78.681 118.533 78.8266 118.885 78.8024 118.909C78.8024 119.322 78.596 119.516 78.1833 119.492H77.5279C76.9453 119.492 76.4598 119.006 76.0714 118.035C75.7801 117.331 75.6466 116.809 75.6709 116.47C75.6952 115.304 75.9258 113.933 76.3627 112.355C77.2852 109.224 78.4989 105.582 80.004 101.431C80.9992 98.7854 81.7032 96.188 82.1159 93.6391C82.1644 93.3721 82.4072 93.0201 82.8441 92.5832C83.3053 92.1462 83.6209 91.9277 83.7908 91.9277C84.1064 91.952 84.4705 92.2069 84.8832 92.6924L85.2837 93.9304Z" fill="#E32636"/>
<path d="M93.5282 113.375C93.0913 114.71 92.2295 116.093 90.943 117.526C89.4622 119.128 88.115 119.929 86.9012 119.929C85.7118 119.929 84.8257 119.285 84.2431 117.999C83.8062 117.052 83.5877 115.911 83.5877 114.576C83.5877 113.508 84.1339 112.027 85.2263 110.134C86.1244 108.605 87.0105 107.379 87.8844 106.456C88.4184 105.874 89.1588 105.34 90.1055 104.854C90.9066 104.466 91.4406 104.271 91.7076 104.271C93.5282 104.223 94.4386 105.485 94.4386 108.058C94.4386 109.685 94.1351 111.457 93.5282 113.375ZM91.1979 113.229C92.0232 111.36 92.4359 109.709 92.4359 108.277C92.4359 107.549 92.3145 107.16 92.0718 107.112C91.1736 108.034 90.6517 108.495 90.506 108.495C90.3847 108.495 90.324 108.447 90.324 108.35C90.324 108.253 90.2511 108.204 90.1055 108.204C89.2073 108.204 88.2485 109.199 87.2289 111.19C86.355 112.913 85.906 114.151 85.8817 114.904C85.8817 115.511 85.9909 116.069 86.2094 116.579C86.4764 117.21 86.8648 117.538 87.3746 117.562C88.0057 117.61 88.7947 116.991 89.7414 115.705C90.4211 114.782 90.9066 113.957 91.1979 113.229Z" fill="#E32636"/>
<path d="M110.958 109.551C111.031 111.785 109.999 114.066 107.863 116.397C105.727 118.727 103.615 119.977 101.527 120.147L100.107 120.293C99.6214 120.317 99.0995 120.038 98.5412 119.455C97.9829 118.873 97.6916 118.351 97.6673 117.89C97.5702 116.822 97.995 115.547 98.9417 114.066C99.8884 112.586 100.969 111.554 102.182 110.971C102.498 110.923 102.668 111.044 102.692 111.335C102.741 111.724 102.607 112.088 102.292 112.428C100.714 114.2 99.9127 115.911 99.8884 117.562C100.083 117.805 100.313 117.926 100.58 117.926C100.702 117.926 100.811 117.914 100.908 117.89C101.005 117.841 101.09 117.805 101.163 117.78C101.843 117.732 102.595 117.526 103.42 117.161C104.683 116.555 105.921 115.486 107.134 113.957C108.421 112.306 109.004 110.85 108.882 109.588C108.809 108.592 108.494 107.816 107.936 107.257C107.377 106.675 106.685 106.444 105.86 106.565C105.083 106.663 104.052 107.464 102.765 108.969C101.503 110.474 100.774 111.226 100.58 111.226C100.216 111.275 99.9006 111.117 99.6335 110.753C99.3665 110.389 99.2209 110.049 99.1966 109.733C99.1723 109.491 100.532 106.505 103.275 100.776C103.712 99.6107 104.452 97.8022 105.496 95.3505C105.593 94.8407 105.824 94.1003 106.188 93.1293C106.479 93.008 106.916 92.838 107.499 92.6196C108.227 92.9837 108.615 93.4449 108.664 94.0032C108.712 94.5858 108.591 95.1077 108.3 95.569C106.916 97.8508 105.362 100.837 103.639 104.526C104.246 104.356 105.265 104.199 106.698 104.053C107.887 103.956 108.907 104.575 109.756 105.91C110.509 107.075 110.909 108.289 110.958 109.551Z" fill="#E32636"/>
<path d="M133.29 114.758C133.144 115.753 132.21 116.87 130.486 118.108C128.787 119.346 127.476 119.965 126.554 119.965C126.432 119.965 126.311 119.941 126.189 119.892C126.092 119.868 125.983 119.856 125.862 119.856C125.425 119.856 124.891 119.589 124.26 119.055C123.726 118.594 123.386 118.205 123.24 117.89C122.755 116.894 122.512 115.923 122.512 114.977C122.512 114.637 122.548 114.297 122.621 113.957C121.529 114.928 120.436 115.911 119.344 116.907C117.985 117.975 116.722 118.509 115.557 118.509C115.144 118.509 114.744 118.145 114.355 117.416C113.991 116.785 113.809 116.251 113.809 115.814C113.809 114.309 115.023 112.234 117.45 109.588C119.902 106.942 121.82 105.631 123.204 105.655C123.616 105.655 123.908 105.801 124.078 106.092C124.247 106.383 124.405 106.675 124.551 106.966C124.721 106.602 124.903 106.226 125.097 105.837C125.437 105.182 125.765 104.854 126.08 104.854C126.396 104.854 126.796 105.085 127.282 105.546C127.452 105.837 127.391 106.408 127.1 107.257C126.59 107.986 126.214 108.641 125.971 109.224C125.704 109.879 125.425 110.826 125.133 112.064C124.866 113.156 124.733 113.824 124.733 114.066C124.733 114.892 124.915 115.656 125.279 116.36C125.74 117.258 126.384 117.708 127.209 117.708C127.889 117.708 128.799 117.343 129.94 116.615C130.911 115.984 131.87 115.365 132.816 114.758H133.29ZM123.386 109.151C123.289 109.151 123.107 109.09 122.84 108.969C122.597 108.847 122.415 108.787 122.293 108.787C121.881 108.787 121.274 109.139 120.473 109.843C119.987 110.279 119.502 110.729 119.016 111.19C118.434 111.7 117.839 112.416 117.232 113.338C116.649 114.261 116.31 115.025 116.212 115.632C116.261 115.632 116.334 115.693 116.431 115.814C116.528 115.911 116.637 115.96 116.759 115.96C117.147 115.96 118.191 115.207 119.89 113.702C121.419 112.319 122.293 111.457 122.512 111.117C122.924 110.486 123.216 109.83 123.386 109.151Z" fill="#E32636"/>
<path d="M142 93.9304C141.199 95.8238 139.888 99.3194 138.067 104.417C135.883 110.437 134.754 114.321 134.681 116.069C134.657 116.579 134.79 117.174 135.082 117.853C135.397 118.533 135.543 118.885 135.519 118.909C135.519 119.322 135.312 119.516 134.9 119.492H134.244C133.662 119.492 133.176 119.006 132.788 118.035C132.496 117.331 132.363 116.809 132.387 116.47C132.411 115.304 132.642 113.933 133.079 112.355C134.001 109.224 135.215 105.582 136.72 101.431C137.715 98.7854 138.419 96.188 138.832 93.6391C138.881 93.3721 139.123 93.0201 139.56 92.5832C140.022 92.1462 140.337 91.9277 140.507 91.9277C140.823 91.952 141.187 92.2069 141.599 92.6924L142 93.9304Z" fill="#E32636"/>
<path d="M51.3517 1.72479L52.8849 0C65.1501 10.962 66.2999 28.1396 65.3417 35.3582L63.2336 35.9331C65.2267 16.6155 56.1428 5.07855 51.3517 1.72479Z" fill="#471E07"/>
<path d="M80.0278 16.2904C91.6031 13.6074 96.3494 9.16769 97.2757 7.2832C94.5927 18.4752 85.3619 26.8947 81.0819 29.7055C75.9459 30.5487 68.3376 33.2509 65.1755 34.4965C64.9838 29.8013 65.5588 19.6442 80.0278 16.2904Z" fill="#007219"/>
<path d="M112.389 129.071L114.497 130.796C100.009 148.58 80.9278 143.444 73.1982 138.653C30.1935 160.96 12.7987 118.435 9.47685 94.3835L12.064 93.9044C23.6393 151.244 54.7046 144.698 73.1982 135.587C92.7458 146.472 107.47 135.778 112.389 129.071Z" fill="#E32636"/>
<path d="M17.6217 49.3473L15.6094 48.0058C26.9547 25.5452 52.0216 30.1511 63.1369 35.2615C95.6396 20.39 113.667 34.8782 118.618 43.9813L116.414 45.4186C101.542 24.4912 75.2743 32.1633 63.9993 38.6153C36.0961 26.5801 21.4546 40.7553 17.6217 49.3473Z" fill="#E32636"/>
</svg>
