<svg width="18" height="12" viewBox="0 0 18 12" fill="none" xmlns="http://www.w3.org/2000/svg">
<path d="M17.6243 1.87452C17.5219 1.51154 17.321 1.18052 17.0417 0.914591C16.7625 0.648663 16.4147 0.457157 16.0333 0.359236C14.629 7.28923e-08 9 0 9 0C9 0 3.37098 -7.28923e-08 1.96674 0.357325C1.58509 0.454928 1.23715 0.646329 0.957869 0.912305C0.67859 1.17828 0.477802 1.50947 0.37567 1.87261C-7.66345e-08 3.21019 0 6 0 6C0 6 -7.66345e-08 8.78981 0.37567 10.1255C0.582589 10.8631 1.1933 11.4439 1.96674 11.6408C3.37098 12 9 12 9 12C9 12 14.629 12 16.0333 11.6408C16.8087 11.4439 17.4174 10.8631 17.6243 10.1255C18 8.78981 18 6 18 6C18 6 18 3.21019 17.6243 1.87452ZM7.21205 8.56051V3.43949L11.8728 5.98089L7.21205 8.56051Z" fill="#0D8728"/>
</svg>
