<svg width="16" height="16" viewBox="0 0 16 16" fill="none" xmlns="http://www.w3.org/2000/svg">
<path fill-rule="evenodd" clip-rule="evenodd" d="M1.28971 0.0564684C0.686033 0.21879 0.212535 0.699039 0.0532855 1.31047C0.0075357 1.48604 0 2.09593 0 5.61464V9.71428H3.71427H7.42854V4.85714V4.09262e-06L4.45534 0.0023613C1.97685 0.00432559 1.45014 0.0133256 1.28971 0.0564684ZM8.57139 2.57143V5.14286H12.2857H15.9999V3.32893C15.9999 1.33504 15.9962 1.29325 15.7803 0.888254C15.6469 0.638039 15.3308 0.327861 15.079 0.20029C14.6767 -0.00356728 14.7403 4.09262e-06 11.5282 4.09262e-06H8.57139V2.57143ZM8.57139 11.1429V16H11.5282C14.7403 16 14.6767 16.0036 15.079 15.7997C15.3308 15.6721 15.6469 15.362 15.7803 15.1117C16.0099 14.6811 15.9999 14.8946 15.9999 10.3854V6.28572H12.2857H8.57139V11.1429ZM0 12.6711C0 14.665 0.00375004 14.7067 0.219642 15.1117C0.352999 15.362 0.669176 15.6721 0.920961 15.7997C1.32328 16.0036 1.25964 16 4.47177 16H7.42854V13.4286V10.8571H3.71427H0V12.6711Z" fill="white"/>
</svg>
