<svg width="22" height="22" viewBox="0 0 22 22" fill="none" xmlns="http://www.w3.org/2000/svg">
<path fill-rule="evenodd" clip-rule="evenodd" d="M7.97675 3.7105C8.75875 3.6745 9.00808 3.6665 11.0001 3.6665C12.9921 3.6665 13.2414 3.67517 14.0227 3.7105C14.8041 3.74584 15.3374 3.8705 15.8041 4.05117C16.2927 4.23584 16.7361 4.5245 17.1027 4.89784C17.4761 5.26384 17.7641 5.7065 17.9481 6.19584C18.1294 6.6625 18.2534 7.19584 18.2894 7.97584C18.3254 8.75917 18.3334 9.0085 18.3334 10.9998C18.3334 12.9918 18.3247 13.2412 18.2894 14.0232C18.2541 14.8032 18.1294 15.3365 17.9481 15.8032C17.7641 16.2926 17.4756 16.736 17.1027 17.1025C16.7361 17.4758 16.2927 17.7638 15.8041 17.9478C15.3374 18.1292 14.8041 18.2532 14.0241 18.2892C13.2414 18.3252 12.9921 18.3332 11.0001 18.3332C9.00808 18.3332 8.75875 18.3245 7.97675 18.2892C7.19675 18.2538 6.66341 18.1292 6.19675 17.9478C5.70736 17.7638 5.26396 17.4753 4.89741 17.1025C4.52433 16.7363 4.23562 16.2931 4.05141 15.8038C3.87075 15.3372 3.74675 14.8038 3.71075 14.0238C3.67475 13.2405 3.66675 12.9912 3.66675 10.9998C3.66675 9.00784 3.67541 8.7585 3.71075 7.97717C3.74608 7.19584 3.87075 6.6625 4.05141 6.19584C4.2359 5.70656 4.52483 5.26338 4.89808 4.89717C5.26411 4.52417 5.70706 4.23547 6.19608 4.05117C6.66275 3.8705 7.19608 3.7465 7.97608 3.7105H7.97675ZM13.9634 5.0305C13.1901 4.99517 12.9581 4.98784 11.0001 4.98784C9.04208 4.98784 8.81008 4.99517 8.03675 5.0305C7.32141 5.06317 6.93341 5.1825 6.67475 5.28317C6.33275 5.4165 6.08808 5.5745 5.83141 5.83117C5.58811 6.06787 5.40087 6.35603 5.28341 6.6745C5.18275 6.93317 5.06341 7.32117 5.03075 8.0365C4.99541 8.80984 4.98808 9.04184 4.98808 10.9998C4.98808 12.9578 4.99541 13.1898 5.03075 13.9632C5.06341 14.6785 5.18275 15.0665 5.28341 15.3252C5.40075 15.6432 5.58808 15.9318 5.83141 16.1685C6.06808 16.4118 6.35675 16.5992 6.67475 16.7165C6.93341 16.8172 7.32141 16.9365 8.03675 16.9692C8.81008 17.0045 9.04141 17.0118 11.0001 17.0118C12.9587 17.0118 13.1901 17.0045 13.9634 16.9692C14.6787 16.9365 15.0667 16.8172 15.3254 16.7165C15.6674 16.5832 15.9121 16.4252 16.1687 16.1685C16.4121 15.9318 16.5994 15.6432 16.7167 15.3252C16.8174 15.0665 16.9367 14.6785 16.9694 13.9632C17.0047 13.1898 17.0121 12.9578 17.0121 10.9998C17.0121 9.04184 17.0047 8.80984 16.9694 8.0365C16.9367 7.32117 16.8174 6.93317 16.7167 6.6745C16.5834 6.3325 16.4254 6.08784 16.1687 5.83117C15.932 5.58788 15.6439 5.40064 15.3254 5.28317C15.0667 5.1825 14.6787 5.06317 13.9634 5.0305V5.0305ZM10.0634 13.2605C10.5865 13.4783 11.169 13.5076 11.7114 13.3437C12.2537 13.1797 12.7223 12.8324 13.0372 12.3613C13.352 11.8902 13.4935 11.3244 13.4374 10.7606C13.3814 10.1967 13.1314 9.66982 12.7301 9.26984C12.4742 9.01416 12.1649 8.81838 11.8243 8.6966C11.4837 8.57483 11.1204 8.53008 10.7604 8.56558C10.4005 8.60108 10.0528 8.71596 9.74262 8.90192C9.43238 9.08789 9.16724 9.34033 8.96628 9.64107C8.76532 9.94181 8.63354 10.2834 8.58043 10.6411C8.52731 10.9989 8.55418 11.364 8.65911 11.7102C8.76403 12.0563 8.9444 12.3749 9.18723 12.643C9.43005 12.9111 9.7293 13.122 10.0634 13.2605ZM8.33475 8.3345C8.68476 7.98449 9.10029 7.70684 9.55761 7.51741C10.0149 7.32798 10.5051 7.23049 11.0001 7.23049C11.4951 7.23049 11.9852 7.32798 12.4425 7.51741C12.8999 7.70684 13.3154 7.98449 13.6654 8.3345C14.0154 8.68452 14.2931 9.10005 14.4825 9.55737C14.6719 10.0147 14.7694 10.5048 14.7694 10.9998C14.7694 11.4948 14.6719 11.985 14.4825 12.4423C14.2931 12.8996 14.0154 13.3152 13.6654 13.6652C12.9585 14.3721 11.9998 14.7692 11.0001 14.7692C10.0004 14.7692 9.04164 14.3721 8.33475 13.6652C7.62786 12.9583 7.23073 11.9995 7.23073 10.9998C7.23073 10.0001 7.62786 9.04139 8.33475 8.3345V8.3345ZM15.6054 7.79184C15.6922 7.71002 15.7616 7.61162 15.8096 7.50249C15.8576 7.39335 15.8833 7.27568 15.885 7.15646C15.8868 7.03723 15.8646 6.91887 15.8197 6.80838C15.7749 6.69789 15.7084 6.59751 15.6241 6.5132C15.5397 6.42888 15.4394 6.36234 15.3289 6.31752C15.2184 6.27269 15.1 6.25049 14.9808 6.25223C14.8616 6.25396 14.7439 6.27961 14.6348 6.32763C14.5256 6.37566 14.4272 6.4451 14.3454 6.53184C14.1863 6.70052 14.0992 6.92458 14.1025 7.15646C14.1059 7.38833 14.1995 7.60976 14.3635 7.77373C14.5275 7.93771 14.7489 8.03132 14.9808 8.0347C15.2127 8.03808 15.4367 7.95096 15.6054 7.79184V7.79184Z" fill="white"/>
</svg>
