<svg width="128" height="131" viewBox="0 0 128 131" fill="none" xmlns="http://www.w3.org/2000/svg">
<path fill-rule="evenodd" clip-rule="evenodd" d="M47.6432 0L46.262 1.55905C50.5222 4.55124 58.5501 14.7497 57.031 31.8046C56.9805 31.8276 56.93 31.8507 56.8794 31.874C46.8659 27.2545 24.2836 23.0913 14.0629 43.3936L15.8757 44.6062C19.3286 36.8398 32.5189 24.0267 57.6563 34.9054C67.8138 29.0734 91.478 22.1385 104.875 41.055L106.861 39.7558C103.318 33.2205 92.3446 23.6144 73.308 26.6734C77.2669 23.97 85.2696 16.4743 87.633 6.58265C86.7985 8.28606 82.5226 12.2992 72.0947 14.7244C62.973 16.8458 59.9809 21.9788 59.0658 26.3239C58.7483 18.7023 56.1946 7.66856 47.6432 0ZM26.1153 50.0402C26.0285 49.9725 25.9658 49.895 25.9272 49.8079C25.9272 49.7789 25.932 49.7547 25.9417 49.7353C25.9417 49.6966 25.9562 49.6676 25.9851 49.6482C26.0237 49.6192 26.0719 49.5902 26.1298 49.5611C26.2069 49.5321 26.26 49.5031 26.2889 49.474C26.3179 49.4353 26.3372 49.4015 26.3468 49.3724C26.3468 49.3434 26.342 49.3095 26.3323 49.2708C26.3034 49.1934 26.2166 49.0918 26.0719 48.9659C25.7729 48.7337 25.4015 48.6175 24.9578 48.6175H24.1187C23.5014 48.6175 22.8889 48.6369 22.2812 48.6756C21.8472 48.7046 21.4951 48.7192 21.225 48.7192C21.0128 48.7192 20.5402 48.7337 19.8071 48.7627C19.0741 48.7821 18.2638 48.8256 17.3764 48.8934C16.4891 48.9611 15.7126 49.0627 15.047 49.1982C14.3815 49.324 14.0053 49.4886 13.9185 49.6918V49.7208C13.9185 49.7789 13.9571 49.8176 14.0343 49.837C14.1114 49.866 14.2127 49.8853 14.3381 49.895C14.4731 49.9047 14.5937 49.9241 14.6998 49.9531C14.8156 49.9821 14.8879 50.0354 14.9168 50.1128C14.9072 50.1708 14.748 50.2289 14.4394 50.287C14.1404 50.3451 13.7883 50.4031 13.3832 50.4612C12.9877 50.5096 12.6453 50.5483 12.3559 50.5773C12.192 50.5967 12.081 50.6112 12.0232 50.6209C11.2998 50.7273 10.7548 50.9112 10.3882 51.1725C10.0314 51.4241 9.81916 51.7145 9.75164 52.0435C9.73235 52.121 9.72271 52.1984 9.72271 52.2758V52.3629C9.73235 52.421 9.75646 52.45 9.79505 52.45H9.91079H10.0121C10.0699 52.4307 10.1182 52.421 10.1568 52.421C10.205 52.421 10.2339 52.4403 10.2436 52.479L10.2146 52.5371C10.1953 52.5855 10.176 52.6436 10.1568 52.7113C10.0989 52.8565 10.0314 53.0162 9.9542 53.1904C9.88668 53.3646 9.82398 53.5098 9.76611 53.6259C9.70824 53.742 9.66483 53.8001 9.63589 53.8001H9.62143C9.62143 53.7904 9.6166 53.7759 9.60696 53.7565V53.6694C9.59731 53.6211 9.58285 53.5727 9.56355 53.5243C9.55391 53.4662 9.54426 53.4275 9.53462 53.4081C9.52497 53.3888 9.5105 53.3791 9.49121 53.3791C9.47192 53.3791 9.45263 53.3839 9.43334 53.3936C9.37547 53.442 9.27419 53.5727 9.12951 53.7856L8.69546 54.4388C8.58936 54.6227 8.4929 54.7776 8.40609 54.9034C8.31928 55.0195 8.27105 55.0776 8.26141 55.0776C8.21318 55.0486 8.18424 55.0098 8.1746 54.9614C8.16495 54.9131 8.16013 54.8598 8.16013 54.8018C8.16977 54.7631 8.1746 54.7243 8.1746 54.6856V54.6421C8.1746 54.5937 8.14566 54.555 8.08779 54.5259C8.09743 54.5356 8.10226 54.5501 8.10226 54.5695C8.09261 54.5888 8.07332 54.6179 8.04438 54.6566C7.98651 54.734 7.90934 54.8163 7.81289 54.9034C7.72608 54.9808 7.64891 55.0437 7.58139 55.0921C7.51388 55.1405 7.47047 55.1647 7.45118 55.1647H7.43671C7.39813 55.0679 7.37884 54.9276 7.37884 54.7437V54.6276C7.38848 54.3856 7.40778 54.1533 7.43671 53.9307C7.44636 53.7759 7.45118 53.6598 7.45118 53.5823C7.42224 53.6888 7.33543 53.8678 7.19075 54.1195C7.04607 54.3614 6.88209 54.6227 6.69883 54.9034C6.52521 55.1744 6.3757 55.4066 6.25031 55.6002C6.13456 55.7841 6.06705 55.8905 6.04775 55.9196C5.97059 56.0841 5.91754 56.2438 5.8886 56.3986C5.85967 56.5244 5.8452 56.6454 5.8452 56.7616C5.8452 57.0035 5.89825 57.2261 6.00435 57.4293C6.21655 57.8648 6.5011 58.2374 6.85798 58.5471L6.87245 58.5326C6.88209 58.4939 6.89174 58.4213 6.90139 58.3149C6.91103 58.1213 6.93032 57.9471 6.95926 57.7923C6.98819 57.6277 7.00749 57.531 7.01713 57.5019C7.06536 57.26 7.1377 57.0422 7.23416 56.8487C7.3499 56.6261 7.52352 56.5051 7.75502 56.4857C7.77431 56.4857 7.78395 56.5051 7.78395 56.5438V56.6745V56.8487C7.78395 56.9067 7.80807 56.9406 7.85629 56.9503C7.90452 56.9503 7.95275 56.9261 8.00098 56.8777C8.0492 56.8196 8.09743 56.7567 8.14566 56.689C8.18424 56.6406 8.218 56.6019 8.24694 56.5728C8.27587 56.5438 8.29999 56.5293 8.31928 56.5293H8.33375C8.39162 56.6164 8.42056 56.7325 8.42056 56.8777C8.42056 56.9745 8.40609 57.0858 8.37715 57.2116L8.34822 57.3858C8.22282 57.7923 8.04438 58.2181 7.81289 58.6633C7.5814 59.0988 7.36437 59.4617 7.16181 59.7521C6.9689 60.0327 6.83387 60.173 6.7567 60.173H6.72777L6.77117 59.9698C6.80011 59.873 6.8194 59.7908 6.82904 59.723C6.84833 59.6553 6.85798 59.6069 6.85798 59.5778C6.86763 59.5295 6.87245 59.4811 6.87245 59.4327V59.3746C6.87245 59.2972 6.83869 59.2585 6.77117 59.2585C6.76153 59.2488 6.74706 59.244 6.72777 59.244C6.69883 59.244 6.66507 59.2488 6.62649 59.2585C6.55897 59.2682 6.4818 59.2827 6.39499 59.302C6.31783 59.3117 6.25031 59.3311 6.19244 59.3601C6.14421 59.3891 6.11527 59.4327 6.10563 59.4907L6.09116 59.5198C6.05258 59.4424 6.014 59.3553 5.97541 59.2585C5.93683 59.1617 5.91272 59.0746 5.90307 58.9972C5.79697 59.2488 5.6764 59.5972 5.54136 60.0424C5.43526 60.3618 5.33398 60.6376 5.23753 60.8699C5.15072 61.1021 5.09285 61.2183 5.06391 61.2183C5.02533 61.1892 5.00604 61.1215 5.00604 61.015V60.8989C5.01568 60.7247 5.03497 60.536 5.06391 60.3327C5.09285 60.1585 5.10731 60.0327 5.10731 59.9553C5.11696 59.8779 5.12178 59.8295 5.12178 59.8101C5.12178 59.7327 5.11214 59.6891 5.09285 59.6795C4.94816 59.7182 4.67326 60.4102 4.26815 61.7554C3.87268 63.1006 3.43381 64.6975 2.95154 66.546C2.4789 68.3848 2.04968 70.0736 1.66386 71.6124C1.28768 73.1415 1.04654 74.119 0.94044 74.5449C0.872922 74.8158 0.786112 75.14 0.680011 75.5175C0.496745 76.1175 0.361708 76.5966 0.274898 76.9547C0.197734 77.3128 0.154329 77.5112 0.144683 77.5499C0.0482277 78.0144 0 78.4402 0 78.8274C0 78.9628 0.00482269 79.0935 0.0144682 79.2193C0.0530504 79.7419 0.279721 80.071 0.694479 80.2065H0.752352C0.80058 80.2065 0.877744 80.2016 0.983845 80.192C1.11888 80.1726 1.27321 80.1484 1.44683 80.1194C1.62045 80.0903 1.78443 80.0661 1.93875 80.0468C2.09308 80.0177 2.20401 79.9984 2.27152 79.9887L2.41621 79.9452C2.56089 79.8968 2.74898 79.8387 2.98047 79.771C3.21197 79.6935 3.43381 79.6113 3.64601 79.5242C3.86786 79.4371 4.01255 79.3693 4.08006 79.3209C4.14758 79.2629 4.18134 79.2242 4.18134 79.2048C4.19099 79.1758 4.21028 79.1612 4.23922 79.1612C4.25851 79.1612 4.2778 79.1661 4.29709 79.1758C4.37425 79.2048 4.43695 79.2532 4.48518 79.3209C4.52376 79.35 4.54787 79.3645 4.55752 79.3645H4.58645C4.5961 79.3645 4.61057 79.35 4.62986 79.3209C4.64915 79.2822 4.68291 79.2193 4.73114 79.1322C4.78901 79.0258 4.87582 78.8757 4.99157 78.6822C5.12661 78.4209 5.23271 78.1063 5.30987 77.7386L5.35328 77.5353C5.44009 77.0902 5.51243 76.6305 5.5703 76.1562C5.62817 75.5949 5.70051 75.111 5.78732 74.7045C5.90307 74.2593 6.01882 73.8093 6.13456 73.3545C6.47216 71.7382 6.94961 70.1559 7.56693 68.6074C7.93346 67.7945 8.39162 67.2815 8.94142 67.0686C9.49121 66.846 10.1133 66.7154 10.8078 66.6767C11.3287 66.6476 11.8785 66.5702 12.4572 66.4444C13.1228 66.2799 13.7979 66.1008 14.4828 65.9072C15.5052 65.6169 16.4939 65.375 17.4488 65.1814C17.6706 65.1524 17.9118 65.133 18.1722 65.1233C18.394 65.1233 18.6111 65.1137 18.8233 65.0943C19.0451 65.0653 19.2332 65.0072 19.3875 64.9201C19.7058 64.7362 19.9277 64.4991 20.0531 64.2088C20.1785 63.9087 20.2798 63.5797 20.3569 63.2216L20.4727 62.728C20.5402 62.5151 20.5884 62.3361 20.6173 62.1909C20.6366 62.0941 20.6511 62.0119 20.6607 61.9441C20.6704 61.828 20.6752 61.707 20.6752 61.5812V60.957C20.6945 60.8795 20.7283 60.7973 20.7765 60.7102C20.8151 60.6328 20.8392 60.5602 20.8488 60.4924C20.8585 60.444 20.8633 60.4005 20.8633 60.3618C20.8633 60.2456 20.7813 60.144 20.6173 60.0569C20.3955 59.9698 20.1061 59.9263 19.7492 59.9263C19.4213 59.9263 19.0451 59.9601 18.6207 60.0279C17.6947 60.173 16.817 60.3376 15.9875 60.5215C15.5534 60.6086 15.211 60.6763 14.9602 60.7247C14.8156 60.744 14.6033 60.7682 14.3236 60.7973C13.8799 60.8457 13.3735 60.9134 12.8045 61.0005C12.2354 61.0779 11.7145 61.1892 11.2419 61.3344C10.7789 61.4699 10.4799 61.6489 10.3448 61.8715L10.3304 61.9151V61.9441C10.3304 61.9925 10.3641 62.0312 10.4317 62.0603C10.4992 62.0699 10.5763 62.0748 10.6631 62.0748H10.8078C10.9043 62.0748 10.9766 62.0796 11.0249 62.0893C11.0827 62.099 11.1117 62.1183 11.1117 62.1474V62.1619L11.1261 62.1328C11.1261 62.1522 11.1165 62.1861 11.0972 62.2345C11.0876 62.2732 11.0683 62.3216 11.0393 62.3796C11.0104 62.4377 10.9814 62.4909 10.9525 62.5393C10.9236 62.5877 10.8995 62.6216 10.8802 62.6409C10.8609 62.6603 10.8416 62.67 10.8223 62.67C10.8127 62.67 10.803 62.6651 10.7934 62.6554C10.7837 62.6361 10.7741 62.5877 10.7644 62.5103V62.4667C10.7644 62.428 10.7548 62.4038 10.7355 62.3941C10.6969 62.3941 10.6487 62.4087 10.5908 62.4377C10.5426 62.4667 10.4895 62.5103 10.4317 62.5683L10.287 62.7135C10.2387 62.7619 10.2098 62.7958 10.2002 62.8151C10.1905 62.8248 10.1857 62.8345 10.1857 62.8442C10.1857 62.8538 10.1953 62.8635 10.2146 62.8732C10.2339 62.8829 10.258 62.8974 10.287 62.9168L10.4027 62.9458C10.4413 62.9555 10.4751 62.9651 10.504 62.9748L10.5185 62.9893C10.5088 63.0571 10.4509 63.1152 10.3448 63.1635C10.2484 63.2023 10.1326 63.2361 9.9976 63.2652C9.86257 63.2845 9.75647 63.2942 9.6793 63.2942H9.54909C9.49121 63.2942 9.45745 63.2894 9.44781 63.2797C9.42852 63.2603 9.41887 63.2361 9.41887 63.2071L9.43334 63.1781C9.44298 63.149 9.46228 63.1103 9.49121 63.0619C9.52015 63.0232 9.53944 62.9942 9.54909 62.9748C9.55873 62.9458 9.56838 62.9264 9.57802 62.9168C9.57802 62.878 9.5732 62.8442 9.56355 62.8151C9.52497 62.7183 9.50568 62.5877 9.50568 62.4232V62.2345C9.52497 61.9732 9.55873 61.707 9.60696 61.436C9.65519 61.1844 9.6793 61.0054 9.6793 60.8989C9.68895 60.7828 9.69377 60.7102 9.69377 60.6811C9.69377 60.5747 9.66965 60.5118 9.62143 60.4924H9.60696C9.46228 60.4924 9.35135 60.5844 9.27419 60.7682C9.18738 60.9618 9.11504 61.165 9.05716 61.378C9.01858 61.5328 8.98 61.6489 8.94142 61.7264C8.91248 61.8038 8.88354 61.8425 8.85461 61.8425C8.83532 61.8425 8.82085 61.8377 8.8112 61.828C8.76297 61.7893 8.7051 61.6538 8.63758 61.4215C8.64723 61.4215 8.65687 61.407 8.66652 61.378C8.67616 61.3489 8.68099 61.3102 8.68099 61.2618C8.69063 61.1554 8.7051 61.0295 8.72439 60.8844C8.74368 60.7295 8.75815 60.6037 8.7678 60.5069C8.77744 60.4005 8.78227 60.3279 8.78227 60.2892V60.2311C8.78227 60.2408 8.76297 60.2747 8.72439 60.3327C8.68581 60.4005 8.63758 60.4827 8.57971 60.5795C8.53148 60.6666 8.48325 60.744 8.43503 60.8118L8.37715 60.9134C8.36751 60.9134 8.36269 60.8941 8.36269 60.8553C8.36269 60.8069 8.37233 60.7247 8.39162 60.6086C8.43985 60.3956 8.49772 60.1488 8.56524 59.8682C8.64241 59.5875 8.71475 59.3262 8.78227 59.0843C8.85943 58.8423 8.9173 58.6778 8.95589 58.5907C8.97518 58.5617 8.99447 58.5471 9.01376 58.5471H9.02823C9.05716 58.5568 9.08128 58.5859 9.10057 58.6342C9.12951 58.673 9.15362 58.7213 9.17291 58.7794C9.1922 58.8278 9.20667 58.8714 9.21632 58.9101V58.9681C9.2549 58.9585 9.31759 58.8326 9.4044 58.5907C9.50086 58.3391 9.61178 58.0294 9.73717 57.6616C9.87221 57.2938 9.9976 56.9164 10.1133 56.5293C10.258 56.1131 10.3786 55.7599 10.4751 55.4695C10.5812 55.1695 10.6439 55.0147 10.6631 55.005C10.7885 55.0147 10.8512 55.0824 10.8512 55.2082V55.2663C10.8416 55.4405 10.8223 55.5905 10.7934 55.7163C10.7548 55.8809 10.7066 56.0647 10.6487 56.268C10.5329 56.6164 10.4075 56.9696 10.2725 57.3277C10.1471 57.6471 10.0603 57.8842 10.0121 58.039C9.96384 58.1939 9.93009 58.3004 9.91079 58.3584C9.90115 58.4165 9.89633 58.4649 9.89633 58.5036C9.89633 58.5423 9.90115 58.5713 9.91079 58.5907C9.93009 58.6294 9.9542 58.6488 9.98314 58.6488C10.0314 58.6488 10.0844 58.6101 10.1423 58.5326C10.2291 58.4068 10.3256 58.2278 10.4317 57.9955C10.5378 57.7535 10.6342 57.5116 10.721 57.2696C10.8175 57.018 10.8802 56.8293 10.9091 56.7035L10.967 56.5293V56.5583C11.0152 56.4132 11.0538 56.2825 11.0827 56.1664C11.2178 55.6728 11.3817 55.3244 11.5746 55.1211C11.7676 54.9179 12.1775 54.7679 12.8045 54.6711C14.1162 54.4485 15.457 54.2743 16.8266 54.1485C17.6272 54.0711 18.4133 53.984 19.185 53.8872C19.9566 53.7904 20.7186 53.7275 21.471 53.6985H21.5723C21.7845 53.6985 22.069 53.7227 22.4259 53.7711C22.8021 53.8195 23.1011 53.8485 23.3229 53.8582C23.5448 53.8678 23.6846 53.8727 23.7425 53.8727C24.0029 53.8727 24.2055 53.8436 24.3502 53.7856C24.5527 53.6598 24.7987 53.3694 25.0881 52.9146C25.3871 52.45 25.6475 51.9855 25.8693 51.5209C26.0912 51.0467 26.2262 50.6838 26.2745 50.4322L26.3034 50.3305C26.3034 50.2628 26.2841 50.2096 26.2455 50.1709C26.2069 50.1225 26.1635 50.0789 26.1153 50.0402ZM36.0817 49.1547C35.9948 49.145 35.9273 49.1401 35.8791 49.1401C35.6283 49.1111 35.3582 49.0676 35.0689 49.0095C34.712 48.9224 34.4226 48.8692 34.2008 48.8498C33.9789 48.8304 33.8391 48.8208 33.7812 48.8208C33.4725 48.8208 33.1735 48.8837 32.8842 49.0095V49.053C32.8745 49.0724 32.8697 49.1014 32.8697 49.1401V49.2127C32.8697 49.2611 32.8649 49.3143 32.8552 49.3724L32.8263 49.474C32.7974 49.5998 32.6961 49.716 32.5225 49.8224C32.3971 49.8999 32.2958 49.9386 32.2186 49.9386H32.0595C31.9919 49.9386 31.9244 49.9337 31.8569 49.9241C31.7894 49.9047 31.7219 49.895 31.6544 49.895C31.5772 49.895 31.5 49.9095 31.4229 49.9386C31.2685 49.9773 31.0997 50.1273 30.9165 50.3886C30.8682 50.4757 30.82 50.6209 30.7718 50.8241C30.7236 51.037 30.685 51.308 30.656 51.6371C30.5789 52.2952 30.5162 53.0259 30.468 53.8291C30.4294 54.6324 30.3956 55.3389 30.3667 55.9486C30.3474 56.4809 30.3281 56.8051 30.3088 56.9212C30.3195 56.8838 30.3345 56.8301 30.354 56.7601C30.3698 56.7035 30.3885 56.6362 30.4101 56.5583C30.4679 56.3841 30.5451 56.2196 30.6416 56.0647C30.738 55.9002 30.8586 55.8034 31.0033 55.7744H31.0322C31.1576 55.7744 31.2589 55.8276 31.3361 55.9341C31.4132 56.0502 31.4807 56.1664 31.5386 56.2825C31.5579 56.3599 31.582 56.418 31.6109 56.4567C31.6399 56.4954 31.6592 56.5148 31.6688 56.5148H31.6833C31.9148 56.4567 32.045 56.3648 32.0739 56.2389V56.1954C32.0643 56.0405 32.0209 55.8712 31.9437 55.6873C31.8955 55.5712 31.8617 55.4792 31.8424 55.4115C31.8328 55.3341 31.828 55.2711 31.828 55.2228V55.1647C31.8376 55.126 31.8521 55.0921 31.8714 55.0631C31.9678 54.8889 32.045 54.7776 32.1029 54.7292C32.1704 54.6711 32.2234 54.6421 32.262 54.6421H32.3054C32.344 54.6614 32.3874 54.7001 32.4356 54.7582C32.4935 54.826 32.5851 54.8792 32.7105 54.9179H32.725C32.7443 54.9179 32.7636 54.8985 32.7829 54.8598C32.8022 54.8211 32.8311 54.7727 32.8697 54.7147C32.889 54.6372 32.9131 54.5743 32.942 54.5259C32.9806 54.4776 33.024 54.4534 33.0722 54.4534H33.0867C33.1928 54.5017 33.2459 54.6227 33.2459 54.8163V54.9034C33.2169 55.155 33.1832 55.3631 33.1446 55.5276C33.106 55.7405 33.0481 55.968 32.971 56.2099C32.8263 56.6357 32.6575 57.0229 32.4646 57.3713C32.2813 57.71 32.098 57.9132 31.9148 57.981C31.9244 57.9713 31.9293 57.9568 31.9293 57.9374C31.9389 57.9084 31.9437 57.8745 31.9437 57.8358C31.9437 57.7487 31.9244 57.6471 31.8858 57.531C31.8569 57.4148 31.8135 57.3132 31.7556 57.2261C31.7074 57.1293 31.6495 57.0664 31.582 57.0374H31.5531C31.5048 57.0374 31.4614 57.0664 31.4229 57.1245C31.3746 57.1825 31.3312 57.2551 31.2926 57.3422C31.2541 57.4487 31.2107 57.531 31.1624 57.589C31.1238 57.6374 31.0804 57.6616 31.0322 57.6616C31.0129 57.6616 30.9936 57.6568 30.9743 57.6471C30.9358 57.6181 30.9165 57.589 30.9165 57.56V57.4439L30.9454 57.3568C30.9551 57.2987 30.9599 57.2455 30.9599 57.1971C30.9599 57.1487 30.9454 57.1196 30.9165 57.11L30.902 57.139C30.902 57.168 30.8875 57.2164 30.8586 57.2842C30.8297 57.3906 30.7863 57.5261 30.7284 57.6906C30.6609 57.8842 30.5885 58.0826 30.5114 58.2858C30.4438 58.4891 30.4004 58.6342 30.3811 58.7213C30.3619 58.7988 30.3474 58.852 30.3377 58.881V58.9391C30.3377 58.9681 30.3426 58.9827 30.3522 58.9827C30.3329 58.9923 30.3184 58.9972 30.3088 58.9972C30.2702 58.9972 30.2413 58.973 30.222 58.9246C30.2027 58.8762 30.1931 58.8084 30.1931 58.7213V58.2423C30.2027 58.0971 30.2027 57.9665 30.1931 57.8503C30.1931 57.7342 30.1786 57.6616 30.1496 57.6326C30.1111 57.6326 30.0291 57.8697 29.9037 58.3439C29.7783 58.8084 29.6384 59.3698 29.4841 60.0279C29.3394 60.6763 29.2189 61.2038 29.1224 61.6102C29.0356 62.0167 28.9729 62.307 28.9343 62.4812L28.8764 62.8442C28.7607 63.4829 28.6401 64.1168 28.5147 64.7459C28.3122 65.8202 28.1193 66.8944 27.936 67.9687C27.8299 68.5106 27.7238 69.0478 27.6177 69.58C27.5405 69.9381 27.4585 70.2914 27.3717 70.6398L27.0534 72.1205C27.0245 72.2754 26.9956 72.498 26.9666 72.7883C26.9377 73.0883 26.9087 73.3399 26.8798 73.5432C26.8509 73.7367 26.8316 73.8722 26.8219 73.9497C26.7834 74.1335 26.7303 74.2835 26.6628 74.3997C26.6242 74.4965 26.5712 74.5449 26.5036 74.5449C26.4554 74.5449 26.4072 74.5255 26.3589 74.4868C26.1757 74.5932 26.0069 74.8207 25.8526 75.1691C25.6982 75.5175 25.568 75.8852 25.4619 76.2724C25.3655 76.6498 25.2931 76.9401 25.2449 77.1434L25.2304 77.2015C25.2111 77.2886 25.1774 77.4482 25.1291 77.6805C25.0906 77.9031 25.0472 78.1451 24.9989 78.4064C24.9603 78.6677 24.9266 78.8854 24.8977 79.0596C24.8687 79.2338 24.8542 79.3403 24.8542 79.379V79.408C24.97 79.7564 25.2063 79.9887 25.5632 80.1049C25.9297 80.2113 26.3107 80.2645 26.7062 80.2645H26.8943C27.3573 80.2549 27.772 80.2258 28.1386 80.1774C28.3508 80.1484 28.6257 80.1049 28.9632 80.0468C29.3105 79.9887 29.6047 79.9258 29.8458 79.8581C29.9326 79.8387 30.0098 79.8242 30.0773 79.8145C30.4342 79.7274 30.6898 79.6548 30.8441 79.5968C31.0081 79.529 31.1094 79.4467 31.148 79.35C31.1865 79.2435 31.2155 79.137 31.2348 79.0306C31.2541 78.9241 31.2734 78.8032 31.2926 78.6677C31.3119 78.4935 31.3409 78.2806 31.3795 78.0289C31.4663 77.4289 31.5097 76.8482 31.5097 76.2869C31.5097 76.074 31.5048 75.8659 31.4952 75.6627V75.2126C31.4952 74.9029 31.5 74.5932 31.5097 74.2835C31.5579 73.5867 31.664 72.8609 31.828 72.106L31.8714 71.9028C32.0643 71.0704 32.2717 70.243 32.4935 69.4204C32.6671 68.801 32.8215 68.2058 32.9565 67.6348L33.4774 65.5734C33.786 64.3926 34.0657 63.2119 34.3165 62.0312L34.5046 61.1312C34.5432 60.9376 34.6011 60.6957 34.6782 60.4053C34.7843 60.0279 34.8663 59.6891 34.9242 59.3891C34.9821 59.0891 35.011 58.8568 35.011 58.6923C35.011 58.5568 34.9965 58.4358 34.9676 58.3294C34.9001 58.1358 34.8519 58.0342 34.8229 58.0245L34.7795 58.01C34.7313 58.01 34.6831 58.0584 34.6348 58.1552C34.5962 58.252 34.5528 58.3826 34.5046 58.5471C34.4467 58.7504 34.3792 58.9439 34.3021 59.1278C34.2249 59.3117 34.1284 59.4472 34.0127 59.5343C33.9934 59.544 33.9741 59.5488 33.9548 59.5488C33.9259 59.5488 33.9114 59.5246 33.9114 59.4762V59.4327C33.9114 59.3649 33.9211 59.2827 33.9403 59.1859L33.9693 59.0262C34.0079 58.8617 34.0561 58.6923 34.114 58.5181L34.1863 58.2278C34.2056 58.1407 34.2152 58.0874 34.2152 58.0681C34.167 57.9132 34.1236 57.8358 34.085 57.8358C34.0561 57.8261 34.0368 57.8213 34.0272 57.8213C33.9886 57.8213 33.95 57.8455 33.9114 57.8939C33.8728 57.952 33.8342 58.0294 33.7957 58.1262C33.7571 58.2229 33.7233 58.31 33.6944 58.3875L33.6365 58.5036C33.569 58.4746 33.5352 58.3826 33.5352 58.2278V58.1697C33.5545 57.9761 33.5883 57.7777 33.6365 57.5745L33.6799 57.3568C33.7474 57.0761 33.8101 56.8293 33.868 56.6164C33.9259 56.4035 33.9596 56.2922 33.9693 56.2825C33.9886 56.2631 34.0079 56.2535 34.0272 56.2535C34.0464 56.2535 34.0609 56.2583 34.0706 56.268C34.0899 56.2873 34.1043 56.326 34.114 56.3841C34.1333 56.4325 34.1477 56.4809 34.1574 56.5293C34.1767 56.5874 34.1863 56.6357 34.1863 56.6745C34.196 56.7132 34.2104 56.7325 34.2297 56.7325C34.2876 56.7228 34.331 56.6599 34.3599 56.5438C34.3985 56.4277 34.4274 56.3212 34.4467 56.2244C34.466 56.1276 34.4853 56.026 34.5046 55.9196C34.5239 55.7744 34.548 55.6341 34.577 55.4986C34.6252 55.2953 34.6782 55.0969 34.7361 54.9034C34.8326 54.584 34.9772 54.3904 35.1702 54.3227H35.1991C35.2473 54.3227 35.2714 54.3566 35.2714 54.4243V54.4679C35.2714 54.5743 35.2521 54.7098 35.2136 54.8744C35.175 55.0292 35.1267 55.1889 35.0689 55.3534C35.0206 55.5179 34.9724 55.6583 34.9242 55.7744C34.8856 55.8809 34.8663 55.9389 34.8663 55.9486C34.9049 56.0067 34.9483 56.0357 34.9965 56.0357C35.0737 56.0357 35.1509 55.968 35.228 55.8325C35.3727 55.6099 35.5077 55.3147 35.6331 54.9469C35.7682 54.5792 35.8743 54.2598 35.9514 53.9888C36.0093 53.8243 36.0479 53.7082 36.0672 53.6404C36.2601 53.2049 36.4868 52.7742 36.7472 52.3484C36.998 51.9613 37.2054 51.5742 37.3693 51.187C37.3886 51.1483 37.4031 51.1048 37.4127 51.0564C37.432 50.9499 37.4417 50.829 37.4417 50.6935V50.5628C37.4513 50.4176 37.4561 50.3112 37.4561 50.2434C37.4658 50.1757 37.4754 50.1321 37.4851 50.1128C37.5044 50.016 37.5381 49.9531 37.5864 49.9241C37.76 49.7982 37.8564 49.6918 37.8757 49.6047V49.5757C37.8757 49.5563 37.8709 49.5418 37.8613 49.5321C37.813 49.4353 37.678 49.3627 37.4561 49.3143C37.2439 49.2563 37.0076 49.2176 36.7472 49.1982C36.4868 49.1692 36.2649 49.1547 36.0817 49.1547ZM25.7947 78.566C25.7465 78.566 25.7079 78.4983 25.6789 78.3628C25.6789 78.2564 25.6886 78.1596 25.7079 78.0725C25.7272 77.9757 25.7561 77.8934 25.7947 77.8257C25.8815 77.6902 25.978 77.5983 26.0841 77.5499C26.1902 77.5015 26.2721 77.4773 26.33 77.4773C26.3589 77.4773 26.3879 77.4821 26.4168 77.4918C26.4651 77.5015 26.4892 77.5353 26.4892 77.5934C26.4892 77.6128 26.4843 77.6321 26.4747 77.6515L26.4602 77.7241L26.4313 77.7531C26.4024 77.8208 26.3493 77.9176 26.2721 78.0434C26.2046 78.1596 26.1275 78.2709 26.0406 78.3773C25.9635 78.4838 25.9008 78.5419 25.8526 78.5515L25.7947 78.566ZM31.2782 69.7542C31.3264 69.58 31.3987 69.4591 31.4952 69.3913C31.6013 69.3236 31.6785 69.251 31.7267 69.1736C31.7749 69.0865 31.8087 69.0042 31.828 68.9268C31.8473 68.8687 31.8666 68.8203 31.8858 68.7816C31.9148 68.7332 31.9582 68.709 32.0161 68.709C32.0643 68.709 32.1366 68.7332 32.2331 68.7816C32.2427 68.7913 32.2476 68.8639 32.2476 68.9994C32.2572 69.1252 32.2524 69.251 32.2331 69.3768C32.2138 69.5026 32.1945 69.6042 32.1752 69.6817C32.1656 69.7591 32.1463 69.8317 32.1173 69.8994C32.0788 70.0349 32.0305 70.1123 31.9727 70.1317L31.9437 70.1462C31.9244 70.1559 31.9051 70.1704 31.8858 70.1898C31.8473 70.2091 31.7942 70.2382 31.7267 70.2769C31.6688 70.3059 31.6109 70.3398 31.5531 70.3785C31.5048 70.4075 31.4663 70.4317 31.4373 70.4511C31.418 70.4607 31.4084 70.4704 31.4084 70.4801C31.3023 70.4801 31.2444 70.4414 31.2348 70.364C31.2251 70.2769 31.2203 70.214 31.2203 70.1752C31.2203 70.0881 31.2299 69.9962 31.2492 69.8994L31.2782 69.7542ZM59.2142 51.8693C60.2077 52.6145 61.0324 53.5823 61.6883 54.7727C62.3538 55.9631 62.7637 57.2696 62.9181 58.6923C62.9566 59.0504 62.9759 59.4085 62.9759 59.7666C62.9759 60.415 62.9084 61.0683 62.7734 61.7264C62.6866 62.1425 62.566 62.5635 62.4117 62.9893C62.0837 63.9571 61.7944 64.9201 61.5436 65.8782C61.3121 66.7299 61.0565 67.5767 60.7768 68.4187C60.497 69.2607 60.1353 70.1075 59.6916 70.9592C59.6338 71.0463 59.3926 71.3511 58.9682 71.8737C58.5438 72.3867 58.0567 72.9673 57.5069 73.6158C56.9668 74.2545 56.4845 74.8013 56.0601 75.2562C55.6839 75.6723 55.4621 75.8804 55.3945 75.8804H55.3801V75.8223C55.3897 75.7352 55.4717 75.6094 55.626 75.4449C55.79 75.2804 55.9877 75.0868 56.2192 74.8642C56.5375 74.5642 56.8076 74.2835 57.0295 74.0222C57.1549 73.8867 57.2272 73.7706 57.2465 73.6738V73.6158C57.2465 73.5577 57.2224 73.5045 57.1741 73.4561C57.1549 73.4561 57.0391 73.5432 56.8269 73.7174C56.5086 73.998 56.1083 74.3271 55.626 74.7045C55.6936 74.7045 55.7562 74.719 55.8141 74.7481C55.7273 74.9126 55.5682 75.1013 55.3367 75.3142C55.1148 75.5272 54.9026 75.653 54.7001 75.6917C54.7483 75.6143 54.8206 75.5272 54.9171 75.4304C54.9942 75.3626 55.0569 75.2901 55.1052 75.2126C55.1534 75.1546 55.1823 75.0965 55.192 75.0384V75.0094C54.7483 75.3288 54.4203 75.4933 54.2081 75.503C53.9959 75.4739 53.8898 75.411 53.8898 75.3142V75.2852C53.9188 75.1594 54.0201 75.0094 54.1937 74.8352C54.3673 74.661 54.5554 74.4819 54.7579 74.2981C54.9508 74.1335 55.11 73.9835 55.2354 73.848C55.3125 73.7706 55.356 73.7077 55.3656 73.6593V73.6303C55.3656 73.6109 55.3608 73.5964 55.3511 73.5867H55.3222C55.2257 73.5867 54.9798 73.7029 54.5843 73.9351C54.1985 74.1674 53.7452 74.4626 53.2243 74.8207C52.7034 75.1788 52.2453 75.5126 51.8498 75.8223C51.464 76.132 51.2518 76.345 51.2132 76.4611C51.2132 76.4804 51.1505 76.5095 51.0251 76.5482C50.9094 76.5869 50.7647 76.6305 50.5911 76.6788C50.3499 76.7466 50.0895 76.824 49.8098 76.9111C49.5397 76.9982 49.313 77.0902 49.1298 77.1869C48.9658 77.274 48.8742 77.366 48.8549 77.4628L48.8404 77.4918C48.85 77.5402 48.879 77.5644 48.9272 77.5644C48.9465 77.5644 48.9851 77.5595 49.0429 77.5499C49.1008 77.5305 49.1876 77.4966 49.3034 77.4482C49.4288 77.3902 49.5493 77.3466 49.6651 77.3176C49.694 77.3079 49.723 77.3031 49.7519 77.3031C49.8098 77.3031 49.8532 77.3321 49.8821 77.3902V77.4628C49.8725 77.5015 49.8291 77.545 49.7519 77.5934C49.6747 77.6321 49.5686 77.6805 49.4336 77.7386C49.3275 77.7773 49.2262 77.8257 49.1298 77.8838C49.0429 77.9321 48.9947 77.9854 48.9851 78.0434C48.9947 78.2273 49.0767 78.3193 49.231 78.3193C49.2793 78.3193 49.3854 78.2951 49.5493 78.2467C49.7133 78.1983 49.9834 78.058 50.3596 77.8257C50.7454 77.5837 51.1023 77.3418 51.4302 77.0998C51.7582 76.8482 51.9848 76.674 52.1102 76.5772L52.1536 76.5337C52.4334 76.3982 52.6311 76.3304 52.7468 76.3304C52.7854 76.3304 52.8144 76.3401 52.8336 76.3595L52.8481 76.4175L52.8336 76.4901C52.8144 76.5772 52.7468 76.7079 52.6311 76.8821C52.525 77.0466 52.39 77.2305 52.226 77.4337L51.9945 77.7386C51.898 77.8838 51.8353 77.9999 51.8064 78.087C51.7871 78.1354 51.7775 78.1741 51.7775 78.2031V78.2322V78.2757C51.7775 78.2951 51.7871 78.3096 51.8064 78.3193L51.8209 78.3338L51.8064 78.3628L51.8209 78.3773C51.8209 78.379 51.8207 78.3808 51.8204 78.3827C51.82 78.3854 51.8194 78.3884 51.8185 78.3916C51.8161 78.3997 51.8121 78.4094 51.8064 78.4209C51.7968 78.4402 51.7726 78.4741 51.7341 78.5225L51.5749 78.6822C51.3531 78.8757 51.0155 79.0838 50.5621 79.3064C50.1184 79.529 49.6554 79.7226 49.1732 79.8871C48.7005 80.0516 48.3244 80.1484 48.0446 80.1774H46.945H45.4548C44.9339 80.1774 44.4854 80.1871 44.1093 80.2065C43.7331 80.2355 43.5305 80.2791 43.5016 80.3371C43.5209 80.2597 43.6366 80.2016 43.8488 80.1629C44.061 80.1339 44.3215 80.1 44.6301 80.0613C45.0835 80.0226 45.5223 79.9597 45.9467 79.8726C46.3808 79.7855 46.6701 79.6403 46.8148 79.4371V79.3935C46.8148 79.3451 46.7377 79.3016 46.5833 79.2629C46.4387 79.2242 46.2506 79.1951 46.0191 79.1758C45.7972 79.1564 45.6091 79.1467 45.4548 79.1467C45.5802 79.108 45.7249 79.0548 45.8889 78.987C46.0528 78.9193 46.2023 78.8467 46.3374 78.7693L46.2361 78.6822L45.9467 78.6532H45.5271C45.3439 78.6532 45.1462 78.6435 44.9339 78.6241C44.7314 78.6048 44.5915 78.5806 44.5144 78.5515C44.4758 78.5419 44.4565 78.5322 44.4565 78.5225C44.4565 78.5031 44.4999 78.4838 44.5867 78.4644C44.4999 78.4451 44.442 78.4306 44.4131 78.4209C44.3359 78.4015 44.2588 78.387 44.1816 78.3773C44.1141 78.358 44.0562 78.3386 44.008 78.3193C43.979 78.2999 43.9646 78.2854 43.9646 78.2757V78.2612C44.0321 78.1838 44.1044 78.1354 44.1816 78.116C44.2588 78.0967 44.3407 78.087 44.4276 78.087C44.5144 78.087 44.5964 78.0773 44.6735 78.058C44.7507 78.0289 44.7989 77.9999 44.8182 77.9709C44.8182 77.9515 44.7459 77.9418 44.6012 77.9418C44.4468 77.9418 44.2588 77.9321 44.0369 77.9128C43.8247 77.8838 43.627 77.8547 43.4437 77.8257C43.2604 77.787 43.1399 77.7434 43.082 77.695C43.1206 77.7144 43.1785 77.7241 43.2556 77.7241C43.4968 77.7241 43.9839 77.5983 44.7169 77.3466C45.4596 77.095 46.3663 76.7369 47.437 76.2724C48.5076 75.8078 49.4866 75.353 50.374 74.9078C51.2614 74.4626 51.8402 74.1239 52.1102 73.8916L52.1247 73.9061L52.1102 73.9497L52.0958 73.9351L52.1102 73.9932L52.0958 74.0513C52.0861 74.119 52.0524 74.1916 51.9945 74.269C51.9366 74.3368 51.8546 74.4142 51.7485 74.5013C51.6231 74.5981 51.5315 74.6949 51.4736 74.7916C51.5026 74.7432 51.6087 74.6465 51.7919 74.5013C51.9752 74.3465 52.197 74.1674 52.4575 73.9642C52.8626 73.6545 53.2291 73.3641 53.5571 73.0932C53.4992 73.0448 53.4558 72.977 53.4268 72.8899C53.4944 72.8802 53.5522 72.8657 53.6005 72.8464C53.6487 72.7206 53.7162 72.5705 53.803 72.3963C53.8995 72.2125 53.9911 72.0431 54.0779 71.8882C54.1744 71.7237 54.2371 71.6221 54.266 71.5834C54.3142 71.5253 54.4059 71.4285 54.5409 71.2931C54.6856 71.1576 54.8303 71.0124 54.975 70.8575C55.1293 70.7027 55.2306 70.5672 55.2788 70.4511L55.2933 70.393V70.364C55.2933 70.2962 55.245 70.2478 55.1486 70.2188C55.0618 70.2188 54.9267 70.3156 54.7435 70.5091C54.5602 70.693 54.3673 70.9108 54.1647 71.1624C54.0008 71.3656 53.8416 71.5495 53.6873 71.714C53.5426 71.8786 53.4172 71.9899 53.3111 72.0479C53.2725 72.0673 53.2388 72.077 53.2098 72.077C53.1616 72.077 53.1327 72.0431 53.123 71.9753V71.9463C53.1423 71.8689 53.2146 71.7286 53.34 71.5253C53.4751 71.3124 53.639 71.0753 53.832 70.814C54.0345 70.5527 54.213 70.3156 54.3673 70.1027C54.5409 69.8801 54.6422 69.7397 54.6711 69.6817C55.1727 68.801 55.5826 67.9058 55.9009 66.996C55.9202 66.9573 55.9395 66.9138 55.9588 66.8654C56.4411 65.6556 56.8124 64.4459 57.0729 63.2361C57.2175 62.5296 57.3285 61.8231 57.4056 61.1166C57.4249 60.8553 57.4346 60.5989 57.4346 60.3472C57.4346 58.702 56.9571 57.3664 56.0022 56.3406C55.0473 55.305 53.5474 54.7727 51.5026 54.7437H51.3723C50.9865 54.7437 50.4801 54.7582 49.8532 54.7872C49.2359 54.8066 48.6282 54.884 48.0302 55.0195C47.4418 55.1453 47.0077 55.3631 46.728 55.6728C46.6701 55.7405 46.6219 55.8615 46.5833 56.0357C46.5737 56.0744 46.5544 56.1664 46.5255 56.3115C46.5062 56.4567 46.4772 56.6938 46.4387 57.0229C46.3808 57.4777 46.3036 57.9229 46.2072 58.3584C46.1975 58.4358 46.1589 58.6246 46.0914 58.9246C46.0335 59.2149 45.884 59.4182 45.6429 59.5343C45.614 59.5343 45.5898 59.5149 45.5706 59.4762C45.5513 59.4278 45.5271 59.3746 45.4982 59.3165C45.4789 59.2391 45.4596 59.181 45.4403 59.1423C45.421 59.1133 45.4018 59.0988 45.3825 59.0988C45.3632 59.0988 45.3487 59.1085 45.3391 59.1278C45.2715 59.2149 45.1847 59.4133 45.0786 59.723C44.9918 59.9843 44.9195 60.2456 44.8616 60.5069C44.852 60.5553 44.8278 60.6666 44.7893 60.8408C44.7796 60.8989 44.7748 60.9473 44.7748 60.986C44.7748 61.0828 44.8037 61.1554 44.8616 61.2038V61.1892C44.8616 61.1699 44.8713 61.1408 44.8905 61.1021C44.9195 61.0537 44.9532 60.9908 44.9918 60.9134C45.0401 60.836 45.0835 60.7586 45.122 60.6811C45.1703 60.6037 45.2088 60.5408 45.2378 60.4924C45.2667 60.4537 45.286 60.4344 45.2957 60.4344C45.2957 60.4827 45.2812 60.594 45.2523 60.7682C45.2233 60.9424 45.1896 61.1408 45.151 61.3634C45.1124 61.5764 45.0738 61.7602 45.0352 61.9151C45.0063 62.0603 44.987 62.1328 44.9774 62.1328C45.0449 62.2393 45.1076 62.2925 45.1654 62.2925C45.1847 62.2925 45.2185 62.278 45.2667 62.249C45.3246 62.2199 45.3873 62.128 45.4548 61.9732C45.532 61.8183 45.5995 61.6489 45.6574 61.4651C45.7249 61.2715 45.7924 61.107 45.8599 60.9715C45.9274 60.836 45.995 60.7634 46.0625 60.7537C46.1011 60.7731 46.1204 60.8408 46.1204 60.957C46.1204 61.1408 46.077 61.436 45.9901 61.8425C45.9516 62.0361 45.8503 62.4667 45.6863 63.1345C45.5223 63.8023 45.2281 64.862 44.8037 66.3137C44.3793 67.7557 43.9935 69.0381 43.6463 70.1607C43.3762 71.0414 43.2026 71.6221 43.1254 71.9028L43.0531 72.2657C42.9663 72.6528 42.8794 73.1028 42.7926 73.6158C42.7058 74.1964 42.6046 74.7674 42.4888 75.3288C42.4406 75.5514 42.3538 75.9143 42.2284 76.4175C42.103 76.9111 41.9679 77.2256 41.8233 77.3611C41.6882 77.487 41.6014 77.5499 41.5628 77.5499C41.5435 77.5499 41.505 77.5547 41.4471 77.5644C41.3989 77.5741 41.3217 77.5983 41.2156 77.637C41.1095 77.6757 41.0082 77.7144 40.9118 77.7531C40.8249 77.7918 40.6417 77.8547 40.362 77.9418C40.0919 78.0289 39.7012 78.0822 39.19 78.1015C38.9875 78.1209 38.7753 78.1451 38.5534 78.1741C38.457 78.1935 38.3316 78.2418 38.1772 78.3193C38.0036 78.416 37.8252 78.4886 37.6419 78.537C37.5937 78.5467 37.5455 78.5515 37.4972 78.5515C37.3718 78.5515 37.2513 78.508 37.1355 78.4209C37.0101 78.2951 36.9474 78.1112 36.9474 77.8692C36.9474 77.8015 36.9523 77.7337 36.9619 77.666C36.9716 77.4144 37.0053 77.1482 37.0632 76.8676C37.0921 76.7611 37.1114 76.674 37.1211 76.6063C37.1307 76.5288 37.15 76.4224 37.1789 76.2869L37.3092 75.9094C37.3767 75.6481 37.4249 75.4401 37.4538 75.2852L37.6275 74.4142C37.7239 73.9787 37.8252 73.5432 37.9313 73.1077C38.0084 72.7883 38.0904 72.4592 38.1772 72.1205L38.3798 71.1479C38.5438 70.364 38.7608 69.3623 39.0309 68.1429C39.301 66.9138 39.5903 65.6798 39.899 64.441C40.2076 63.2023 40.5066 62.1619 40.796 61.3199C41.0854 60.4779 41.341 60.0472 41.5628 60.0279C41.5918 60.0279 41.6062 60.0569 41.6062 60.115C41.6062 60.144 41.6014 60.1779 41.5918 60.2166C41.5821 60.294 41.5677 60.3811 41.5484 60.4779L41.5194 60.6376C41.4905 60.7634 41.4712 60.8795 41.4616 60.986C41.4519 61.0634 41.4471 61.1263 41.4471 61.1747V61.2473C41.4567 61.286 41.4712 61.3054 41.4905 61.3054C41.5098 61.3054 41.5339 61.2957 41.5628 61.2763C41.7172 61.1796 41.8474 60.986 41.9535 60.6957C42.0596 60.4053 42.1464 60.1053 42.2139 59.7956C42.2621 59.6408 42.2959 59.5004 42.3152 59.3746C42.3441 59.2585 42.3634 59.1569 42.3731 59.0698V59.0262L42.4309 58.9972C42.4309 58.881 42.4358 58.7794 42.4454 58.6923C42.4647 58.6052 42.4792 58.5471 42.4888 58.5181H42.5611C42.5322 58.4213 42.5033 58.3391 42.4743 58.2713C42.4454 58.2229 42.4068 58.1987 42.3586 58.1987H42.3297C42.2043 58.2278 42.1175 58.3004 42.0692 58.4165L41.9824 58.823C41.9824 58.9101 41.9728 58.9923 41.9535 59.0698L41.9101 59.244C41.8908 59.3117 41.8233 59.3553 41.7075 59.3746C41.6593 59.3746 41.6352 59.3311 41.6352 59.244C41.6352 59.1859 41.6448 59.1133 41.6641 59.0262C41.693 58.9197 41.7557 58.7068 41.8522 58.3875C41.9487 58.0681 42.1319 57.5842 42.402 56.9358C42.6817 56.2873 42.9518 55.726 43.2122 55.2518C43.463 54.7872 43.6463 54.555 43.762 54.555C43.791 54.5743 43.8054 54.613 43.8054 54.6711C43.8054 54.6905 43.8006 54.7195 43.791 54.7582C43.762 54.8744 43.7283 55.005 43.6897 55.1502C43.6414 55.305 43.6029 55.4502 43.5739 55.5857C43.5643 55.6534 43.5595 55.7163 43.5595 55.7744C43.5595 55.8228 43.5643 55.8663 43.5739 55.9051C43.6125 55.9534 43.6559 55.9776 43.7041 55.9776C43.7138 55.9776 43.7427 55.9728 43.791 55.9631C43.8392 55.9438 43.9019 55.9002 43.979 55.8325C44.0659 55.755 44.1382 55.6825 44.1961 55.6147L44.2973 55.5131C44.3359 55.4841 44.3649 55.4695 44.3842 55.4695C44.4131 55.4695 44.4324 55.4937 44.442 55.5421C44.4517 55.5808 44.4565 55.6292 44.4565 55.6873C44.4661 55.7647 44.4806 55.8325 44.4999 55.8905C44.5192 55.9099 44.5385 55.9196 44.5578 55.9196C44.5771 55.9196 44.6012 55.9099 44.6301 55.8905C44.6398 55.8809 44.6591 55.847 44.688 55.7889C44.7266 55.7309 44.7844 55.6486 44.8616 55.5421C44.9388 55.4357 45.0159 55.3341 45.0931 55.2373C45.1799 55.1308 45.2378 55.005 45.2667 54.8598C45.286 54.7824 45.2957 54.7195 45.2957 54.6711C45.2957 54.613 45.286 54.5695 45.2667 54.5405C45.2088 54.4534 45.1799 54.3856 45.1799 54.3372V54.3082C45.2378 54.1243 45.3149 53.8824 45.4114 53.5823C45.5079 53.321 45.5947 53.0646 45.6718 52.8129C45.7297 52.6581 45.7731 52.5178 45.802 52.3919C45.8117 52.3145 45.8213 52.2419 45.831 52.1742V52.1452C45.831 52.0677 45.7972 51.9855 45.7297 51.8984C45.6622 51.8209 45.6091 51.7338 45.5706 51.6371C45.5416 51.5693 45.5271 51.5016 45.5271 51.4338C45.5271 51.3951 45.532 51.3564 45.5416 51.3177L45.5561 51.2596C45.6911 50.9402 45.9371 50.7273 46.294 50.6209C46.6509 50.5144 46.9981 50.4515 47.3357 50.4322C47.4804 50.4128 47.6009 50.3983 47.6974 50.3886C48.932 50.195 50.1377 50.0934 51.3145 50.0837C52.0475 50.0644 52.7902 50.0257 53.5426 49.9676H53.5571C53.5571 49.9579 53.5522 49.9531 53.5426 49.9531C53.5426 49.9434 53.5281 49.9337 53.4992 49.9241C53.4799 49.9144 53.4654 49.8999 53.4558 49.8805C53.4654 49.8708 53.4799 49.866 53.4992 49.866C53.5378 49.866 53.639 49.8853 53.803 49.9241C53.967 49.9531 54.2178 50.0015 54.5554 50.0692C54.893 50.1273 55.2016 50.1854 55.4813 50.2434C55.7611 50.3015 55.9395 50.3402 56.0167 50.3596C57.2224 50.6402 58.2882 51.1435 59.2142 51.8693ZM82.5492 69.4639C82.5878 68.4961 82.6312 67.538 82.6795 66.5895C82.7277 65.7572 82.7807 64.9007 82.8386 64.02C83.0026 62.2199 83.0846 60.8602 83.0846 59.9408C83.0942 59.0117 83.099 58.5278 83.099 58.4891C83.099 56.7374 82.8772 55.0969 82.4335 53.5678C82.0959 52.5226 81.6088 51.7435 80.9722 51.2306C80.3452 50.708 79.6508 50.4467 78.8888 50.4467C78.7537 50.4467 78.6187 50.4515 78.4837 50.4612C77.5384 50.558 76.5111 51.0661 75.4019 51.9855C74.6399 52.6339 73.9695 53.3694 73.3908 54.1921C72.8217 55.005 72.2912 55.8228 71.7993 56.6454C71.7221 56.7809 71.5919 56.9841 71.4086 57.2551C71.1 57.7294 70.7479 58.2955 70.3525 58.9536C69.957 59.602 69.6725 60.1247 69.4988 60.5215C69.3252 60.9182 69.2191 61.2038 69.1805 61.378C69.1612 61.4747 69.1516 61.5618 69.1516 61.6393C69.1516 61.7651 69.1757 61.8667 69.2239 61.9441C69.2239 61.9344 69.2384 61.9054 69.2673 61.857C69.3734 61.6828 69.5374 61.407 69.7593 61.0295C69.9908 60.6521 70.2367 60.265 70.4971 59.8682C70.7672 59.4617 70.9939 59.1569 71.1772 58.9536C71.3604 58.7504 71.4906 58.6488 71.5678 58.6488C71.6064 58.6488 71.6353 58.6633 71.6546 58.6923C71.616 58.7601 71.534 58.881 71.4086 59.0552C71.1675 59.4036 70.8781 59.8392 70.5406 60.3618C70.2126 60.8844 69.9811 61.2957 69.8461 61.5957C69.711 61.886 69.6339 62.0893 69.6146 62.2054C69.6049 62.2538 69.6001 62.3022 69.6001 62.3506C69.6001 62.457 69.6387 62.5296 69.7159 62.5683C69.7351 62.549 69.7785 62.4861 69.8461 62.3796C69.9232 62.2732 70.0052 62.1425 70.092 61.9877C70.2078 61.7941 70.3235 61.6054 70.4393 61.4215C70.5647 61.2279 70.6611 61.0779 70.7286 60.9715C70.8058 60.865 70.854 60.8118 70.8733 60.8118H70.8878C70.8974 60.8312 70.9023 60.8602 70.9023 60.8989C70.9023 60.9376 70.8974 60.9812 70.8878 61.0295C70.8588 61.1844 70.7769 61.407 70.6418 61.6973C70.4489 62.1716 70.1933 62.699 69.875 63.2797C69.5663 63.8604 69.2673 64.3684 68.978 64.804C68.6982 65.2395 68.4957 65.4814 68.3703 65.5298L68.5295 64.8185L68.5873 64.4556C68.4716 64.9975 68.2497 65.5685 67.9218 66.1686C67.5938 66.7686 67.237 67.3686 66.8511 67.9687C66.2917 68.83 65.8383 69.643 65.4911 70.4075C65.1439 71.2882 64.869 72.1592 64.6664 73.0206C64.5989 73.2915 64.5217 73.5674 64.4349 73.848C64.3771 74.0513 64.2758 74.3077 64.1311 74.6174C63.9864 74.9658 63.8755 75.2513 63.7983 75.4739C63.7308 75.6869 63.6874 75.8369 63.6681 75.924C63.6392 76.0498 63.6247 76.1611 63.6247 76.2579C63.6247 76.3353 63.6343 76.4079 63.6536 76.4756C64.1552 75.7691 64.6134 75.0433 65.0281 74.2981C65.0088 74.4045 64.9751 74.5207 64.9268 74.6465C64.869 74.8013 64.8256 74.9513 64.7966 75.0965C64.7773 75.2126 64.758 75.3239 64.7388 75.4304C65.1149 75.2659 65.3947 75.0433 65.5779 74.7626C65.7612 74.4723 65.9107 74.1674 66.0264 73.848C66.1325 73.577 66.2483 73.3303 66.3737 73.1077C66.5087 72.8754 66.692 72.6964 66.9235 72.5705C66.8559 72.8899 66.7836 73.2093 66.7065 73.5287L66.6775 73.6883C66.9476 73.2528 67.2852 72.8657 67.6903 72.527C67.8736 72.6625 68.0327 72.7302 68.1677 72.7302H68.2112C68.3558 72.7012 68.4909 72.6431 68.6163 72.556C68.7224 72.4786 68.8092 72.4302 68.8767 72.4109C68.9442 72.3915 68.9924 72.3818 69.0214 72.3818C69.1082 72.3818 69.1998 72.4205 69.2963 72.498C69.3445 72.527 69.4024 72.556 69.4699 72.5851C69.576 72.6238 69.6628 72.6722 69.7303 72.7302C69.8075 72.7883 69.8461 72.8464 69.8461 72.9044V72.9625C69.8268 73.0593 69.711 73.1754 69.4988 73.3109C69.74 73.2238 70.0245 73.1657 70.3525 73.1367C70.6322 73.1173 70.8926 73.0738 71.1338 73.0061C71.5196 72.8415 71.9102 72.6383 72.3057 72.3963L72.6819 72.1641C73.0773 71.9221 73.5451 71.5931 74.0853 71.1769C74.5386 70.8188 74.9968 70.4898 75.4598 70.1898C75.9228 69.8801 76.3231 69.6817 76.6606 69.5946C76.7957 69.5752 76.9163 69.5655 77.0224 69.5655C77.3021 69.5655 77.4709 69.6478 77.5287 69.8123C77.5577 69.9091 77.5722 70.0252 77.5722 70.1607C77.5722 70.3543 77.5432 70.5817 77.4853 70.843C77.466 71.0559 77.4468 71.2785 77.4275 71.5108L76.9789 77.1724C76.9721 77.2338 76.9654 77.2976 76.9586 77.3638C76.9557 77.3915 76.9529 77.4197 76.95 77.4482C76.9211 77.7386 76.8921 77.9999 76.8632 78.2322C76.8246 78.5128 76.8053 78.7645 76.8053 78.987C76.8053 79.2096 76.8246 79.3984 76.8632 79.5532C76.9597 79.8629 77.2973 80.0855 77.876 80.221C77.876 80.2113 77.8953 80.1968 77.9339 80.1774C77.9724 80.1484 78.0303 80.1194 78.1075 80.0903C78.1846 80.0613 78.257 80.0371 78.3245 80.0178C78.4017 79.9984 78.4644 79.9887 78.5126 79.9887C78.638 80.0081 78.7489 80.0565 78.8454 80.1339C78.9418 80.2113 79.0286 80.2984 79.1058 80.3952C79.2215 80.5307 79.3228 80.6226 79.4096 80.671C79.4964 80.7291 79.5736 80.7581 79.6411 80.7581C79.7472 80.7581 79.8774 80.7194 80.0318 80.642C80.1957 80.5355 80.3308 80.3178 80.4369 79.9887C80.5526 79.6597 80.6443 79.3354 80.7118 79.0161C80.7696 78.7257 80.8227 78.5273 80.8709 78.4209C80.8613 78.4499 80.8565 78.4886 80.8565 78.537C80.8565 78.6338 80.8757 78.7548 80.9143 78.8999C80.9722 79.1322 81.0445 79.3306 81.1314 79.4951C81.2278 79.6597 81.3194 79.7419 81.4063 79.7419H81.4497C81.5461 79.7032 81.6329 79.5048 81.7101 79.1467L81.739 79.0306C81.9995 77.4531 82.1827 75.8611 82.2888 74.2545C82.4046 72.648 82.4914 71.0511 82.5492 69.4639ZM72.3202 71.7721C72.3105 71.8108 72.2864 71.8641 72.2478 71.9318C71.8909 72.4544 71.6643 72.7206 71.5678 72.7302C71.4713 72.7399 71.4183 72.7447 71.4086 72.7447C71.264 72.7447 71.1627 72.6383 71.1048 72.4254C71.0469 72.1931 71.0132 71.9511 71.0035 71.6995C70.9939 71.5834 70.9843 71.4866 70.9746 71.4092C70.9746 71.3318 70.9601 71.2931 70.9312 71.2931C70.9119 71.2931 70.8974 71.2979 70.8878 71.3076C70.8492 71.3269 70.8058 71.356 70.7576 71.3947C70.6225 71.4818 70.473 71.564 70.3091 71.6414C70.1547 71.7189 70.0293 71.7576 69.9329 71.7576C69.9039 71.7576 69.875 71.7528 69.8461 71.7431C69.7882 71.7237 69.7593 71.6608 69.7593 71.5544C69.7593 71.506 69.7689 71.4382 69.7882 71.3511L69.8171 71.235C69.9136 70.9446 70.0631 70.7608 70.2657 70.6833C70.4779 70.6059 70.6418 70.5672 70.7576 70.5672C70.8637 70.5672 70.9601 70.5914 71.0469 70.6398C71.1145 70.6882 71.1482 70.7511 71.1482 70.8285V70.8866C71.1193 70.993 71.0469 71.1237 70.9312 71.2785C70.9794 71.2301 71.0228 71.2059 71.0614 71.2059C71.0807 71.2059 71.1 71.2108 71.1193 71.2205C71.1868 71.2592 71.2447 71.3221 71.2929 71.4092C71.3411 71.4963 71.3845 71.5834 71.4231 71.6705C71.4617 71.7479 71.481 71.7963 71.481 71.8157C71.4906 71.835 71.5099 71.8447 71.5389 71.8447C71.5485 71.8447 71.5678 71.8399 71.5967 71.8302C71.6546 71.8205 71.7318 71.8011 71.8282 71.7721C71.9247 71.7431 72.0067 71.7237 72.0742 71.714C72.1417 71.6947 72.1851 71.685 72.2044 71.685C72.2526 71.685 72.2864 71.6947 72.3057 71.714C72.3153 71.7237 72.3202 71.7431 72.3202 71.7721ZM77.7168 63.6426C77.659 63.9329 77.5866 64.1071 77.4998 64.1652C77.2876 64.3007 76.8777 64.533 76.27 64.862C75.672 65.1911 75.0161 65.5298 74.3023 65.8782C73.5982 66.2266 73.0532 66.4637 72.6674 66.5895C72.2816 66.7154 72.0115 66.7783 71.8572 66.7783C71.6932 66.7783 71.5871 66.725 71.5389 66.6186C71.2881 67.0638 71.1 67.3444 70.9746 67.4606C70.8589 67.5767 70.772 67.6348 70.7142 67.6348C70.6852 67.6348 70.6611 67.6251 70.6418 67.6057C70.584 67.5283 70.5502 67.417 70.5406 67.2718V66.9089V66.6041C70.5406 66.4008 70.5357 66.2266 70.5261 66.0815C70.5164 65.9363 70.4875 65.8492 70.4393 65.8202H70.4103C70.3428 65.8202 70.2753 65.8927 70.2078 66.0379C70.121 66.2024 70.0342 66.425 69.9473 66.7057C69.9106 66.8204 69.873 66.9377 69.8345 67.0576L69.769 67.2618L69.7269 67.3929L69.6724 67.5622C69.5953 67.8622 69.5181 68.1283 69.441 68.3606C69.3734 68.5832 69.3252 68.709 69.2963 68.7381C69.277 68.7671 69.2625 68.7816 69.2529 68.7816V68.7671C69.2336 68.7671 69.195 68.7816 69.1371 68.8106C69.0407 68.8494 68.9105 68.9123 68.7465 68.9994C68.5825 69.0865 68.4089 69.1832 68.2256 69.2897C68.052 69.3962 67.9073 69.4881 67.7916 69.5655C67.9073 69.3623 68.0472 69.0574 68.2112 68.651C68.3848 68.2348 68.5439 67.8235 68.6886 67.417C68.8429 67.0105 68.9539 66.696 69.0214 66.4734C69.0696 66.367 69.0937 66.3089 69.0937 66.2992C69.5664 65.3604 70.1306 64.5233 70.7865 63.7878C71.1723 63.3232 71.5533 62.8248 71.9295 62.2925C71.9681 62.3022 71.9874 62.3216 71.9874 62.3506C71.9874 62.3699 71.9826 62.3893 71.9729 62.4087C71.9729 62.4474 71.9585 62.4909 71.9295 62.5393C71.862 62.6942 71.7607 62.8829 71.6257 63.1055C71.4713 63.3474 71.3411 63.5749 71.235 63.7878C71.1289 63.991 71.0614 64.1652 71.0325 64.3104C71.0228 64.3685 71.018 64.4265 71.018 64.4846C71.018 64.6588 71.1193 64.7652 71.3218 64.804C71.6112 64.2717 71.9826 63.7926 72.4359 63.3668L72.4214 63.57C72.4214 63.6087 72.4166 63.6426 72.407 63.6716C72.6095 63.5555 72.8314 63.2894 73.0725 62.8732C73.3136 62.457 73.521 62.0796 73.6946 61.7409C73.7815 61.557 73.8441 61.4263 73.8827 61.3489C73.9213 61.4263 73.9406 61.5038 73.9406 61.5812C73.9406 61.6199 73.9358 61.6538 73.9261 61.6828L73.9117 61.7264C73.8731 61.8619 73.82 62.0022 73.7525 62.1474C73.685 62.2925 73.6416 62.4087 73.6223 62.4958C73.603 62.5732 73.5934 62.6167 73.5934 62.6264C73.5837 62.6651 73.5789 62.7087 73.5789 62.7571C73.5789 62.8248 73.5934 62.8926 73.6223 62.9603C73.8924 62.6119 74.2878 61.9828 74.8087 61.0731C75.1367 60.5118 75.4694 59.9601 75.807 59.4182C76.1446 58.8762 76.4436 58.4455 76.704 58.1262C76.9645 57.7971 77.1719 57.6326 77.3262 57.6326C77.3551 57.6326 77.3792 57.6374 77.3985 57.6471C77.6107 57.7535 77.7554 58.1068 77.8326 58.7068C77.9097 59.3069 77.9483 59.9553 77.9483 60.6521V60.9134C77.9387 61.7264 77.9049 62.3458 77.847 62.7716C77.7892 63.1974 77.7458 63.4878 77.7168 63.6426ZM81.985 66.2847C81.9657 66.2847 81.9512 66.2895 81.9416 66.2992C81.8644 66.3573 81.8162 66.4299 81.7969 66.517V66.575C81.7969 66.6815 81.8065 66.7976 81.8258 66.9234C81.8548 67.0299 81.8692 67.1122 81.8692 67.1702C81.8692 67.2186 81.8644 67.2573 81.8548 67.2864C81.8451 67.3444 81.8114 67.3977 81.7535 67.4461H81.739C81.6908 67.4461 81.6619 67.2622 81.6522 66.8944V66.5895C81.6522 66.2605 81.6619 65.8879 81.6812 65.4717C81.7004 64.9201 81.7294 64.4507 81.768 64.0636C81.8162 63.6765 81.8596 63.4007 81.8982 63.2361C81.9175 63.1297 81.9368 63.0474 81.956 62.9893C82.0429 63.0861 82.0863 63.1974 82.0863 63.3232C82.0863 63.3523 82.0814 63.3861 82.0718 63.4248C82.0621 63.4732 82.0477 63.5168 82.0284 63.5555C82.038 63.5458 82.0525 63.541 82.0718 63.541C82.1104 63.541 82.1441 63.6087 82.1731 63.7442C82.2309 63.9184 82.2743 64.1604 82.3033 64.4701C82.3322 64.7701 82.3467 65.0266 82.3467 65.2395C82.3563 65.4524 82.3612 65.6024 82.3612 65.6895C82.3612 65.8637 82.3563 65.9943 82.3467 66.0815C82.3274 66.2073 82.3129 66.2895 82.3033 66.3282C82.2743 66.4734 82.2213 66.5508 82.1441 66.5605C82.1345 66.5605 82.1249 66.5508 82.1152 66.5315C82.1056 66.5121 82.0959 66.4831 82.0863 66.4444C82.0766 66.4057 82.0621 66.3718 82.0429 66.3428C82.0236 66.304 82.0043 66.2847 81.985 66.2847ZM81.4063 73.7609C81.3773 73.9061 81.3484 74.0271 81.3194 74.1239C81.3194 74.1626 81.3146 74.1819 81.305 74.1819C81.2857 74.1819 81.2712 74.1335 81.2616 74.0368C81.2423 73.8722 81.2326 73.6932 81.2326 73.4996V73.0351C81.2326 72.8318 81.2374 72.6238 81.2471 72.4109C81.2664 72.1012 81.3001 71.8495 81.3484 71.656C81.3773 71.4818 81.4207 71.3947 81.4786 71.3947L81.5075 71.4092C81.604 71.4963 81.6522 71.6802 81.6522 71.9608V72.106C81.6329 72.4738 81.5943 72.8076 81.5365 73.1077L81.4063 73.7609ZM107.114 70.6543C107.056 70.693 106.998 70.7995 106.941 70.9737C106.892 71.1479 106.844 71.3366 106.796 71.5398C106.757 71.7334 106.723 71.8882 106.695 72.0044L106.68 72.0915H106.593C106.516 72.0915 106.458 72.0963 106.42 72.106C106.381 72.106 106.352 72.1157 106.333 72.135C106.314 72.1447 106.299 72.1641 106.289 72.1931C106.26 72.2318 106.212 72.2947 106.145 72.3818C106.077 72.4689 105.961 72.5802 105.798 72.7157C105.759 72.6673 105.716 72.5851 105.667 72.4689C105.619 72.3431 105.576 72.2076 105.537 72.0625C105.499 71.9173 105.479 71.7915 105.479 71.685V71.5834C105.479 71.564 105.455 71.5544 105.407 71.5544C105.378 71.5544 105.315 71.564 105.219 71.5834C105.122 71.6027 105.026 71.7431 104.929 72.0044C104.91 72.0624 104.896 72.1254 104.886 72.1931C104.867 72.2899 104.857 72.3867 104.857 72.4834C104.857 72.5996 104.881 72.7544 104.929 72.948C104.978 73.1319 105.074 73.277 105.219 73.3835C105.277 73.4125 105.33 73.427 105.378 73.427C105.474 73.427 105.576 73.3496 105.682 73.1948V73.2819C105.682 73.4658 105.735 73.6351 105.841 73.79C105.947 73.9351 106.097 74.0416 106.289 74.1093C106.357 74.1577 106.42 74.1819 106.478 74.1819C106.526 74.1819 106.574 74.1529 106.622 74.0948C106.68 74.0368 106.728 73.9255 106.767 73.7609C106.815 73.5964 106.859 73.4319 106.897 73.2674L106.969 72.9189C106.998 72.8415 107.027 72.8028 107.056 72.8028H107.071C107.148 72.8512 107.186 72.9673 107.186 73.1512C107.186 73.3061 107.162 73.4996 107.114 73.7319L107.085 73.8771C106.979 74.3803 106.81 74.961 106.579 75.6191C106.347 76.2772 106.092 76.8869 105.812 77.4482C105.542 77.9999 105.31 78.3435 105.118 78.479C105.089 78.4112 105.074 78.3483 105.074 78.2902C105.074 78.2515 105.079 78.2177 105.089 78.1886C105.108 78.0918 105.137 77.9999 105.175 77.9128C105.204 77.8547 105.224 77.8063 105.233 77.7676L105.248 77.695L105.233 77.6515C105.224 77.6031 105.166 77.5789 105.06 77.5789C105.021 77.5789 104.978 77.5837 104.929 77.5934C104.669 77.6128 104.491 77.6563 104.394 77.7241C104.298 77.7725 104.24 77.8354 104.22 77.9128L104.206 77.9709C104.206 78.0192 104.216 78.0822 104.235 78.1596C104.245 78.2176 104.249 78.2709 104.249 78.3193V78.3483C104.24 78.387 104.22 78.416 104.192 78.4354C103.574 78.9774 103.044 79.2629 102.6 79.2919H102.528C102.113 79.2919 101.713 79.0403 101.327 78.537C101.356 78.4015 101.38 78.3144 101.399 78.2757C101.409 78.2564 101.423 78.2467 101.443 78.2467C101.447 78.2467 101.452 78.2485 101.458 78.252C101.463 78.2552 101.469 78.2597 101.475 78.2655C101.479 78.2686 101.482 78.272 101.486 78.2757C101.505 78.2951 101.534 78.3338 101.573 78.3918C101.631 78.4886 101.698 78.5709 101.775 78.6386C101.824 78.6774 101.877 78.6967 101.934 78.6967C101.983 78.6967 102.041 78.6822 102.108 78.6532L102.137 78.6241V78.5951C102.137 78.5467 102.113 78.4693 102.065 78.3628C102.016 78.2564 101.934 78.1305 101.819 77.9854C101.713 77.8402 101.602 77.7434 101.486 77.695C101.457 77.6854 101.428 77.6805 101.399 77.6805C101.322 77.6805 101.259 77.7337 101.211 77.8402C101.163 77.8208 101.076 77.6902 100.951 77.4482C100.825 77.2063 100.69 76.9305 100.546 76.6208C100.401 76.3111 100.275 76.0353 100.169 75.7933C100.073 75.5997 100.015 75.4788 99.9957 75.4304C99.5038 74.4142 99.0456 73.3496 98.6212 72.2366L98.5778 72.1495C98.5489 72.1012 98.5248 72.0383 98.5055 71.9608C98.3126 71.4769 98.0039 70.6785 97.5795 69.5655C97.1551 68.4526 96.7259 67.2525 96.2918 65.9653C95.8674 64.6781 95.5588 63.5361 95.3659 62.5393C95.279 62.0941 95.2356 61.7215 95.2356 61.4215C95.2356 61.2763 95.2453 61.1457 95.2646 61.0295C95.3032 60.8747 95.361 60.7537 95.4382 60.6666C95.4768 60.6666 95.5347 60.7295 95.6118 60.8553C95.689 60.9715 95.7758 61.1118 95.8722 61.2763C95.9494 61.4215 96.0218 61.5473 96.0893 61.6538C96.1664 61.7602 96.2195 61.828 96.2484 61.857C96.2484 61.8377 96.2388 61.7747 96.2195 61.6683C96.2098 61.5522 96.1954 61.4021 96.1761 61.2183C96.1664 61.1796 96.1616 61.136 96.1616 61.0876C96.1616 60.9715 96.1809 60.8408 96.2195 60.6957C96.2291 60.6376 96.2532 60.5263 96.2918 60.3618C96.3401 60.1972 96.4028 60.0666 96.4799 59.9698C96.5571 59.873 96.6101 59.7859 96.6391 59.7085C96.6873 59.6795 96.7307 59.665 96.7693 59.665C96.8271 59.665 96.8899 59.694 96.9574 59.7521C97.0345 59.8004 97.1117 59.8779 97.1889 59.9843C97.266 60.0908 97.3191 60.1876 97.348 60.2747H97.3914C97.5265 60.2747 97.6181 60.1634 97.6663 59.9408C97.6856 59.8633 97.7049 59.6988 97.7242 59.4472V59.2875C97.7242 59.0552 97.6904 58.7213 97.6229 58.2858C97.5554 57.8407 97.4541 57.4439 97.3191 57.0954C97.184 56.7761 97.0394 56.6164 96.885 56.6164H96.8416C96.7837 56.6357 96.75 56.6648 96.7403 56.7035V56.8051C96.7403 56.8341 96.7452 56.8729 96.7548 56.9212C96.7645 56.989 96.7693 57.0471 96.7693 57.0954V57.1535C96.7596 57.1825 96.7403 57.2067 96.7114 57.2261C96.6632 57.2551 96.615 57.2696 96.5667 57.2696H96.4799C96.451 57.26 96.4076 57.2406 96.3497 57.2116C96.2822 57.1825 96.2243 57.168 96.1761 57.168C96.1279 57.1777 96.0989 57.2164 96.0893 57.2842C96.0893 57.2938 96.0796 57.3277 96.0603 57.3858V57.4584C96.0603 57.5455 96.07 57.6858 96.0893 57.8794C96.1086 57.9374 96.1857 58.039 96.3208 58.1842C96.4269 58.3004 96.5233 58.4262 96.6101 58.5617C96.6777 58.6681 96.7114 58.7601 96.7114 58.8375V58.881C96.7018 58.8907 96.6873 58.9246 96.668 58.9827C96.6584 59.031 96.5281 59.0649 96.2774 59.0843C96.2388 58.823 96.1182 58.6778 95.9157 58.6488C95.8771 58.6391 95.8385 58.6342 95.7999 58.6342C95.6456 58.6342 95.4912 58.6875 95.3369 58.7939C95.3659 58.8036 95.3803 58.8472 95.3803 58.9246V59.0552C95.3803 59.123 95.3659 59.2391 95.3369 59.4036C95.308 59.5585 95.2742 59.7133 95.2356 59.8682C95.1971 60.0134 95.1633 60.1295 95.1344 60.2166C95.009 61.0489 94.8595 61.8619 94.6858 62.6554C94.5701 63.2168 94.4351 63.7829 94.2807 64.3539C94.1071 65.0604 93.948 65.7621 93.8033 66.4589C93.2342 69.0913 92.6121 71.7189 91.9369 74.3416L91.8935 74.5884C91.797 75.0046 91.715 75.4691 91.6475 75.982C91.5703 76.5724 91.4691 77.1627 91.3437 77.7531L91.3292 77.8547C91.2135 78.4064 91.0398 78.8854 90.8083 79.2919C90.6733 79.5242 90.5672 79.7032 90.49 79.829C90.4129 79.9548 90.355 80.0371 90.3164 80.0758C90.2971 80.1049 90.2827 80.1194 90.273 80.1194C90.2634 80.1194 90.2537 80.1097 90.2441 80.0903V79.9742C90.2344 79.8774 90.2103 79.7758 90.1717 79.6693C90.1331 79.5629 90.0415 79.4951 89.8968 79.4661L89.7956 79.6258C89.7087 79.7419 89.5978 79.8774 89.4628 80.0323C89.3374 80.1774 89.0963 80.2791 88.7394 80.3371C88.585 80.3662 88.4404 80.3807 88.3053 80.3807C88.1221 80.3807 87.9195 80.3468 87.6977 80.2791C87.4855 80.221 87.2395 80.1581 86.9598 80.0903C86.68 80.0129 86.4485 79.9597 86.2653 79.9306C86.1978 79.921 86.0868 79.8484 85.9325 79.7129C85.865 79.6548 85.8312 79.5242 85.8312 79.3209C85.8312 79.0693 85.8795 78.7161 85.9759 78.2612C86.1495 77.4289 86.3617 76.6111 86.6125 75.8078C86.7476 75.3433 86.8488 74.9707 86.9164 74.69C86.9935 74.3126 87.1575 73.4367 87.4083 72.0625C87.6687 70.514 87.9774 68.7574 88.3343 66.7928C88.5465 65.6121 88.7587 64.5185 88.9709 63.512C89.1059 62.8442 89.2988 61.9925 89.5496 60.957C89.8004 59.9214 90.0415 59.3504 90.273 59.244C90.3116 59.2536 90.3357 59.3407 90.3454 59.5053C90.355 59.5924 90.3598 59.6843 90.3598 59.7811C90.3598 59.8779 90.355 59.9843 90.3454 60.1005V60.3182V60.5795C90.3454 60.6763 90.355 60.7489 90.3743 60.7973C90.3743 60.8166 90.3791 60.8263 90.3888 60.8263C90.3984 60.8263 90.4129 60.8069 90.4322 60.7682C90.4611 60.7295 90.49 60.6666 90.519 60.5795C90.5479 60.4924 90.572 60.4005 90.5913 60.3037C90.6106 60.2553 90.6203 60.2166 90.6203 60.1876C90.6299 60.1488 90.6347 60.115 90.6347 60.0859L90.6492 60.0569C90.6492 60.0526 90.6482 60.0492 90.6463 60.0468C90.6439 60.0439 90.6401 60.0424 90.6347 60.0424L90.6058 60.0569C90.6444 59.9504 90.6781 59.8246 90.7071 59.6795L90.7649 59.4327C90.8132 59.1811 90.8614 58.9488 90.9096 58.7359C90.9675 58.523 91.0302 58.402 91.0977 58.3729H91.1122C91.1508 58.3729 91.17 58.402 91.17 58.46V58.5471C91.17 58.5859 91.1556 58.6681 91.1266 58.7939L91.0832 58.9681C91.0736 59.0262 91.0639 59.094 91.0543 59.1714V59.2004C91.0543 59.2585 91.0736 59.2972 91.1122 59.3165H91.1411C91.199 59.3165 91.2472 59.2972 91.2858 59.2585C91.334 59.2198 91.3822 59.1665 91.4305 59.0988C91.498 59.0117 91.5752 58.9391 91.662 58.881C91.7295 58.823 91.8163 58.7939 91.9224 58.7939H91.9658C92.0333 58.8036 92.0671 58.8423 92.0671 58.9101V58.9391C92.0671 58.9778 92.0623 59.0262 92.0526 59.0843C92.043 59.1327 92.0237 59.1859 91.9947 59.244L91.9658 59.3746C91.9658 59.4133 91.961 59.4617 91.9513 59.5198V59.5633C91.9513 59.602 91.961 59.6311 91.9803 59.6504H91.9947C92.0719 59.6504 92.2118 59.4859 92.4143 59.1569C92.6265 58.8181 92.8436 58.402 93.0654 57.9084C93.2583 57.4535 93.3933 57.0374 93.4705 56.6599C93.4802 56.6212 93.5043 56.4906 93.5428 56.268C93.5525 56.2293 93.5573 56.1906 93.5573 56.1518C93.5573 55.997 93.4705 55.8857 93.2969 55.818L93.268 55.8034C93.2294 55.8034 93.1956 55.8276 93.1667 55.876C93.1474 55.9147 93.1184 55.968 93.0799 56.0357C93.0606 56.1035 93.0365 56.1664 93.0075 56.2244C92.9786 56.2631 92.94 56.2825 92.8918 56.2825H92.8628C92.8243 56.2728 92.7953 56.2438 92.776 56.1954L92.7471 56.0212C92.7471 55.9631 92.7374 55.9147 92.7182 55.876C92.7085 55.8567 92.694 55.847 92.6748 55.847C92.6651 55.847 92.6555 55.8518 92.6458 55.8615C92.5494 55.9389 92.4625 56.0357 92.3854 56.1518C92.3179 56.268 92.2552 56.389 92.1973 56.5148C92.1105 56.7277 92.0092 56.8825 91.8935 56.9793C91.7488 57.0858 91.6378 57.1584 91.5607 57.1971C91.5028 57.2164 91.4546 57.2261 91.416 57.2261H91.3437C91.3147 57.2164 91.2906 57.1971 91.2713 57.168L91.1556 57.11H91.1122C91.0736 57.11 91.0254 57.1196 90.9675 57.139C90.8807 57.1777 90.8035 57.3035 90.736 57.5164C90.6685 57.7197 90.6106 57.9278 90.5624 58.1407C90.5238 58.2762 90.4997 58.3875 90.49 58.4746C90.4611 58.5423 90.4418 58.5762 90.4322 58.5762H90.4177C90.3598 58.5084 90.3309 58.3875 90.3309 58.2133C90.3309 58.0294 90.3646 57.7874 90.4322 57.4874C90.5575 56.9067 90.736 56.2583 90.9675 55.5421C91.2086 54.826 91.4449 54.2066 91.6764 53.684C91.9079 53.1613 92.0864 52.8904 92.2118 52.871C92.2214 52.871 92.2262 52.8904 92.2262 52.9291C92.2262 52.9388 92.2214 52.9726 92.2118 53.0307C92.2118 53.0888 92.1973 53.1855 92.1684 53.321C92.1298 53.5339 92.1008 53.7565 92.0816 53.9888V54.1195C92.0816 54.284 92.1105 54.4146 92.1684 54.5114C92.1684 54.5211 92.1732 54.5259 92.1828 54.5259C92.2214 54.5259 92.2793 54.4921 92.3564 54.4243C92.4336 54.3566 92.5204 54.2695 92.6169 54.163C92.7133 54.0469 92.7905 53.9549 92.8484 53.8872L92.9062 53.8291C92.9159 53.8195 92.9255 53.8146 92.9352 53.8146C92.9545 53.8146 92.9641 53.834 92.9641 53.8727C92.9738 53.9114 92.9834 53.9598 92.9931 54.0178C93.0027 54.0953 93.0172 54.163 93.0365 54.2211C93.0557 54.2792 93.0799 54.313 93.1088 54.3227C93.2149 54.313 93.2824 54.255 93.3114 54.1485C93.3306 54.0904 93.3451 54.0324 93.3548 53.9743C93.374 53.9066 93.3837 53.8388 93.3837 53.7711C93.3933 53.6936 93.403 53.6259 93.4126 53.5678C93.4319 53.5001 93.4512 53.4372 93.4705 53.3791C93.4995 53.2823 93.5573 53.2339 93.6441 53.2339H93.6731C93.7406 53.2436 93.7743 53.2823 93.7743 53.3501V53.3936C93.7551 53.4904 93.7213 53.5969 93.6731 53.713C93.6345 53.8098 93.6104 53.892 93.6007 53.9598C93.5911 53.9888 93.5814 54.0275 93.5718 54.0759V54.0904C93.5718 54.1388 93.6007 54.1679 93.6586 54.1775H93.6731C93.7406 54.1775 93.7888 54.1243 93.8177 54.0178L93.8467 53.8872C93.866 53.8001 93.8804 53.7033 93.8901 53.5969L93.9335 53.3646C93.9528 53.2872 93.9721 53.2001 93.9914 53.1033C94.0203 52.9968 94.0782 52.9194 94.165 52.871H94.1795C94.2084 52.871 94.2277 52.8855 94.2373 52.9146L94.2807 53.0017C94.2904 53.05 94.3048 53.0936 94.3241 53.1323C94.3338 53.1517 94.3531 53.1613 94.382 53.1613H94.4109C94.4495 53.1517 94.4833 53.1081 94.5122 53.0307C94.5412 52.9533 94.5749 52.8662 94.6135 52.7694C94.6617 52.6145 94.7196 52.4742 94.7871 52.3484C94.8546 52.2226 94.927 52.15 95.0042 52.1306C95.0042 52.1403 95.0138 52.2129 95.0331 52.3484C95.0427 52.542 95.0572 52.7887 95.0765 53.0888C95.1054 53.3888 95.1344 53.6936 95.1633 54.0033C95.2019 54.3033 95.2501 54.5501 95.308 54.7437C95.3466 54.8889 95.3948 54.9614 95.4527 54.9614C95.472 54.9614 95.4864 54.9566 95.4961 54.9469C95.5347 54.9179 95.5732 54.8453 95.6118 54.7292C95.6504 54.613 95.6938 54.4776 95.742 54.3227C95.7903 54.1679 95.8385 54.0227 95.8867 53.8872C95.9349 53.742 95.9832 53.6356 96.0314 53.5678C96.205 53.3549 96.3208 53.2097 96.3786 53.1323C96.4076 53.0742 96.4269 53.0452 96.4365 53.0452C96.4462 53.0452 96.4558 53.0597 96.4654 53.0888C96.4847 53.1371 96.5281 53.2146 96.5957 53.321C96.6728 53.4178 96.8079 53.5291 97.0008 53.6549C97.0972 53.7323 97.295 53.984 97.594 54.4098C97.9026 54.8356 98.2113 55.3244 98.5199 55.876C98.8286 56.418 99.0553 56.9067 99.2 57.3422C99.2675 57.5358 99.3012 57.6955 99.3012 57.8213C99.3012 57.86 99.2964 57.8987 99.2868 57.9374C99.2675 58.0439 99.2144 58.1165 99.1276 58.1552C99.118 58.1649 99.1035 58.1697 99.0842 58.1697C99.0649 58.1697 99.0408 58.1552 99.0119 58.1262C98.9829 58.0971 98.954 58.0584 98.9251 58.01C98.8961 57.9616 98.8672 57.9229 98.8382 57.8939C98.8093 57.8552 98.7707 57.8358 98.7225 57.8358C98.7129 57.8455 98.7032 57.8648 98.6936 57.8939V57.981C98.6936 58.0487 98.7032 58.1649 98.7225 58.3294C98.7418 58.4842 98.7948 58.7068 98.8817 58.9972C98.9685 59.2875 99.0553 59.5391 99.1421 59.7521C99.2192 59.9553 99.2868 60.0569 99.3446 60.0569H99.3591C99.388 60.0472 99.4025 60.0279 99.4025 59.9988C99.4122 59.9892 99.417 59.9746 99.417 59.9553C99.417 59.9359 99.4122 59.9117 99.4025 59.8827C99.4025 59.844 99.388 59.7762 99.3591 59.6795C99.3302 59.5924 99.3109 59.5053 99.3012 59.4182C99.2916 59.3698 99.2868 59.3311 99.2868 59.302V59.244C99.2964 59.2246 99.3061 59.2004 99.3157 59.1714C99.3254 59.1423 99.3736 59.1278 99.4604 59.1278C99.5858 59.1569 99.6919 59.302 99.7787 59.5633C99.8751 59.8246 99.9523 60.0908 100.01 60.3618C100.049 60.536 100.087 60.6763 100.126 60.7828C100.155 60.8699 100.179 60.9134 100.198 60.9134C100.208 60.9134 100.213 60.9086 100.213 60.8989C100.3 60.8021 100.357 60.7005 100.386 60.594V60.5215C100.386 60.4731 100.377 60.3956 100.357 60.2892C100.348 60.1827 100.309 60.0376 100.242 59.8537C100.184 59.6988 100.145 59.5537 100.126 59.4182V59.273C100.145 59.1956 100.184 59.1278 100.242 59.0698C100.261 59.0504 100.285 59.0407 100.314 59.0407C100.391 59.0407 100.483 59.1472 100.589 59.3601C100.695 59.5633 100.796 59.8295 100.893 60.1585C100.999 60.4779 101.076 60.744 101.124 60.957C101.153 61.0441 101.177 61.1021 101.197 61.1312C101.254 61.315 101.38 61.7554 101.573 62.4522C101.766 63.1393 101.978 63.9087 102.209 64.7604C102.451 65.6024 102.658 66.3379 102.832 66.967C103.015 67.5864 103.106 67.9106 103.106 67.9396C103.319 67.7461 103.497 67.3057 103.642 66.6186C103.796 65.9218 103.917 65.254 104.003 64.6152C104.061 64.1701 104.114 63.8507 104.163 63.6571C104.288 63.1635 104.413 62.6748 104.539 62.1909C104.799 61.2038 105.036 60.2118 105.248 59.2149C105.363 58.6633 105.484 58.1116 105.609 57.56C105.706 57.1342 105.802 56.7035 105.899 56.268C106.053 55.5131 106.193 54.7534 106.318 53.9888C106.338 53.8243 106.357 53.6307 106.376 53.4081C106.386 53.0597 106.424 52.7065 106.492 52.3484L106.506 52.2903C106.574 51.9613 106.704 51.6806 106.897 51.4483C106.974 51.3903 107.037 51.3612 107.085 51.3612C107.095 51.3612 107.114 51.3709 107.143 51.3903C107.182 51.4 107.22 51.4483 107.259 51.5354C107.307 51.6225 107.346 51.7096 107.375 51.7967C107.394 51.8548 107.408 51.9032 107.418 51.9419C107.437 51.9806 107.457 52 107.476 52V51.971C107.476 51.9419 107.5 51.8839 107.548 51.7967C107.606 51.7096 107.688 51.5984 107.794 51.4629C107.9 51.3177 108.011 51.187 108.127 51.0709C108.252 50.9451 108.354 50.8677 108.431 50.8386C108.46 50.829 108.503 50.8241 108.561 50.8241C108.619 50.8241 108.715 50.8338 108.85 50.8531C108.985 50.8628 109.164 50.887 109.386 50.9257C109.607 50.9548 109.81 50.9838 109.993 51.0128L110.312 51.0709C110.601 51.0999 110.832 51.1145 111.006 51.1145H111.122C111.247 51.1145 111.334 51.1241 111.382 51.1435C111.44 51.1628 111.479 51.2016 111.498 51.2596V51.3467C111.498 51.4048 111.493 51.4871 111.484 51.5935C111.474 51.7387 111.464 51.9468 111.455 52.2177C111.426 52.6436 111.368 53.0646 111.281 53.4807L111.136 54.1485C111.088 54.3808 111.045 54.6082 111.006 54.8308C110.582 57.6761 110.066 60.536 109.458 63.4103L109.371 63.8458C109.082 65.2008 108.807 66.5557 108.546 67.9106C108.527 68.0267 108.474 68.2977 108.387 68.7235C108.301 69.1397 108.194 69.5994 108.069 70.1027C107.944 70.6059 107.813 71.0463 107.678 71.4237C107.553 71.8011 107.428 72.0092 107.302 72.0479C107.235 72.0479 107.201 71.9947 107.201 71.8882V71.7576C107.201 71.6802 107.22 71.5495 107.259 71.3656C107.288 71.1527 107.302 70.9688 107.302 70.814C107.302 70.6979 107.264 70.6398 107.186 70.6398C107.179 70.6398 107.172 70.6404 107.163 70.6417C107.149 70.644 107.132 70.6482 107.114 70.6543ZM76.9055 84.7863C76.1838 86.4978 75.0029 89.6575 73.3628 94.2653C71.3946 99.707 70.3777 103.218 70.3121 104.798C70.2902 105.258 70.4105 105.796 70.6729 106.41C70.9572 107.025 71.0884 107.343 71.0666 107.365C71.0666 107.738 70.8807 107.913 70.5089 107.891H69.9184C69.3936 107.891 68.9562 107.453 68.6063 106.575C68.3439 105.939 68.2236 105.467 68.2455 105.16C68.2674 104.106 68.4751 102.867 68.8688 101.44C69.6998 98.6099 70.7932 95.3186 72.1491 91.5665C73.0457 89.1748 73.6799 86.8269 74.0516 84.523C74.0954 84.2816 74.3141 83.9635 74.7077 83.5685C75.1232 83.1736 75.4075 82.9761 75.5606 82.9761C75.8449 82.998 76.1729 83.2284 76.5447 83.6673L76.9055 84.7863ZM64.731 96.1743C64.7528 96.3718 64.7747 96.5473 64.7966 96.7009C64.8403 96.8326 64.8622 96.9203 64.8622 96.9642C64.8622 97.1617 64.6216 97.6993 64.1405 98.577C63.6375 99.5205 63.2658 100.497 63.0252 101.506C62.8065 102.516 62.5988 103.503 62.402 104.468C61.1992 110.152 59.723 114.321 57.9735 116.976C55.393 120.859 51.6644 122.889 46.7877 123.065C45.4756 123.108 44.1416 122.384 42.7858 120.892C41.5174 119.488 40.8613 118.171 40.8176 116.943C40.7738 115.802 40.9816 114.617 41.4408 113.388C41.9438 111.94 42.6217 110.985 43.4746 110.525L43.5074 111.216C43.4856 111.172 43.3215 111.655 43.0154 112.664C42.6874 113.739 42.5233 114.606 42.5233 115.264C42.5233 115.462 42.5343 115.637 42.5561 115.791C42.8842 117.612 43.42 118.83 44.1635 119.444C44.9945 120.168 46.5253 120.563 48.7559 120.629C49.9806 120.629 51.4895 119.993 53.2827 118.72C55.2728 117.316 56.6833 115.692 57.5143 113.849C58.4328 111.874 59.1326 109.987 59.6137 108.188C60.0292 106.432 60.4338 104.677 60.8274 102.922C57.8533 105.577 55.6445 106.937 54.2012 107.003C52.3424 107.069 51.3911 106.421 51.3473 105.061C51.3036 103.898 51.7628 102.56 52.7251 101.045C53.4467 99.9264 54.8573 98.577 56.9567 96.9972C58.9686 95.4831 60.4119 94.6603 61.2867 94.5286C61.4179 94.5067 61.5491 94.4957 61.6803 94.4957C61.9427 94.4957 62.1833 94.5616 62.402 94.6932C62.6206 94.8029 62.7519 94.8578 62.7956 94.8578C62.8831 94.8578 63.0361 94.792 63.2548 94.6603C63.4735 94.5286 63.6375 94.4628 63.7469 94.4628C64.3811 94.4409 64.7091 95.0114 64.731 96.1743ZM61.7787 97.9846L60.9258 97.5896C60.0073 97.6115 58.564 98.4563 56.5958 100.124C54.562 101.857 53.5561 103.229 53.5779 104.238C53.5779 104.392 53.6545 104.534 53.8076 104.666C53.9825 104.798 54.1465 104.852 54.2996 104.831C55.3493 104.809 56.8254 103.953 58.728 102.263C60.6306 100.574 61.6475 99.1475 61.7787 97.9846ZM82.0038 106.114C83.1628 104.82 83.9392 103.569 84.3328 102.362C84.8795 100.629 85.1529 99.0268 85.1529 97.5567C85.1529 95.2308 84.3328 94.0898 82.6927 94.1337C82.4521 94.1337 81.971 94.3092 81.2493 94.6603C80.3965 95.0992 79.7295 95.5819 79.2483 96.1085C78.4611 96.9423 77.6629 98.0504 76.8537 99.4327C75.8696 101.144 75.3776 102.483 75.3776 103.448C75.3776 104.655 75.5744 105.686 75.968 106.542C76.4929 107.705 77.2911 108.286 78.3627 108.286C79.4561 108.286 80.6698 107.562 82.0038 106.114ZM83.3487 97.7542C83.3487 99.0488 82.977 100.541 82.2334 102.23C81.971 102.889 81.5336 103.635 80.9213 104.468C80.0684 105.631 79.3577 106.191 78.7891 106.147C78.3299 106.125 77.98 105.829 77.7394 105.258C77.5426 104.798 77.4442 104.293 77.4442 103.744C77.466 103.064 77.8706 101.945 78.6579 100.387C79.5764 98.588 80.4402 97.6883 81.2493 97.6883C81.3805 97.6883 81.4462 97.7322 81.4462 97.82C81.4462 97.9078 81.5008 97.9516 81.6102 97.9516C81.7414 97.9516 82.2116 97.5347 83.0207 96.7009C83.2394 96.7448 83.3487 97.0959 83.3487 97.7542ZM100.035 98.9061C100.1 100.925 99.1709 102.987 97.2464 105.094C95.322 107.2 93.4194 108.33 91.5387 108.484L90.2594 108.616C89.822 108.638 89.3518 108.385 88.8489 107.859C88.3459 107.332 88.0835 106.86 88.0616 106.443C87.9741 105.478 88.3568 104.326 89.2097 102.987C90.0626 101.649 91.0357 100.716 92.1292 100.19C92.4135 100.146 92.5665 100.256 92.5884 100.519C92.6321 100.87 92.5119 101.199 92.2276 101.506C90.8061 103.108 90.0844 104.655 90.0626 106.147C90.2375 106.366 90.4453 106.476 90.6858 106.476C90.7952 106.476 90.8936 106.465 90.9811 106.443C91.0685 106.399 91.1451 106.366 91.2107 106.345C91.823 106.301 92.5009 106.114 93.2445 105.785C94.3816 105.236 95.4969 104.271 96.5904 102.889C97.7494 101.397 98.2743 100.08 98.1649 98.939C98.0993 98.0394 97.815 97.3373 97.312 96.8326C96.8091 96.306 96.1858 96.0975 95.4423 96.2072C94.7425 96.295 93.813 97.0191 92.654 98.3795C91.5168 99.7399 90.8608 100.42 90.6858 100.42C90.3578 100.464 90.0735 100.321 89.833 99.9923C89.5924 99.6631 89.4612 99.3559 89.4393 99.0707C89.4174 98.8513 90.6421 96.1524 93.1133 90.974C93.5069 89.9208 94.1739 88.2861 95.1142 86.0699C95.2017 85.6091 95.4095 84.9399 95.7375 84.0622C95.9999 83.9525 96.3935 83.7989 96.9184 83.6014C97.5745 83.9306 97.9244 84.3475 97.9681 84.8521C98.0118 85.3787 97.9025 85.8505 97.6401 86.2674C96.3935 88.33 94.9939 91.0289 93.4413 94.3641C93.988 94.2105 94.9065 94.0679 96.1967 93.9362C97.2683 93.8484 98.1868 94.408 98.9522 95.6148C99.6301 96.668 99.991 97.7651 100.035 98.9061ZM117.627 106.641C118.354 106.117 118.925 105.617 119.34 105.142L119.34 105.16C119.318 105.467 119.438 105.939 119.701 106.575C120.051 107.453 120.488 107.891 121.013 107.891H121.603C121.975 107.913 122.161 107.738 122.161 107.365C122.183 107.343 122.052 107.025 121.767 106.41C121.505 105.796 121.385 105.258 121.407 104.798C121.472 103.218 122.489 99.707 124.457 94.2653C126.097 89.6575 127.278 86.4978 128 84.7863L127.639 83.6673C127.267 83.2284 126.939 82.998 126.655 82.9761C126.502 82.9761 126.218 83.1736 125.802 83.5685C125.409 83.9635 125.19 84.2816 125.146 84.523C124.774 86.8269 124.14 89.1748 123.244 91.5665C121.888 95.3186 120.794 98.6099 119.963 101.44C119.729 102.288 119.561 103.07 119.458 103.785C118.693 104.279 117.918 104.781 117.135 105.291C116.107 105.95 115.287 106.279 114.675 106.279C113.932 106.279 113.352 105.873 112.937 105.061C112.608 104.425 112.444 103.733 112.444 102.987C112.444 102.768 112.565 102.165 112.805 101.177C113.068 100.058 113.319 99.2023 113.56 98.6099C113.778 98.0833 114.117 97.4909 114.577 96.8326C114.839 96.0646 114.894 95.549 114.741 95.2857C114.303 94.8688 113.942 94.6603 113.658 94.6603C113.374 94.6603 113.079 94.9565 112.772 95.549C112.598 95.9 112.434 96.2402 112.28 96.5693C112.149 96.306 112.007 96.0427 111.854 95.7794C111.701 95.5161 111.439 95.3844 111.067 95.3844C109.82 95.3625 108.093 96.5473 105.884 98.939C103.697 101.331 102.604 103.207 102.604 104.567C102.604 104.962 102.768 105.445 103.096 106.015C103.446 106.674 103.806 107.003 104.178 107.003C105.228 107.003 106.365 106.52 107.59 105.555C108.574 104.655 109.558 103.766 110.542 102.889C110.476 103.196 110.443 103.503 110.443 103.81C110.443 104.666 110.662 105.544 111.1 106.443C111.231 106.729 111.537 107.08 112.018 107.497C112.587 107.979 113.068 108.221 113.461 108.221C113.571 108.221 113.669 108.232 113.757 108.254C113.866 108.297 113.975 108.319 114.085 108.319C114.916 108.319 116.097 107.76 117.627 106.641ZM110.739 98.3795C110.979 98.4892 111.143 98.5441 111.231 98.5441C111.078 99.1585 110.815 99.7509 110.443 100.321C110.247 100.629 109.459 101.408 108.082 102.658C106.551 104.019 105.611 104.699 105.261 104.699C105.151 104.699 105.053 104.655 104.965 104.567C104.878 104.458 104.812 104.403 104.769 104.403C104.856 103.854 105.162 103.163 105.687 102.329C106.234 101.495 106.77 100.848 107.294 100.387C107.732 99.9703 108.169 99.5644 108.607 99.1694C109.328 98.5331 109.875 98.2149 110.247 98.2149C110.356 98.2149 110.52 98.2698 110.739 98.3795ZM103.149 118.228L101.25 116.669C96.8185 122.732 83.5534 132.398 65.9434 122.559C49.2829 130.794 21.2968 136.712 10.8689 84.8817L8.53817 85.3148C11.5307 107.055 27.2013 145.494 65.9434 125.33C72.9069 129.661 90.0968 134.304 103.149 118.228Z" fill="white"/>
</svg>
