<svg width="16" height="16" viewBox="0 0 16 16" fill="none" xmlns="http://www.w3.org/2000/svg">
<path d="M15.1134 12.1843L11.7433 9.12018C11.584 8.97539 11.3746 8.89817 11.1594 8.90482C10.9443 8.91147 10.7401 9.00148 10.59 9.15583L8.60612 11.1961C8.12858 11.1049 7.16854 10.8056 6.1803 9.8199C5.19207 8.83084 4.89278 7.86832 4.80407 7.3941L6.84272 5.40936C6.99726 5.25941 7.0874 5.05521 7.09406 4.83998C7.10071 4.62474 7.02336 4.41537 6.87837 4.25616L3.81501 0.886907C3.66996 0.727196 3.46837 0.63032 3.25304 0.616853C3.03771 0.603385 2.82562 0.674387 2.6618 0.81478L0.862749 2.35764C0.719415 2.50149 0.633863 2.69295 0.622323 2.89569C0.609887 3.10295 0.372778 8.01257 4.1798 11.8212C7.50099 15.1416 11.6612 15.3845 12.8069 15.3845C12.9744 15.3845 13.0772 15.3795 13.1046 15.3778C13.3073 15.3665 13.4986 15.2806 13.6418 15.1366L15.1838 13.3367C15.3248 13.1734 15.3963 12.9615 15.3831 12.7462C15.37 12.5309 15.2732 12.3292 15.1134 12.1843Z" fill="#0F0F0F"/>
</svg>
