<svg width="16" height="16" viewBox="0 0 16 16" fill="none" xmlns="http://www.w3.org/2000/svg">
<path d="M15.1134 12.1846L11.7433 9.12042C11.584 8.97563 11.3746 8.89841 11.1595 8.90506C10.9443 8.91171 10.7401 9.00172 10.5901 9.15607L8.60615 11.1964C8.12861 11.1052 7.16857 10.8059 6.18034 9.82014C5.1921 8.83109 4.89281 7.86856 4.8041 7.39435L6.84275 5.40961C6.9973 5.25965 7.08743 5.05546 7.09409 4.84022C7.10074 4.62499 7.02339 4.41561 6.8784 4.2564L3.81504 0.887151C3.66999 0.72744 3.4684 0.630564 3.25307 0.617097C3.03774 0.603629 2.82565 0.674631 2.66183 0.815024L0.86278 2.35788C0.719445 2.50173 0.633894 2.69319 0.622354 2.89593C0.609918 3.1032 0.372808 8.01282 4.17983 11.8215C7.50102 15.1418 11.6612 15.3847 12.807 15.3847C12.9744 15.3847 13.0772 15.3797 13.1046 15.3781C13.3073 15.3667 13.4987 15.2808 13.6418 15.1368L15.1839 13.337C15.3248 13.1737 15.3963 12.9617 15.3832 12.7464C15.37 12.5311 15.2732 12.3295 15.1134 12.1846Z" fill="white"/>
</svg>
