<svg width="32" height="32" viewBox="0 0 32 32" fill="none" xmlns="http://www.w3.org/2000/svg">
<circle cx="16" cy="16" r="15.25" stroke="white" stroke-width="1.5"/>
<path d="M22.5206 19.836L19.4314 17.0272C19.2853 16.8944 19.0934 16.8236 18.8962 16.8297C18.6989 16.8358 18.5118 16.9183 18.3742 17.0598L16.5556 18.9301C16.1179 18.8465 15.2379 18.5722 14.332 17.6686C13.4261 16.7619 13.1517 15.8796 13.0704 15.4449L14.9392 13.6256C15.0809 13.4881 15.1635 13.3009 15.1696 13.1036C15.1757 12.9063 15.1048 12.7144 14.9719 12.5685L12.1638 9.47999C12.0308 9.33359 11.846 9.24479 11.6487 9.23244C11.4513 9.2201 11.2568 9.28518 11.1067 9.41387L9.45755 10.8282C9.32616 10.96 9.24774 11.1355 9.23716 11.3214C9.22576 11.5114 9.00841 16.0118 12.4982 19.5031C15.5426 22.5467 19.3561 22.7694 20.4064 22.7694C20.5599 22.7694 20.6541 22.7649 20.6792 22.7633C20.865 22.7529 21.0404 22.6742 21.1717 22.5422L22.5852 20.8923C22.7144 20.7426 22.78 20.5484 22.7679 20.351C22.7558 20.1536 22.6671 19.9688 22.5206 19.836Z" fill="white"/>
</svg>
