<svg width="22" height="22" viewBox="0 0 22 22" fill="none" xmlns="http://www.w3.org/2000/svg">
<path d="M18.9056 7.21831C18.8117 6.88558 18.6276 6.58214 18.3716 6.33837C18.1156 6.09461 17.7969 5.91906 17.4472 5.8293C16.1599 5.5 11 5.5 11 5.5C11 5.5 5.84007 5.5 4.55285 5.82755C4.203 5.91702 3.88405 6.09247 3.62805 6.33628C3.37204 6.58009 3.18799 6.88368 3.09436 7.21656C2.75 8.44268 2.75 11 2.75 11C2.75 11 2.75 13.5573 3.09436 14.7817C3.28404 15.4578 3.84386 15.9903 4.55285 16.1707C5.84007 16.5 11 16.5 11 16.5C11 16.5 16.1599 16.5 17.4472 16.1707C18.158 15.9903 18.716 15.4578 18.9056 14.7817C19.25 13.5573 19.25 11 19.25 11C19.25 11 19.25 8.44268 18.9056 7.21831ZM9.36105 13.3471V8.65287L13.6334 10.9825L9.36105 13.3471Z" fill="white"/>
</svg>
